<?xml version="1.0" encoding="UTF-8"?>
<!DOCTYPE svg PUBLIC "-//W3C//DTD SVG 1.1//EN" "http://www.w3.org/Graphics/SVG/1.1/DTD/svg11.dtd">
<!-- Creator: CorelDRAW -->
<svg xmlns="http://www.w3.org/2000/svg" xml:space="preserve" width="39.7483mm" height="21.7836mm" style="shape-rendering:geometricPrecision; text-rendering:geometricPrecision; image-rendering:optimizeQuality; fill-rule:evenodd; clip-rule:evenodd"
viewBox="0 0 2.85693 1.56571"
 xmlns:xlink="http://www.w3.org/1999/xlink">
 <defs>
  <style type="text/css">
   <![CDATA[
    .str0 {stroke:black;stroke-width:0.0183929}
    .fil0 {fill:none}
    .fil4 {fill:#FEFEFE}
    .fil2 {fill:#218444}
    .fil3 {fill:#E31E24}
    .fil1 {fill:#FEFEFE}
   ]]>
  </style>
 </defs>
 <g id="Слой_x0020_1">
  <metadata id="CorelCorpID_0Corel-Layer"/>
  <g id="_282683904">
   <g>
    <path id="_279302304" class="fil0 str0" d="M1.73234 0.470145c-0.246382,0 -0.492822,0 -0.739254,0 0.236046,-0.137987 0.642423,-0.149559 0.904711,-0.0558401l-0.165457 0.0558401zm-0.611646 0.626316l0.74159 0c-0.234019,0.135665 -0.639131,0.149824 -0.903137,0.0549416l0.161547 -0.0549416zm-0.68212 -0.626316l-0.42937 0 0 0.625022 0.338534 0 0.0116798 0c0.0267233,0 0.0320924,-0.000107813 0.0711999,0l0.00411847 0 0.027018 0 0.195925 0.445161 0.0700499 -0.207045c0.230404,0.152771 0.484297,0.209948 0.749029,0.208137 0.368175,-0.00249408 0.708506,-0.14015 0.932577,-0.446253 0.146116,0 0.292275,0 0.438397,0l0 -0.625022c-0.132668,0 -0.300303,0 -0.452715,0l-0.195753 -0.444766 -0.0700427 0.207045c-0.206951,-0.137232 -0.458896,-0.203436 -0.705537,-0.208238 -0.390744,-0.00758286 -0.739009,0.12267 -0.97576,0.445959l-0.009351 0z"/>
    <path id="_2793023041" class="fil1" d="M1.73234 0.470145c-0.246382,0 -0.492822,0 -0.739254,0 0.236046,-0.137987 0.642423,-0.149559 0.904711,-0.0558401l-0.165457 0.0558401zm-0.611646 0.626316l0.74159 0c-0.234019,0.135665 -0.639131,0.149824 -0.903137,0.0549416l0.161547 -0.0549416zm-0.68212 -0.626316l-0.42937 0 0 0.625022 0.338534 0 0.0116798 0c0.0267233,0 0.0320924,-0.000107813 0.0711999,0l0.00411847 0 0.027018 0 0.195925 0.445161 0.0700499 -0.207045c0.230404,0.152771 0.484297,0.209948 0.749029,0.208137 0.368175,-0.00249408 0.708506,-0.14015 0.932577,-0.446253 0.146116,0 0.292275,0 0.438397,0l0 -0.625022c-0.132668,0 -0.300303,0 -0.452715,0l-0.195753 -0.444766 -0.0700427 0.207045c-0.206951,-0.137232 -0.458896,-0.203436 -0.705537,-0.208238 -0.390744,-0.00758286 -0.739009,0.12267 -0.97576,0.445959l-0.009351 0z"/>
   </g>
   <path class="fil2" d="M0.300821 0.60011l0 0.365084c0,0.0189823 0.00549848,0.0322433 0.0164811,0.0397903 0.0110041,0.00753974 0.0303171,0.0113132 0.057982,0.0113132l0.0319055 0c0.0276793,0 0.0469994,-0.00377346 0.0579748,-0.0113132 0.010997,-0.00754693 0.0165026,-0.020808 0.0165026,-0.0397903l0 -0.365084c0,-0.0189967 -0.00550566,-0.0322505 -0.0165026,-0.0397903 -0.0109754,-0.0075613 -0.0302955,-0.0113204 -0.0579748,-0.0113204l-0.0319055 0c-0.0276649,0 -0.0469778,0.00375909 -0.057982,0.0113204 -0.0109826,0.00753974 -0.0164811,0.0207936 -0.0164811,0.0397975l0 -7.18755e-006zm-0.0319271 0.416188l0 -0.467299 -0.180853 0 0 0.467299 0.074463 0 0 -0.42349 0.0319199 0 0 0.42349 0.0744702 0zm0.244686 -0.160635l0 0.109531 0 0.0511035 0.0744702 0 0 -0.368728 0.0319055 0 0 0.368728 0.0744774 0 0 -0.160635c0,-0.064767 -0.00495941,-0.115605 -0.0148998,-0.152606 -0.0127723,-0.0481925 -0.0379503,-0.0958891 -0.075534,-0.143126 -0.0368865,0.0462663 -0.0611517,0.0915334 -0.0728674,0.13583 -0.011687,0.0442969 -0.017552,0.0975997 -0.017552,0.159901l0 0zm-0.10639 0.116819l-0.0319055 0 0 -0.379675 0.0319055 0 0 0.379675zm0.319149 -0.116819l0 0.160635 0.106397 0c0.0276577,0 0.0469778,-0.00377346 0.0579676,-0.0113132 0.0109898,-0.00754693 0.0164811,-0.020808 0.0164811,-0.0397903l0 -0.224165c0,-0.0189751 -0.00549129,-0.0322505 -0.0164811,-0.0397903 -0.0109898,-0.00754693 -0.0303099,-0.0113132 -0.0579676,-0.0113132l-0.0319199 0 0 -0.140926 -0.0744774 0 0 0.306664zm0.287236 0.160635l0 -0.467299 -0.0744486 0 0 0.467299 0.0744486 0zm-0.180839 -0.0438153l-0.0319199 0 0 -0.238749 0.0319199 0 0 0.238749z"/>
   <path class="fil3" d="M0.687 1.20763l-0.0389421 0.11513 -0.122864 -0.279172 0.369023 0.0466256 -0.144182 0.0490191c0.346835,0.226738 1.04742,0.193805 1.27059,-0.0715305l0.311127 -2.87502e-005c-0.303178,0.446217 -1.11886,0.553959 -1.64475,0.139956l0 0z"/>
   <path class="fil4" d="M1.88754 1.31535c-0.00789193,-0.017897 -0.0151226,-0.0381371 -0.0243945,-0.0629629 -0.00122907,0.000826568 -0.00243658,0.0017322 -0.00366565,0.00233595 -0.00122188,0.000610942 -0.00258033,0.000948757 -0.00381659,0.00131532 -0.00260908,0.0199239 -0.00627473,0.0388343 -0.00915694,0.0557466 -0.0107885,-0.0118738 -0.0215483,-0.0236399 -0.0316396,-0.0358371 -0.00123626,0.000819381 -0.00234314,0.00168189 -0.00357221,0.00230002 -0.00124345,0.000582192 -0.00252283,0.000884069 -0.00378065,0.0012722 0.00314096,0.0260692 0.00599442,0.0499894 0.00766193,0.0711208 0.00130813,-0.000862506 0.00252283,-0.00179689 0.00393159,-0.00248689 0.00143032,-0.000682817 0.00276721,-0.000999069 0.00427659,-0.00151657 -0.00311221,-0.0137713 -0.00512472,-0.0279596 -0.00732411,-0.0460794 0.0104579,0.0120248 0.0211745,0.0236902 0.0302021,0.0343565 0.00107813,-0.000869694 0.00210595,-0.00124345 0.00333502,-0.00163157 0.00249408,-0.018127 0.00534754,-0.0361893 0.0083735,-0.0543594 0.00503847,0.014332 0.0105657,0.0283189 0.015101,0.0434775 0.00237908,-0.00138001 0.00453534,-0.00278877 0.00700067,-0.0039819 0.0024797,-0.00120751 0.00489472,-0.00204126 0.00746786,-0.00306908l0 0zm-0.111342 0.0106519c0.00145907,0.0165601 -0.00367284,0.0339396 -0.0181414,0.0383456 -0.0140373,0.00429097 -0.0208151,-0.0077913 -0.0219292,-0.0207792 -0.00191189,-0.0223748 0.00491628,-0.0352262 0.0179689,-0.0392081 0.0140588,-0.00431253 0.020923,0.00876162 0.0221017,0.0216417l0 0zm0.0157335 -0.00286783c-0.00145907,-0.015446 -0.0110688,-0.0331202 -0.0377778,-0.0249552 -0.0233452,0.00714442 -0.0356071,0.0273989 -0.0338462,0.0472653 0.00199814,0.022648 0.017092,0.0313808 0.0377993,0.025027 0.0229786,-0.0069863 0.0355568,-0.0278877 0.0338246,-0.0473372l0 0zm-0.094466 0.0618129l-0.00239345 -0.0687058c-0.00243658,0.000797818 -0.00472941,0.0016747 -0.0071013,0.00227127 -0.00237908,0.000582192 -0.00484441,0.000891256 -0.0071588,0.00128657l0.000912819 0.0271546c-0.00482285,0.0013872 -0.009696,0.00291096 -0.0145332,0.00411847 -0.0048516,0.0012147 -0.00968163,0.00211314 -0.0145835,0.0031194l-0.000898444 -0.0271402c-0.00243658,0.000805006 -0.00474378,0.00168189 -0.00713005,0.00227845 -0.00237908,0.000582192 -0.00483003,0.000905631 -0.00714442,0.00127938l0.00239345 0.0687345c0.00232877,-0.000797818 0.00471503,-0.00172501 0.0071013,-0.00230002 0.00237189,-0.000603754 0.00472222,-0.000869694 0.00716599,-0.00126501l-0.00120751 -0.0335587c0.00490191,-0.0014447 0.00968163,-0.00292533 0.014526,-0.00414722 0.00486597,-0.00119313 0.00976788,-0.00211314 0.0145764,-0.0031194l0.0012147 0.033573c0.00230002,-0.000776255 0.00472222,-0.00171782 0.0071013,-0.0023072 0.00237189,-0.000582192 0.0047366,-0.000855318 0.0071588,-0.0012722l0 0zm-0.101323 0.0129663c-0.00335659,0.00076188 -0.00820818,0.00143751 -0.0140301,0.00226408 -0.00651192,0.000934381 -0.0122332,0.00170345 -0.0176957,0.0021922 0.00476535,-0.0125566 0.0110329,-0.0263136 0.0192411,-0.0441747 0.00485878,0.0150364 0.00888381,0.0267449 0.0124848,0.0397184l0 0zm0.0193058 0.0091785c-0.000194064,-0.00214908 -0.000194064,-0.00423347 -9.34381e-005,-0.00633223 0.000136563,-0.00191189 0.000467191,-0.00372315 0.000920006,-0.00538347l-0.0041544 0.000582192 -0.0197729 -0.0580179c-0.00130813,0.00038094 -0.0024797,0.000654067 -0.00373034,0.000826568 -0.00125063,0.000179689 -0.00243658,0.000244377 -0.00361534,0.000215626 -0.0101632,0.0234961 -0.019392,0.0444119 -0.0289011,0.0648461l-0.00419753 0.000596567c0.000215626,0.00153814 0.000258752,0.00332784 0.000115001,0.00523254 -0.000100626,0.00199814 -0.000316252,0.00401065 -0.000948757,0.00648317l0.00145907 -0.000208439c0.0038669,-0.00501691 0.0108676,-0.0060016 0.0169914,-0.00685692l0.0289083 -0.00406815c0.00533316,-0.000754693 0.0125566,-0.00154532 0.015561,0.00229283l0.00145907 -0.000208439zm-0.0950266 -0.0288364c-0.00255158,0.0164379 -0.011766,0.0320277 -0.0268383,0.0328112 -0.0146985,0.000776255 -0.0183354,-0.0125782 -0.0162439,-0.0254439 0.00353627,-0.0221664 0.0132826,-0.0329909 0.0268814,-0.033724 0.0146842,-0.000754693 0.0181845,0.0135845 0.0162007,0.0263567l0 0zm0.0159707 0.00105657c0.00232877,-0.0153526 -0.00271689,-0.0348237 -0.0306046,-0.0333574 -0.0243874,0.0012722 -0.0411847,0.0179473 -0.0442753,0.0376556 -0.00352909,0.0224683 0.00898444,0.0345793 0.0306405,0.0334509 0.0239705,-0.00125782 0.0412134,-0.018472 0.0442322,-0.037749l7.18755e-006 0zm-0.140452 0.019277c-0.00209876,0.00805006 -0.009581,0.0123626 -0.0149789,0.0120823l-0.00488035 -0.000258752 0.00706536 -0.0262346c0.0107166,-0.000215626 0.0156904,0.00374471 0.0127938,0.014411l0 0zm0.00752536 -0.0317043c-0.00107094,0.00377346 -0.00322002,0.00748943 -0.00687849,0.00983257 -0.00417597,0.00263783 -0.00776974,0.00206283 -0.0119745,0.0018472l0.00610942 -0.0228564c0.0020772,-0.000179689 0.00355065,-0.000194064 0.00511035,-0.000129376 0.00646161,0.000337815 0.00948757,0.0043269 0.00763318,0.011306l0 0zm0.00786318 0.0318337c0.00319127,-0.0120104 -0.00632504,-0.0158557 -0.0133473,-0.0169051l0.000244377 -0.000876881c0.00857475,-0.000747505 0.0177748,-0.0055416 0.0202186,-0.014641 0.00304033,-0.0113276 -0.00569973,-0.0151298 -0.0155826,-0.0156401l-0.0252499 -0.00132251 -0.0176957 0.065917 0.0225977 0.00118595c0.0115791,0.000625317 0.025178,-0.00435566 0.0288149,-0.0177173l0 0zm-0.11789 -0.0148639l-0.0177676 -0.00250127 0.0171639 -0.0206642 0.000603754 0.0231655zm0.0165961 0.0290665l-0.00319846 -0.0692592c-0.00140876,0 -0.00258033,-7.9063e-005 -0.00383815,-0.000265939 -0.00127938,-0.000150939 -0.00242939,-0.000416878 -0.00356502,-0.000783443l-0.0515994 0.0613817c0.00166751,0.000129376 0.0032344,0.000150939 0.00480128,0.000359377 0.00157407,0.000215626 0.00299721,0.000632504 0.00443472,0.000934381 0.00424784,-0.00624598 0.00876881,-0.0117588 0.0138935,-0.0185583l0.0226048 0.00316971c0.00035219,0.00669161 0.000115001,0.0133688 -0.000215626,0.0206858 0.00283908,0.000194064 0.00570691,0.000287502 0.00851725,0.000690005 0.00282471,0.000402503 0.00539066,0.00106376 0.00815787,0.00164595l7.18755e-006 0zm-0.0888884 -0.0325955c-0.00331346,0.00759724 -0.0113923,0.0107023 -0.0166679,0.00957382l-0.00480128 -0.00100626 0.0110904 -0.0248114c0.010616,0.0014447 0.0149142,0.00618129 0.0103788,0.0162439l0 0zm0.0124129 -0.0301374c-0.00165314,0.00355065 -0.00437722,0.00687849 -0.00835193,0.00864662 -0.00451378,0.00192626 -0.00797818,0.000797818 -0.0121038,-7.18755e-005l0.00960257 -0.0216058c0.00209158,0.000143751 0.00353627,0.000345002 0.00507441,0.000661255 0.00632504,0.00136563 0.00869694,0.00576441 0.00577879,0.0123698l0 0zm0.00278877 0.0326602c0.0050241,-0.0113635 -0.00378065,-0.0166392 -0.0105585,-0.0187811l0.000388128 -0.000819381c0.00858193,0.000610942 0.0184001,-0.00270252 0.0222527,-0.0113204 0.00478691,-0.0107166 -0.00324877,-0.0158054 -0.0129448,-0.0178682l-0.0247324 -0.00526129 -0.0277727 0.0623376 0.0221377 0.00471503c0.0113204,0.00240783 0.0255374,-0.000395315 0.0312299,-0.0130023l0 0zm-0.0932944 -0.00795662c-0.00337096,-0.000668442 -0.00808599,-0.00203408 -0.0137282,-0.00366565 -0.00633942,-0.0017897 -0.0118738,-0.00338534 -0.0170704,-0.0051966 0.00945882,-0.0095235 0.0207936,-0.0195214 0.0355424,-0.0325237 -0.00166751,0.0157407 -0.00275283,0.0280746 -0.00474378,0.0413859l0 0zm0.0139007 0.0162295c0.000697192,-0.00204845 0.00155251,-0.00395315 0.00250845,-0.00582192 0.000884069,-0.00168907 0.00193345,-0.00322002 0.00302596,-0.00454972l-0.00405378 -0.00115001 0.00556316 -0.0610223c-0.00136563,-0.000194064 -0.00253721,-0.000431253 -0.00374471,-0.000769068 -0.00122188,-0.000366565 -0.00233595,-0.000769068 -0.00341409,-0.00129376 -0.0188314,0.0173364 -0.0357796,0.032689 -0.052771,0.047481l-0.00406815 -0.00116438c-0.000424065,0.00151657 -0.00110688,0.00314815 -0.0020197,0.00483722 -0.000905631,0.00178251 -0.00191189,0.00354346 -0.00350752,0.00552004l0.00141595 0.000424065c0.00555598,-0.00301158 0.0123626,-0.00107813 0.0182779,0.000625317l0.0280889 0.00805724c0.00516785,0.00148782 0.0120966,0.0036944 0.0132898,0.00841662l0.00140876 0.00040969z"/>
   <path class="fil3" d="M1.94974 0.950597l0 0.0657014 0.10639 0c0.0276649,0 0.0469778,-0.00377346 0.0579892,-0.0113132 0.0109826,-0.00754693 0.0164954,-0.020808 0.0164954,-0.0397903l0 -0.224165c0,-0.015561 -0.0123985,-0.0253289 -0.0372387,-0.0291886 0.0248402,-0.00439159 0.0372387,-0.0141307 0.0372387,-0.0292102l0 -0.0825203c0,-0.0189967 -0.00551285,-0.0322505 -0.0164954,-0.0397903 -0.0110113,-0.0075613 -0.0303243,-0.0113204 -0.0579892,-0.0113204l-0.10639 0 0 0.401597zm-0.0319199 0.0657014l0 -0.0438153 -0.0478691 0 0 -0.372373c0,-0.0189967 -0.0054841,-0.0322505 -0.0164739,-0.0397903 -0.010997,-0.0075613 -0.0303171,-0.0113204 -0.0579748,-0.0113204l-0.0319199 0c-0.0276577,0 -0.0469922,0.00375909 -0.0579892,0.0113204 -0.0109754,0.00753974 -0.0164739,0.0207936 -0.0164739,0.0397975l0 0.372365 -0.0478835 0 0 0.0438153 0.276584 0zm-0.122318 -0.0438153l-0.0319199 0 0 -0.379675 0.0319199 0 0 0.379675zm0.367011 -0.372373l0 0.0861428 0 0.0511322 0 0.227809 0 0.0511035 0.180846 0 0 -0.0438153 -0.106369 0 0 -0.313952 0.106369 0 0 -0.0438153 -0.106369 0 0 -0.0219077 0.106369 0 0 -0.0438081 -0.180846 0 0 0.0511107zm-0.106383 0.0898156l-0.0319199 0 0 -0.0971182 0.0319199 0 0 0.0971182zm0 0.282557l-0.0319199 0 0 -0.238749 0.0319199 0 0 0.238749zm0.319149 -0.423483l0 0.131417 0 0.27018 0 0.0657014 0.0744774 0 0 -0.153325 0.0319127 0c0.0276505,0 0.0469778,-0.00376628 0.0579748,-0.0113276 0.0109826,-0.00755411 0.0164882,-0.0207936 0.0164882,-0.0397975l0 -0.211738c0,-0.0189967 -0.00550566,-0.0322505 -0.0164882,-0.0397903 -0.0109898,-0.0075613 -0.0303315,-0.0113204 -0.0579748,-0.0113204l-0.10639 0zm0.212759 0.0511107l0 0.211738 0 0.20445 0.0744774 0 0 -0.305205 0.0319199 -0.0262777 0 0.331483 0.074463 0 0 -0.456366 -0.106383 0.0861859 0 -0.0971182 -0.0744774 0 0 0.0511107zm-0.106369 0.219055l-0.0319127 0 0 -0.226358 0.0319127 0 0 0.226358z"/>
   <path class="fil2" d="M2.16995 0.358069l0.0389278 -0.115123 0.122871 0.279186 -0.369038 -0.0466472 0.144204 -0.0490335c-0.346828,-0.22671 -1.04742,-0.193798 -1.2706,0.0715377l-0.311113 3.59377e-005c0.303178,-0.446217 1.11885,-0.553959 1.64474,-0.139956l7.18755e-006 0z"/>
   <path class="fil4" d="M1.80717 0.27427l0.0278446 -0.059707c-0.00241502,-0.000373753 -0.00475097,-0.000639692 -0.00705817,-0.0011572 -0.00228564,-0.000524691 -0.00451378,-0.00133688 -0.00667005,-0.0020197l-0.0110401 0.0235752c-0.00470785,-0.000898444 -0.00950913,-0.00171782 -0.0141882,-0.00280314 -0.00466472,-0.00106376 -0.00918569,-0.00239345 -0.0138217,-0.00366565l0.0110473 -0.0235752c-0.00242939,-0.000366565 -0.00477972,-0.000603754 -0.00707255,-0.00115001 -0.00227127,-0.000524691 -0.00451378,-0.00133688 -0.00666286,-0.00202689l-0.0278733 0.0597142c0.00234314,0.000359377 0.0047941,0.000610942 0.00708692,0.0011572 0.00229283,0.000517504 0.00442753,0.00131532 0.00666286,0.00203408l0.0135917 -0.0291886c0.00477972,0.000927194 0.00950194,0.00172501 0.0141738,0.00280314 0.00467191,0.00107813 0.00928631,0.0024222 0.0138145,0.00366565l-0.0135701 0.0291815c0.00232877,0.000345002 0.00477972,0.000596567 0.00705817,0.00112845 0.00228564,0.000531879 0.00441316,0.00131532 0.00667723,0.00203408l0 0zm-0.0838571 -0.0181414l0.0236974 -0.0617914c-0.0023647,-0.000194064 -0.00487316,-0.000589379 -0.00707255,-0.00112845 -0.0140445,0.0112054 -0.0357509,0.0269461 -0.0514557,0.0367428l0.0161576 -0.0420472c-0.00243658,-0.000194064 -0.00481566,-0.000280314 -0.00711567,-0.000646879 -0.00233595,-0.000373753 -0.00459284,-0.00100626 -0.00679942,-0.00155251l-0.0236183 0.0615039c0.00232158,0.000280314 0.0047366,0.000654067 0.00693599,0.00110688 0.0131245,-0.0102063 0.0369368,-0.0271689 0.0517072,-0.0369224l-0.0163445 0.0425215c0.00235033,0.000186876 0.00480847,0.000280314 0.0070438,0.000632504 0.00240064,0.00038094 0.00457847,0.00102063 0.00686411,0.00158126l0 0zm-0.0761808 -0.029814c0.00362971,-0.0109538 -0.00385253,-0.0154029 -0.0122763,-0.0169554 -5.75004e-005,-0.000309065 5.75004e-005,-0.000567816 0.000258752,-0.000833756 0.00917131,-0.000833756 0.0168404,-0.00465034 0.0199023,-0.013872 0.00324158,-0.0102207 -0.00526129,-0.0156401 -0.0163732,-0.0168189 -0.00635379,-0.00067563 -0.0136204,6.46879e-005 -0.0197729,0.00207001 -0.000553441,0.00353627 -0.00116438,0.00657661 -0.00208439,0.00996913l0.00148782 0.000165314c0.00522535,-0.00559191 0.0109898,-0.00753255 0.0155898,-0.0070438 0.00541222,0.000575004 0.0088335,0.0047941 0.00673473,0.0112916 -0.00222095,0.00684973 -0.00717317,0.0117013 -0.0161576,0.0107598 -0.00120751,-0.000129376 -0.0024222,-0.000345002 -0.00354346,-0.000553441 -0.000316252,0.00223533 -0.00100626,0.00449941 -0.00219939,0.00682817 0.00170345,-1.43751e-005 0.00328471,0.000165314 0.0048516,0.000337815 0.00682817,0.000711567 0.0122835,0.00364409 0.00868256,0.0146051 -0.00253002,0.00776255 -0.00909944,0.0119745 -0.0158198,0.0112629 -0.00458566,-0.000452816 -0.00913538,-0.0031194 -0.0127363,-0.00840225l-0.00136563 0.000402503c0,0 -0.000891256,0.00493066 -0.00134407,0.00743911 0.00427659,0.0035794 0.00950913,0.00564223 0.015137,0.00623161 0.0129592,0.00136563 0.0272336,-0.00489472 0.0310287,-0.0168836l0 0zm-0.0853593 -0.0139007l-0.0171854 -0.000610942 0.0142817 -0.021383 0.00290377 0.0219939zm0.0187236 0.0260405l-0.0100123 -0.0656726c-0.00134407,0.000129376 -0.00245095,0.000194064 -0.00366565,0.000136563 -0.00122188,-2.87502e-005 -0.0023647,-0.000165314 -0.00348596,-0.000395315l-0.0430247 0.0636529c0.00158845,-2.87502e-005 0.0031194,-0.000186876 0.00462159,-0.000136563 0.0015022,5.75004e-005 0.00290377,0.00029469 0.00431972,0.000460003 0.0034069,-0.00640411 0.00718755,-0.0120895 0.0113851,-0.0190829l0.0218717 0.000754693c0.000991882,0.00634661 0.00142313,0.0127363 0.00185439,0.019737 0.00272408,-0.000107813 0.00544816,-0.000301877 0.00817943,-0.000208439 0.00273846,0.000100626 0.00523254,0.000488753 0.00795662,0.000754693l0 0zm-0.0647958 -0.059247c0.000100626,-0.00130813 0.000186876,-0.00271689 0.000481566,-0.00405378 0.000273127,-0.00130095 0.000826568,-0.00270252 0.00130813,-0.00402503l-0.0359809 0 -0.0137067 0.0644579c0.00232877,-0.000186876 0.00486597,-0.000495941 0.0072163,-0.000495941 0.00237908,0 0.00462159,0.000309065 0.0068713,0.000495941l0.0121973 -0.0576873c0.00997632,0 0.0160857,0.000661255 0.021613,0.00130813l0 0zm-0.0895928 0.032574l-0.0171711 0.000596567 0.0127579 -0.0223389 0.00441316 0.0217423zm0.0205205 0.024682l-0.0145835 -0.0648461c-0.00130095,0.000237189 -0.00243658,0.000366565 -0.00366565,0.000424065 -0.00120751,3.59377e-005 -0.00235033,-2.15626e-005 -0.00347877,-0.000172501l-0.0384678 0.0664992c0.00158126,-0.000150939 0.00306908,-0.000395315 0.00460003,-0.000445628 0.00150939,-5.75004e-005 0.00292533,0.000100626 0.0043269,0.000143751 0.00295408,-0.00660536 0.00631786,-0.0125566 0.0100194,-0.0198233l0.0218933 -0.00076188c0.00143032,0.00624598 0.00231439,0.0125926 0.00319846,0.0195501 0.00272408,-0.00029469 0.0054266,-0.000697192 0.00815068,-0.000776255 0.00271689,-0.000107813 0.00526847,0.000122188 0.00800693,0.000208439l0 0zm-0.0784305 0.00532597c-0.0012147,-0.0186948 -0.00112126,-0.0393087 -0.00133688,-0.0646879 -0.00138001,0.000337815 -0.00275283,0.00076188 -0.00405378,0.000912819 -0.00130095,0.000129376 -0.00263064,0 -0.0038669,-5.75004e-005 -0.008891,0.0170632 -0.0183642,0.0328902 -0.0265149,0.0471719 -0.00581473,-0.0142098 -0.0116582,-0.0283621 -0.0167542,-0.0426437 -0.00137282,0.000345002 -0.00265221,0.000754693 -0.00396034,0.000898444 -0.00130813,0.000143751 -0.00255158,-2.15626e-005 -0.00379503,-8.62506e-005 -0.00572129,0.0245167 -0.0110257,0.0469778 -0.0164307,0.0665423 0.00146626,-0.000337815 0.00286064,-0.000805006 0.00435566,-0.000934381 0.00149501,-0.000179689 0.00283189,0 0.0043269,2.15626e-005 0.00172501,-0.0134192 0.00454972,-0.0268455 0.00853162,-0.04388 0.00546254,0.0142529 0.0112845,0.0282686 0.015906,0.0408253 0.00127938,-0.000431253 0.00231439,-0.000438441 0.00356502,-0.00038094 0.00817224,-0.0154964 0.0166823,-0.0308346 0.0253649,-0.0461944 -0.000179689,0.014562 0.000201251,0.0289515 -0.000661255,0.0440884 0.00260189,-0.000460003 0.00498097,-0.00101344 0.00759724,-0.0012722 0.00263064,-0.000280314 0.00506722,-0.000244377 0.00772662,-0.00032344l0 0zm-0.0965863 -0.00484441l0.000560629 -0.0102782 -0.0232158 0.00368721 -0.000546254 0.0102423 0.0232014 -0.00365128zm-0.04917 0.0256739l-0.00114282 -0.0658739c-0.00234314,0.000725943 -0.00456409,0.00153814 -0.00684973,0.00206283 -0.00228564,0.000531879 -0.00463597,0.000783443 -0.00687849,0.00112126l0.000431253 0.0260189c-0.00463597,0.00126501 -0.00934381,0.00263783 -0.0140157,0.00370159 -0.00465034,0.00109251 -0.00930788,0.00186158 -0.0140085,0.00275283l-0.000402503 -0.0260333c-0.00235752,0.000747505 -0.00457847,0.00155251 -0.0068713,0.0020772 -0.00227127,0.000524691 -0.00462878,0.000769068 -0.0068713,0.00112845l0.00113563 0.0658523c0.00224252,-0.00070438 0.00454972,-0.00154532 0.00684973,-0.00205564 0.00228564,-0.000546254 0.00455691,-0.000740318 0.00688567,-0.0010997l-0.000596567 -0.032193c0.00472941,-0.00125782 0.00933663,-0.00263064 0.0140085,-0.00368721 0.00464316,-0.00108532 0.00939413,-0.00189033 0.0140085,-0.00276002l0.000575004 0.0321571c0.0022497,-0.00070438 0.00456409,-0.00155251 0.00685692,-0.00206283 0.00227845,-0.000539066 0.00454972,-0.000747505 0.00688567,-0.0010997l0 -7.18755e-006zm-0.0974129 -0.0105298c0.00142313,0.0158845 -0.00351471,0.0325093 -0.0173436,0.0367212 -0.0134838,0.00414003 -0.0199526,-0.00743193 -0.0210236,-0.0198736 -0.00184001,-0.0214476 0.00472941,-0.0337599 0.0171926,-0.0375837 0.0134695,-0.00410409 0.0200676,0.00840943 0.0211745,0.0207361l0 0zm0.0150795 -0.00273846c-0.00139438,-0.0148064 -0.0105873,-0.031733 -0.0361749,-0.0238986 -0.0223748,0.00684255 -0.0341193,0.0262346 -0.0324446,0.0452816 0.00192626,0.0216992 0.0163804,0.0300583 0.0362324,0.023992 0.0220011,-0.00672036 0.0340546,-0.0267377 0.0323871,-0.0453678l0 -7.18755e-006zm-0.0818734 0.0611229l-0.0348452 -0.0561779c-0.00117157,0.000639692 -0.00214189,0.00152376 -0.00326315,0.0019622 -0.00115001,0.000445628 -0.00228564,0.000359377 -0.0034069,0.000596567 -0.00523254,0.0306765 -0.00948757,0.0515347 -0.0147776,0.0750093 0.00145189,-0.000661255 0.00277439,-0.00137282 0.00420472,-0.00192626 0.00140157,-0.000531879 0.00286783,-0.000891256 0.00414003,-0.00125063 0.0015597,-0.014526 0.00472222,-0.0312371 0.00930788,-0.0536119 0.00922881,0.0153814 0.0165098,0.0272696 0.0235608,0.0411847 0.00240783,-0.00103501 0.00482285,-0.00237189 0.00736724,-0.00335659 0.00253721,-0.000970319 0.00513191,-0.00154532 0.00771224,-0.00242939l0 0zm-0.0977507 0.0145764l-0.0155754 0.0072738 0.00299721 -0.0255517 0.0125782 0.0182779zm0.028513 0.0147057l-0.0387625 -0.0539713c-0.00110688,0.000711567 -0.00209876,0.00126501 -0.00319127,0.00178251 -0.00110688,0.000524691 -0.00216345,0.000927194 -0.00327752,0.0012147l-0.00943007 0.0762527c0.00140157,-0.000747505 0.00267377,-0.00158126 0.00405378,-0.00220658 0.00135845,-0.000639692 0.00273846,-0.00106376 0.0040394,-0.00158126 0.000165314,-0.00722349 0.000948757,-0.0140085 0.00148782,-0.0221377l0.0198304 -0.00926475c0.00375909,0.0051966 0.00705817,0.0107023 0.0105944,0.0167326 0.00240064,-0.00131532 0.00474378,-0.00275283 0.00720911,-0.00388846 0.00246533,-0.00116438 0.00489472,-0.00196939 0.0074463,-0.00293252l0 0zm-0.0912244 -0.0242724c-0.0056566,-1.43751e-005 -0.0126429,0.00245814 -0.0178179,0.00569973 -0.0173795,0.010846 -0.0278589,0.030583 -0.0192339,0.0541079 0.00668442,0.0185223 0.0239345,0.022382 0.0409906,0.0117373 0.00534035,-0.00333502 0.0105585,-0.00792068 0.014332,-0.013757l-0.00101344 -0.00887662 -0.00125782 0.000115001c-0.0021347,0.00610942 -0.00686411,0.0125998 -0.0117804,0.0156904 -0.0122835,0.00765474 -0.0229427,0.00103501 -0.0285202,-0.0144326 -0.0047941,-0.0131748 -0.00472222,-0.0309352 0.00851006,-0.0392081 0.00509597,-0.00316971 0.0115288,-0.00299002 0.0162223,5.75004e-005l0.0010997 -0.000697192c-0.000452816,-0.0035794 -0.00106376,-0.0068713 -0.00153095,-0.0104363l0 0z"/>
   <path class="fil3" d="M1.41949 0.982236l0 -0.217704 0 -0.000610942 -0.0628839 0.0401568 0 0.000948757 0 0.140208 -0.0269461 0 0 -0.12285 0 -0.00107813 -0.0628839 0.040164 0 0.00142313 0 0.0761665c0,0.0160498 0.00464316,0.027248 0.0139295,0.033609 0.00928631,0.00638973 0.0256021,0.00956663 0.0489544,0.00956663l0.08983 0z"/>
   <path class="fil2" d="M1.32966 0.821307l0 -0.178172 -0.0628839 0 0 0.218336 0.0628839 -0.040164zm0.08983 -0.0573854l0 -0.120787 -0.0628839 0 0 0.160944 0.0628839 -0.0401568z"/>
  </g>
 </g>
</svg>
