<svg xmlns="http://www.w3.org/2000/svg" width="150.23" height="82.332" viewBox="0 0 2.857 1.566" shape-rendering="geometricPrecision" text-rendering="geometricPrecision" image-rendering="optimizeQuality" fill-rule="evenodd" clip-rule="evenodd"><defs><style>.fil4{fill:#fefefe}.fil2{fill:#218444}.fil3{fill:#e31e24}</style></defs><g id="Слой_x0020_1"><g id="_282683904"><path id="_279302304" d="M1.732.47H.993c.236-.138.643-.15.905-.056L1.732.47zm-.611.626h.741c-.234.136-.639.15-.903.055l.162-.055zM.439.47h-.43v.625h.453l.196.445.07-.207c.23.153.484.21.749.208.368-.002.708-.14.932-.446h.439V.47h-.453L2.199.025l-.07.207a1.33 1.33 0 0 0-.705-.208C1.033.017.684.147.448.47h-.01z" fill="none" stroke="#000" stroke-width=".018"/><path id="_2793023041" d="M1.732.47H.993c.236-.138.643-.15.905-.056L1.732.47zm-.611.626h.741c-.234.136-.639.15-.903.055l.162-.055zM.439.47h-.43v.625h.453l.196.445.07-.207c.23.153.484.21.749.208.368-.002.708-.14.932-.446h.439V.47h-.453L2.199.025l-.07.207a1.33 1.33 0 0 0-.705-.208C1.033.017.684.147.448.47h-.01z" fill="#fefefe"/><path class="fil2" d="M.3.6v.365c0 .02.006.032.017.04.011.008.03.011.058.011h.032c.028 0 .047-.003.058-.011.011-.008.017-.02.017-.04V.6C.482.581.476.568.465.56.455.553.435.55.407.55H.375a.107.107 0 0 0-.058.01C.307.568.301.581.301.6zm-.031.416V.55H.088v.467h.075V.593h.031v.423H.27zm.245-.16v.16h.074V.648H.62v.368h.074v-.16A.614.614 0 0 0 .68.703.393.393 0 0 0 .604.56a.375.375 0 0 0-.073.136.634.634 0 0 0-.017.16zM.407.972H.375v-.38h.032v.38zm.32-.116v.16h.106c.027 0 .047-.003.058-.011C.9.997.907.985.907.965V.741C.907.722.902.709.891.701A.116.116 0 0 0 .833.69H.8V.549H.726v.307zm.287.16V.55H.939v.467h.075zM.833.972H.8V.734h.032v.238z"/><path class="fil3" d="M.687 1.208l-.039.115-.123-.28.37.047-.145.05c.347.226 1.047.193 1.27-.072h.312c-.303.446-1.12.554-1.645.14z"/><path class="fil4" d="M1.888 1.315l-.025-.063-.004.003-.003.001-.01.056-.031-.036-.004.002-.003.002.007.07.004-.002.004-.001a.456.456 0 0 1-.007-.046l.03.034a.01.01 0 0 1 .004-.002l.008-.054.015.043.007-.004c.003 0 .005-.002.008-.003zm-.112.011c.002.017-.003.034-.018.038-.014.005-.02-.007-.022-.02-.002-.023.005-.036.018-.04.014-.004.021.01.022.022zm.016-.003c-.002-.015-.011-.033-.038-.025a.046.046 0 0 0-.034.047c.002.023.017.032.038.025a.046.046 0 0 0 .034-.047zm-.095.062l-.002-.069-.007.003h-.007v.028l-.014.004-.014.003-.001-.027-.007.002-.008.002.003.068.007-.002.007-.001-.001-.034.014-.004.015-.003.001.034.007-.003.007-.001zm-.1.013l-.015.002a.338.338 0 0 1-.018.002.739.739 0 0 1 .02-.044l.012.04zm.018.01V1.4l.001-.006-.004.001-.02-.058a.025.025 0 0 1-.007.001l-.029.065h-.004v.012c.004-.005.011-.006.018-.007l.028-.004c.006 0 .013-.002.016.002h.001zm-.095-.03c-.002.017-.011.032-.026.033-.015 0-.019-.013-.017-.025.004-.023.014-.033.027-.034.015 0 .018.013.016.026zm.016.001c.003-.015-.002-.035-.03-.033a.046.046 0 0 0-.044.038c-.004.022.008.034.03.033a.046.046 0 0 0 .044-.038zm-.14.02a.017.017 0 0 1-.015.012h-.005l.007-.027c.01 0 .016.004.013.015zm.007-.032a.017.017 0 0 1-.006.01c-.005.002-.008.002-.012.002l.006-.023h.005c.006 0 .01.004.007.01zm.008.032c.004-.012-.006-.016-.013-.017V1.38c.009 0 .018-.006.02-.015.003-.011-.005-.015-.015-.015l-.025-.002-.018.066.023.001c.011.001.025-.004.028-.017zm-.118-.015l-.017-.003.017-.02v.023zm.017.029l-.003-.07a.025.025 0 0 1-.008 0l-.051.061h.005l.004.001.014-.018.023.003v.02l.008.001.008.002zm-.089-.033a.016.016 0 0 1-.017.01L1.2 1.389l.01-.025c.011.002.016.006.011.016zm.013-.03a.017.017 0 0 1-.009.009c-.004.002-.008 0-.012 0l.01-.022h.005c.006.002.008.007.006.013zm.002.033c.005-.012-.003-.017-.01-.019.009 0 .019-.003.022-.012.005-.01-.003-.016-.013-.018l-.024-.005-.028.062.022.005c.011.002.026 0 .031-.013zm-.093-.008L1.13 1.37a.3.3 0 0 1-.017-.005l.036-.032-.005.04zm.014.016l.002-.006.003-.004-.004-.001.006-.061a.028.028 0 0 1-.007-.002 2.54 2.54 0 0 1-.053.047L1.1 1.363a.03.03 0 0 1-.006.01h.002c.005-.002.012 0 .018.001l.028.008c.005.002.012.004.014.009h.001z"/><path class="fil3" d="M1.95.95v.066h.106c.028 0 .047-.003.058-.011.011-.008.017-.02.017-.04V.741c0-.016-.013-.025-.038-.03.025-.004.038-.013.038-.028V.6c0-.019-.006-.032-.017-.04-.01-.007-.03-.011-.058-.011H1.95v.402zm-.032.066V.972H1.87V.6c0-.019-.006-.032-.017-.04-.01-.007-.03-.011-.057-.011h-.032a.113.113 0 0 0-.058.011c-.011.008-.017.021-.017.04v.372h-.048v.044h.277zM1.796.972h-.032v-.38h.032v.38zM2.163.6v.416h.18V.972h-.106V.66h.106V.615h-.106V.593h.106V.549h-.18V.6zm-.107.09h-.032V.593h.032V.69zm0 .282h-.032V.734h.032v.238zm.32-.423v.467h.074V.863h.032A.116.116 0 0 0 2.54.852c.01-.008.016-.021.016-.04V.6c0-.019-.005-.032-.016-.04-.011-.007-.03-.01-.058-.01h-.107zM2.587.6v.416h.075V.711l.031-.026v.331h.075V.56l-.106.086V.55h-.075V.6zm-.106.22H2.45V.592h.032v.226z"/><path class="fil2" d="M2.17.358l.039-.115.123.28-.37-.048.145-.049C1.76.2 1.059.233.837.498H.524C.828.052 1.645-.056 2.17.358z"/><path class="fil4" d="M1.807.274l.028-.06h-.007L1.821.21l-.01.024-.015-.003a.033.033 0 0 1-.014-.004l.011-.023-.007-.001L1.78.202l-.028.06h.007l.006.003.014-.03.014.003.014.004-.014.03H1.8l.007.002zM1.723.256l.024-.062H1.74a.632.632 0 0 1-.052.036l.017-.042h-.007L1.69.185l-.024.061.007.001.052-.037-.017.043h.007l.007.002zm-.076-.03c.004-.01-.004-.015-.012-.017.01-.001.017-.005.02-.014.003-.01-.005-.016-.016-.017a.05.05 0 0 0-.02.002.09.09 0 0 1-.002.01h.001a.02.02 0 0 1 .016-.007c.005 0 .009.005.007.011-.003.007-.008.012-.017.011h-.003a.021.021 0 0 1-.002.006h.005c.006.001.012.004.008.015a.016.016 0 0 1-.016.012.018.018 0 0 1-.012-.009h-.002l-.001.008c.004.004.01.006.015.006.013.002.027-.005.031-.017zM1.562.212h-.017L1.559.19l.003.022zm.018.026L1.57.173a.025.025 0 0 1-.007 0L1.52.236h.01l.012-.019.022.001a.212.212 0 0 1 .001.02h.016zM1.516.18V.175l.001-.004h-.035l-.014.065h.014l.012-.058.022.001zm-.09.033H1.41L1.422.19l.004.022zm.02.024L1.433.172a.027.027 0 0 1-.007 0l-.039.066h.008l.01-.02h.022a.2.2 0 0 1 .003.019h.017zm-.078.006L1.367.177l-.004.001h-.004l-.027.047-.016-.043-.004.001h-.004A1.774 1.774 0 0 1 1.29.25l.005-.001H1.3a.435.435 0 0 1 .01-.044l.016.04h.003L1.354.2l-.001.044h.007l.008-.001zM1.272.237v-.01L1.25.23v.01l.023-.003zm-.05.026V.197l-.008.002h-.006v.027L1.194.23 1.18.232V.206l-.007.002-.007.002.001.065.007-.002h.007V.24l.013-.004.014-.002v.032l.008-.002.006-.001zm-.097-.01c.001.015-.003.032-.017.036-.014.004-.02-.008-.021-.02-.002-.022.004-.034.017-.038.013-.004.02.009.021.021zM1.14.248c0-.013-.01-.03-.036-.023a.044.044 0 0 0-.033.046c.002.021.017.03.037.024A.044.044 0 0 0 1.14.249zM1.058.31L1.023.254 1.02.256h-.003l-.015.076.004-.002.004-.001a.595.595 0 0 1 .01-.054l.023.041c.003 0 .005-.002.008-.003L1.058.31zM.96.325L.945.332.948.307.96.325zM.99.34L.95.286a.027.027 0 0 1-.006.003l-.01.076.004-.002L.942.36.944.34l.02-.01.01.018.008-.004L.989.34zM.898.315A.037.037 0 0 0 .88.321C.863.332.852.351.86.375c.007.019.025.023.042.012A.046.046 0 0 0 .916.373L.915.364H.914A.033.033 0 0 1 .902.38C.89.388.879.381.873.366.87.353.87.335.882.326a.015.015 0 0 1 .016 0H.9L.898.316z"/><path class="fil3" d="M1.42.982V.764l-.063.04v.141H1.33V.822l-.063.04V.94c0 .016.004.027.014.034.009.006.025.01.049.01h.09z"/><path class="fil2" d="M1.33.821V.643h-.063v.218l.063-.04zm.09-.057v-.12h-.063v.16l.062-.04z"/></g></g></svg>