<?xml version="1.0" encoding="utf-8"?>
<!-- Generator: Adobe Illustrator 22.1.0, SVG Export Plug-In . SVG Version: 6.00 Build 0)  -->
<svg version="1.1"
	 id="Слой_1" xmlns:cc="http://creativecommons.org/ns#" xmlns:dc="http://purl.org/dc/elements/1.1/" xmlns:inkscape="http://www.inkscape.org/namespaces/inkscape" xmlns:rdf="http://www.w3.org/1999/02/22-rdf-syntax-ns#" xmlns:sodipodi="http://sodipodi.sourceforge.net/DTD/sodipodi-0.dtd" xmlns:svg="http://www.w3.org/2000/svg"
	 xmlns="http://www.w3.org/2000/svg" xmlns:xlink="http://www.w3.org/1999/xlink" x="0px" y="0px" viewBox="0 0 68 68"
	 style="enable-background:new 0 0 68 68;" xml:space="preserve">
<g transform="translate(0,-952.36218)">
	<path d="M31,952.4c-17.1,0-31,13.9-31,31s13.9,31,31,31c7.8,0,15-2.9,20.5-7.7l13.1,13.2c0.8,0.8,2,0.8,2.8,0
		c0.8-0.8,0.8-2.1,0-2.8l-13.1-13.1c4.8-5.5,7.7-12.6,7.7-20.5C62,966.3,48.1,952.4,31,952.4L31,952.4z M31,956.4
		c14.9,0,27,12.1,27,27c0,14.9-12.1,27-27,27s-27-12.1-27-27C4,968.4,16.1,956.4,31,956.4L31,956.4z"/>
</g>
</svg>
