<?xml version="1.0" encoding="utf-8"?>
<!-- Generator: Adobe Illustrator 21.1.0, SVG Export Plug-In . SVG Version: 6.00 Build 0)  -->
<svg version="1.1" id="Слой_13" xmlns="http://www.w3.org/2000/svg" xmlns:xlink="http://www.w3.org/1999/xlink" x="0px"
	 y="0px" viewBox="0 0 227 61" style="enable-background:new 0 0 227 61;" xml:space="preserve">
<style type="text/css">
	.st0{fill:#001A27;}
	.st1{fill:#FFFFFF;}
</style>
<g>
	<polygon class="st0" points="130.7,28.3 127.1,37.3 132.5,37.3 137.3,24.7 124.2,24.7 	"/>
	<polygon class="st0" points="170.5,23.1 164.8,23.1 162.7,28.9 168.1,28.9 	"/>
	<polygon class="st0" points="97.5,28.4 93.9,37.7 99.7,37.7 104.6,24.7 92,24.7 	"/>
	<polygon class="st0" points="194.7,28.7 191,37.8 196.5,37.8 201.2,25.6 188.8,25.6 	"/>
	<path class="st0" d="M205,2l-3,9H63l4-11H19L0,51h105l-4,10h24l4-10h79l19-49H205z M47,6h12l-3,9H44L47,6z M8,46L23,7h12L24,37h8
		l-3,9H8z M32,46l11-28h12L44,46H32z M78.3,39.2c-3.2,6.5-7.3,6.8-7.3,6.8H47.8l3.3-8.1h15.7c2.3-2.6-0.6-2.8-0.6-2.8
		s-4.5-1-6.1-1.2c-7-0.7-6-5-6-5c2-11,9-12,9-12h22c-0.4,5.6-5.5,7.8-5.5,7.8l-11.4,0.1c-3.7,1.8,0.7,2.3,0.7,2.3l8.8,1.7
		C83.7,29.6,78.3,39.2,78.3,39.2z M102.7,46.6c-4.3,0.1-19.1,0-19.1,0s-3.8-1.6-2.8-5.4s7.8-20.2,7.8-20.2s2.9-4.9,6.9-4.9h18.4
		c0,0,5.3,0.7,3.2,6.4s-7,18.7-7,18.7S106.9,46.6,102.7,46.6z M135.8,46h-11.8l-3.9,9.6h-12l15.1-39.5h23.5c5,1.7,3.2,6.2,3.2,6.2
		l-7.6,19.3C139.7,46,135.8,46,135.8,46z M172.3,46h-22c0,0-3.9-0.1-3.2-5.9l6.9-18.1c0,0,2.8-4.4,6.5-5.9h18.8c0,0,3.3,0.4,3.1,3.4
		c0,0,1,3.1-3.3,10.9c0,0-4.6,5-7,4.6l-18,0.3l5.8,2.8l15,0.1L172.3,46z M205,46.7h-24c0,0-3.8-1.7-2.9-5.4l7.3-19.5
		c0,0,3.1-4.3,6.3-5c3.1-0.7,12.5,0,12.5,0l3.9-9.3h11.6L205,46.7z"/>
	<polygon class="st1" points="24,37 35,7 23,7 8,46 29,46 32,37 	"/>
	<polygon class="st1" points="59,6 47,6 44,15 56,15 	"/>
	<polygon class="st1" points="43,18 32,46 44,46 55,18 	"/>
	<path class="st1" d="M77.5,28.8l-8.8-1.7c0,0-4.3-0.4-0.7-2.3l11.4-0.1c0,0,5.1-2.2,5.5-7.8H63c0,0-7,1-9,12c0,0-1,4.3,6,5
		c1.5,0.1,6.1,1.2,6.1,1.2s2.9,0.2,0.6,2.8H51L47.8,46h23.3c0,0,4.1-0.3,7.3-6.8C78.3,39.2,83.7,29.6,77.5,28.8z"/>
	<path class="st1" d="M117.1,22.6c2.1-5.8-3.2-6.4-3.2-6.4H95.5c-4.1,0-6.9,4.9-6.9,4.9s-6.9,16.4-7.8,20.2s2.8,5.4,2.8,5.4
		s14.9,0.1,19.1,0s7.4-5.4,7.4-5.4S115,28.3,117.1,22.6z M99.7,37.7h-5.8l3.6-9.3L92,24.7h12.5L99.7,37.7z"/>
	<path class="st1" d="M146.8,16.1h-23.5l-15.1,39.5h12l3.9-9.6h11.8c0,0,3.8,0,6.5-4.3l7.6-19.3C149.9,22.3,151.8,17.8,146.8,16.1z
		 M132.5,37.3h-5.4l3.6-9l-6.5-3.6h13.1L132.5,37.3z"/>
	<path class="st1" d="M154,35.3l18-0.3c2.4,0.4,7-4.6,7-4.6c4.3-7.8,3.3-10.9,3.3-10.9c0.1-3-3.1-3.4-3.1-3.4h-18.8
		c-3.8,1.5-6.5,5.9-6.5,5.9L147,40.1c-0.6,5.8,3.2,5.9,3.2,5.9h22l2.5-7.9l-15-0.1L154,35.3z M164.8,23.1h5.8l-2.4,5.8h-5.4
		L164.8,23.1z"/>
	<path class="st1" d="M208,7.5l-3.9,9.3c0,0-9.4-0.7-12.5,0c-3.1,0.7-6.3,5-6.3,5l-7.3,19.5c-0.9,3.7,2.9,5.4,2.9,5.4h24l14.6-39.2
		H208z M196.5,37.8H191l3.7-9l-5.9-3.1h12.4L196.5,37.8z"/>
</g>
</svg>
