<?xml version="1.0" encoding="utf-8"?>
<!-- Generator: Adobe Illustrator 21.1.0, SVG Export Plug-In . SVG Version: 6.00 Build 0)  -->
<svg version="1.1" id="Слой_1" xmlns="http://www.w3.org/2000/svg" xmlns:xlink="http://www.w3.org/1999/xlink" x="0px" y="0px"
	 viewBox="0 0 24 16.7" style="enable-background:new 0 0 24 16.7;" xml:space="preserve">
<g>
	<path d="M23.9,14.2V1.4c0-0.8-0.6-1.4-1.4-1.4h-5h-3.8H1.5C0.7,0,0.1,0.6,0.1,1.4v13.9c0,0.8,0.6,1.4,1.4,1.4h21
		c0.8,0,1.4-0.6,1.4-1.4v-0.4V14.2C23.9,14.3,23.9,14.3,23.9,14.2z M15.1,6.8L14.4,6l0.7-0.7c0.1-0.1,0.1-0.2,0.1-0.3V3.9h1.1
		c0.1,0,0.2,0,0.3-0.1L17.4,3l0.7,0.7c0.1,0.1,0.2,0.1,0.3,0.1h1.1V5c0,0.1,0,0.2,0.1,0.3L20.4,6l-0.7,0.7c-0.1,0.1-0.1,0.2-0.1,0.3
		v1.1h-1.1c-0.1,0-0.2,0-0.3,0.1l-0.7,0.7l-0.7-0.7c-0.1-0.1-0.2-0.1-0.3-0.1h-1.1v-1C15.2,7,15.2,6.9,15.1,6.8z M13.6,0.8l2.3,2.3
		h-1.1c-0.2,0-0.4,0.2-0.4,0.4v1.1l-3.8-3.8C10.6,0.8,13.6,0.8,13.6,0.8z M20,9c0.2,0,0.4-0.2,0.4-0.4V7.5l2.8,2.8v3L18.9,9H20L20,9
		z M22.5,0.8c0.3,0,0.6,0.3,0.6,0.6v7.8l-2.4-2.4l0.5-0.5c0.2-0.2,0.2-0.4,0-0.6l-0.9-0.9V3.5c0-0.2-0.2-0.4-0.4-0.4h-1.4l-0.9-0.9
		C17.4,2,17.2,2,17,2.2l-0.5,0.5l-1.9-1.9h2.8C17.4,0.8,22.5,0.8,22.5,0.8z M23.1,15.3c0,0.3-0.3,0.6-0.6,0.6h-21
		c-0.3,0-0.6-0.3-0.6-0.6V1.4c0-0.3,0.3-0.6,0.6-0.6h8L14,5.3l-0.5,0.5c-0.2,0.2-0.2,0.4,0,0.6l0.9,0.9v1.4c0,0.2,0.2,0.4,0.4,0.4
		h1.4l0.9,0.9c0.1,0.1,0.2,0.1,0.3,0.1s0.2,0,0.3-0.1l0.5-0.5l5,5V15L23.1,15.3L23.1,15.3z"/>
	<path d="M17.4,7.7C18.3,7.7,19,6.9,19,6s-0.7-1.6-1.6-1.6S15.8,5.1,15.8,6C15.8,6.9,16.5,7.7,17.4,7.7z M17.4,5.2
		c0.5,0,0.8,0.4,0.8,0.8c0,0.5-0.4,0.8-0.8,0.8S16.6,6.5,16.6,6C16.6,5.6,16.9,5.2,17.4,5.2z"/>
	<path d="M12.1,13H2.7c-0.2,0-0.4,0.2-0.4,0.4s0.2,0.4,0.4,0.4H12c0.2,0,0.4-0.2,0.4-0.4S12.3,13,12.1,13z"/>
	<path d="M2.7,11.8h6.5c0.2,0,0.4-0.2,0.4-0.4S9.4,11,9.2,11H2.7c-0.2,0-0.4,0.2-0.4,0.4S2.5,11.8,2.7,11.8z"/>
	<path d="M2.7,9.8H6c0.2,0,0.4-0.2,0.4-0.4S6.2,9,6,9H2.7C2.5,9,2.3,9.2,2.3,9.4S2.5,9.8,2.7,9.8z"/>
</g>
</svg>
