<?xml version="1.0" encoding="utf-8"?>
<!-- Generator: Adobe Illustrator 21.1.0, SVG Export Plug-In . SVG Version: 6.00 Build 0)  -->
<svg version="1.1" xmlns="http://www.w3.org/2000/svg" xmlns:xlink="http://www.w3.org/1999/xlink" x="0px" y="0px"
	 viewBox="0 0 60 49.6" style="enable-background:new 0 0 60 49.6;" xml:space="preserve">
<style type="text/css">
	.st0{display:none;}
	.st1{display:inline;}
	.st2{fill:none;stroke:#B3B3B3;stroke-width:0.1;stroke-miterlimit:10;}
	.st3{fill:#FFFFFF;}
	.st4{fill:none;stroke:#000000;stroke-width:1.5;stroke-miterlimit:10;}
</style>
<g id="Слой_1">
	<g class="st0">
		<g class="st1">
			<rect y="-6.4" class="st2" width="60" height="60"/>
			<line class="st2" x1="30" y1="-6.4" x2="30" y2="53.6"/>
			<line class="st2" x1="60" y1="23.6" x2="0" y2="23.6"/>
			<line class="st2" x1="0" y1="-6.4" x2="60" y2="53.6"/>
			<rect x="8" y="1.6" class="st2" width="44" height="44"/>
			<line class="st2" x1="60" y1="-6.4" x2="0" y2="53.6"/>
			<line class="st2" x1="0" y1="23.6" x2="30" y2="-6.4"/>
			<line class="st2" x1="30" y1="-6.4" x2="60" y2="23.6"/>
			<line class="st2" x1="60" y1="23.6" x2="30" y2="53.6"/>
			<line class="st2" x1="30" y1="53.6" x2="0" y2="23.6"/>
			<circle class="st2" cx="30" cy="23.6" r="21"/>
		</g>
	</g>
	<path d="M54,41.6v-31c0-1.7-1.3-3-3-3h-9.2c-0.1,0.7-0.2,1.4-0.4,2H51c0.6,0,1,0.4,1,1v31H8v-31c0-0.6,0.4-1,1-1h10.6
		c-0.2-0.6-0.3-1.3-0.4-2H9c-1.7,0-3,1.3-3,3v31H0v3c0,2.8,2.2,5,5,5h50c2.8,0,5-2.2,5-5v-3H54z M58,44.6c0,1.7-1.3,3-3,3H5
		c-1.7,0-3-1.3-3-3v-1h4h19c0,1.1,0.9,2,2,2h6c1.1,0,2-0.9,2-2h19h4V44.6z"/>
	<path d="M10,37.6h40v-26h-9.3c-0.2,0.7-0.5,1.4-0.7,2h8v22H12v-22h8.3c-0.3-0.6-0.5-1.3-0.7-2H10V37.6z"/>
	<path d="M29.8,23.1c0.1,0,0.2,0,0.2,0s0.2,0,0.2,0c0.1-0.1,12.1-3.6,12.1-19.7v-1l-0.9,0.2c-3.8,0.6-7.7-0.9-11.1-2.4L30,0
		l-0.3,0.2c-3.4,1.4-7.3,3-11.1,2.4l-0.9-0.2v1C17.7,19.5,29.7,23.1,29.8,23.1z M30,1.9c3.3,1.3,6.9,2.7,10.7,2.5
		c-0.4,13.1-9,17.1-10.7,17.1c-1.6-0.1-10.3-4.2-10.7-17.2C23.1,4.5,26.8,3.2,30,1.9z"/>
</g>
<g id="Слой_3">
	<rect x="24" y="43.6" class="st3" width="12.7" height="0.4"/>
</g>
<g id="Слой_2">
	<polyline class="st4" points="24.8,11.1 29,15.3 36.1,5.8 	"/>
</g>
</svg>
