<?xml version="1.0" encoding="utf-8"?>
<!-- Generator: Adobe Illustrator 21.1.0, SVG Export Plug-In . SVG Version: 6.00 Build 0)  -->
<svg version="1.1" id="dealer" xmlns="http://www.w3.org/2000/svg" xmlns:xlink="http://www.w3.org/1999/xlink" x="0px" y="0px"
	 viewBox="0 0 80 80" style="enable-background:new 0 0 80 80;" xml:space="preserve">
<path d="M79,14.4H46.3V1.2c0-0.6-0.4-1-1-1H34.7c-0.6,0-1,0.4-1,1v13.2H1c-0.6,0-1,0.4-1,1v63.8c0,0.6,0.4,1,1,1h78c0.6,0,1-0.4,1-1
	V15.4C80,14.9,79.6,14.4,79,14.4z M34.7,26.1h10.5c0.6,0,1-0.4,1-1v-1.8H47c1.7,0,3,1.3,3,3s-1.3,3-3,3H33c-1.7,0-3-1.3-3-3
	s1.3-3,3-3h0.7v1.8C33.7,25.6,34.2,26.1,34.7,26.1z M35.7,2.2h8.5v21.9h-8.5V2.2z M78,78.2H2V16.4h31.7v4.8H33c-2.8,0-5,2.2-5,5
	s2.2,5,5,5h14c2.8,0,5-2.2,5-5s-2.2-5-5-5h-0.7v-4.8H78V78.2z"/>
<path d="M40.9,37.8c-0.3-0.7-1.5-0.7-1.8,0l-5,10L23,49.4c-0.4,0.1-0.7,0.3-0.8,0.7c-0.1,0.4,0,0.8,0.3,1l8,7.8l-1.9,11
	c-0.1,0.4,0.1,0.8,0.4,1s0.7,0.3,1.1,0.1l9.9-5.2l9.9,5.2c0.1,0.1,0.3,0.1,0.5,0.1s0.4-0.1,0.6-0.2c0.3-0.2,0.5-0.6,0.4-1l-1.9-11
	l8-7.8c0.3-0.3,0.4-0.7,0.3-1c-0.1-0.4-0.4-0.6-0.8-0.7l-11.1-1.6L40.9,37.8z M47.7,57.9c-0.2,0.2-0.3,0.6-0.3,0.9l1.6,9.6l-8.6-4.5
	c-0.1-0.1-0.3-0.1-0.5-0.1s-0.3,0-0.5,0.1L31,68.3l1.6-9.6c0.1-0.3-0.1-0.7-0.3-0.9L25.4,51l9.6-1.4c0.3,0,0.6-0.3,0.8-0.5l4.3-8.7
	l4.3,8.7c0.1,0.3,0.4,0.5,0.8,0.5l9.6,1.4L47.7,57.9z"/>
</svg>
