<?xml version="1.0" encoding="utf-8"?>
<!-- Generator: Adobe Illustrator 21.1.0, SVG Export Plug-In . SVG Version: 6.00 Build 0)  -->
<svg version="1.1" id="Слой_1" xmlns="http://www.w3.org/2000/svg" xmlns:xlink="http://www.w3.org/1999/xlink" x="0px" y="0px"
	 viewBox="0 0 90 59.1" style="enable-background:new 0 0 90 59.1;" xml:space="preserve">
<path d="M38.8,4c-0.3-0.2-0.6-0.3-0.9-0.1c-0.3,0.1-0.5,0.5-0.5,0.8v3.5H24.7l0,0c-0.2,0-0.5,0.1-0.6,0.3c-0.2,0.2-0.3,0.4-0.3,0.6
	V16c0,0.5,0.4,0.9,0.9,0.9h12.7v3.5c0,0.3,0.2,0.7,0.5,0.8c0.1,0.1,0.2,0.1,0.4,0.1s0.4-0.1,0.6-0.2l9-7.9c0.2-0.2,0.3-0.4,0.3-0.7
	s-0.1-0.5-0.3-0.7L38.8,4z M39.1,18.5V16c0-0.2-0.1-0.5-0.3-0.6c-0.2-0.2-0.4-0.3-0.6-0.3H25.5V10h12.7l0,0c0.2,0,0.5-0.1,0.6-0.3
	s0.3-0.4,0.3-0.6V6.6l6.7,5.9L39.1,18.5z M35,18.4c-0.2-0.2-0.4-0.2-0.6-0.3H21.7v-3.5c0-0.3-0.2-0.7-0.5-0.8s-0.7-0.1-0.9,0.1
	l-9,7.9C11.1,22,11,22.2,11,22.5c0,0.3,0.1,0.5,0.3,0.7l9,7.9c0.2,0.1,0.4,0.2,0.6,0.2l0,0c0.5,0,0.9-0.4,0.9-0.9c0-0.1,0-0.1,0-0.2
	v-3.4h12.7c0.5,0,0.9-0.4,0.9-0.9V19C35.3,18.8,35.2,18.5,35,18.4z M20.8,25c-0.2,0-0.5,0.1-0.6,0.3c-0.2,0.2-0.3,0.4-0.3,0.6v2.5
	l-6.7-5.9l6.7-5.9v2.5c0,0.2,0.1,0.5,0.3,0.6c0.2,0.2,0.4,0.3,0.6,0.3l0,0h12.7v5.1L20.8,25z M77.2,19.2H64.1l0,0
	c-0.5,0-0.9,0.4-0.9,0.9v13.4c0,0.2,0.1,0.5,0.3,0.6c0.2,0.2,0.4,0.3,0.6,0.3h19.5l0,0c0.3,0,0.6-0.2,0.7-0.4
	c0.2-0.3,0.2-0.6,0.1-0.8L78,19.7C77.8,19.4,77.5,19.2,77.2,19.2z M64.9,32.5V20.9h11.7l5.5,11.6H64.9z M89.9,30.6l-8.1-16.3
	c-0.1-0.3-0.5-0.5-0.8-0.5H59V0.9c0-0.2-0.1-0.5-0.3-0.6C58.6,0.1,58.3,0,58.1,0H0.9l0,0C0.4,0,0,0.4,0,0.9v33.2v15.6
	c0,0.5,0.4,0.9,0.9,0.9h8.5c0.4,4.8,4.5,8.5,9.3,8.5l0,0c4.9,0,8.9-3.7,9.3-8.5h36.2c0.4,4.8,4.5,8.5,9.3,8.5l0,0l0,0
	c2.5,0,4.9-1,6.6-2.7c1.6-1.6,2.5-3.6,2.7-5.7H89l0,0c0.5,0,0.9-0.4,0.9-0.9L90,31C90,30.9,90,30.8,89.9,30.6z M1.8,1.8h55.4v31.5
	H1.8L1.8,1.8z M18.7,57.4L18.7,57.4c-3.9,0-7.1-3-7.6-6.7h2.6c0,0,0,0,0,0.1v0.1V51v0.1v0.1v0.1c0,0.1,0,0.1,0.1,0.2c0,0,0,0,0,0.1
	s0.1,0.1,0.1,0.2v0.1c0,0,0,0.1,0.1,0.1v0.1c0,0,0,0.1,0.1,0.1v0.1c0,0,0,0.1,0.1,0.1c0,0,0,0.1,0.1,0.1c0,0,0,0.1,0.1,0.1
	c0,0,0,0.1,0.1,0.1c0,0,0,0.1,0.1,0.1c0,0,0,0.1,0.1,0.1l0.1,0.1c0,0,0,0.1,0.1,0.1l0.1,0.1c0,0,0,0,0.1,0.1s0.1,0.1,0.2,0.2
	c0,0,0,0,0.1,0.1l0.1,0.1c0,0,0,0,0.1,0.1l0.1,0.1c0,0,0.1,0,0.1,0.1l0.1,0.1c0,0,0.1,0,0.1,0.1c0,0,0.1,0,0.1,0.1
	c0,0,0.1,0,0.1,0.1c0,0,0.1,0,0.1,0.1c0,0,0.1,0,0.1,0.1c0,0,0.1,0,0.1,0.1c0,0,0.1,0,0.1,0.1c0,0,0.1,0,0.1,0.1h0.1
	c0.1,0,0.1,0.1,0.2,0.1c0,0,0,0,0.1,0c0,0,0.1,0,0.1,0.1h0.1h0.1h0.1h0.1h0.1h0.1h0.1H18h0.1h0.1h0.1c0.1,0,0.1,0,0.2,0h0.1
	c0.1,0,0.2,0,0.2,0l0,0l0,0c0.1,0,0.2,0,0.2,0h0.1c0.1,0,0.1,0,0.2,0h0.1c0,0,0.1,0,0.2,0h0.1h0.1h0.1H20h0.1h0.1h0.1
	c0.1,0,0.1,0,0.2-0.1c0,0,0,0,0.1,0s0.1-0.1,0.2-0.1l0,0c0.1,0,0.1-0.1,0.2-0.1c0,0,0,0,0.1,0s0.1-0.1,0.2-0.1c0,0,0,0,0.1,0
	c0,0,0.1,0,0.1-0.1h0.1l0.1-0.1c0,0,0,0,0.1-0.1l0.1-0.1c0,0,0,0,0.1-0.1l0.1-0.1c0,0,0,0,0.1-0.1l0.1-0.1c0,0,0,0,0.1-0.1l0.1-0.1
	l0,0c0.1-0.1,0.1-0.1,0.2-0.2l0,0l0.1-0.1c0,0,0,0,0.1-0.1l0.1-0.1c0,0,0-0.1,0.1-0.1l0.1-0.1c0,0,0-0.1,0.1-0.1c0,0,0-0.1,0.1-0.1
	v-0.1c0,0,0-0.1,0.1-0.1v-0.1c0,0,0-0.1,0.1-0.1v-0.1c0,0,0-0.1,0.1-0.2c0,0,0,0,0-0.1s0.1-0.1,0.1-0.2l0,0c0-0.1,0-0.1,0.1-0.2
	v-0.1v-0.1v-0.1v-0.1v-0.1V51h2.6C25.8,54.4,22.6,57.4,18.7,57.4z M15.6,50.6h6.3c0,0,0,0,0,0.1v0.1c0,0.1,0,0.1-0.1,0.2v0.1
	c0,0.1-0.1,0.1-0.1,0.2v0.1c0,0.1-0.1,0.1-0.1,0.2l0,0c-0.1,0.1-0.1,0.2-0.2,0.2c0,0,0,0-0.1,0.1c0,0.1-0.1,0.1-0.1,0.1l-0.1,0.1
	L21,52.2c0,0-0.1,0-0.1,0.1c0,0-0.1,0.1-0.2,0.1c0,0-0.1,0-0.1,0.1c-0.1,0-0.1,0.1-0.2,0.1l0,0c-0.1,0-0.2,0.1-0.3,0.1H20
	c-0.1,0-0.1,0-0.2,0.1h-0.1c-0.1,0-0.1,0-0.2,0h-0.1c-0.1,0-0.1,0-0.2,0h-0.1c-0.1,0-0.2,0-0.3,0l0,0c-0.1,0-0.2,0-0.3,0h-0.1
	c-0.1,0-0.1,0-0.2,0h-0.1c-0.1,0-0.1,0-0.2-0.1h-0.1c-0.1,0-0.1,0-0.2-0.1h-0.1c-0.1,0-0.2-0.1-0.3-0.1c-0.1,0-0.2-0.1-0.3-0.2
	c0,0,0,0-0.1,0s-0.1-0.1-0.2-0.1c0,0-0.1,0-0.1-0.1c-0.1,0-0.1-0.1-0.1-0.1s0,0-0.1-0.1s-0.1-0.1-0.1-0.2c0,0,0,0,0-0.1
	c-0.1-0.1-0.1-0.2-0.2-0.2l0,0c-0.1-0.1-0.1-0.2-0.1-0.2v-0.1c0-0.1-0.1-0.1-0.1-0.2v-0.1C15.8,50.7,15.8,50.7,15.6,50.6
	C15.6,50.7,15.6,50.7,15.6,50.6C15.6,50.7,15.6,50.6,15.6,50.6z M79,55.2c-1.4,1.4-3.3,2.2-5.4,2.2l0,0l0,0c-3.9,0-7.1-2.9-7.6-6.7
	h2.6v0.1v0.1c0,0.1,0,0.1,0,0.2v0.1c0,0.1,0,0.1,0,0.2c0,0,0,0,0,0.1s0,0.1,0.1,0.2l0,0c0,0.1,0.1,0.1,0.1,0.2l0,0
	c0,0.1,0.1,0.1,0.1,0.2c0,0,0,0,0,0.1c0,0,0,0.1,0.1,0.1v0.1c0,0,0,0.1,0.1,0.1v0.1l0.1,0.1c0,0,0,0.1,0.1,0.1l0.1,0.1
	c0,0,0,0,0.1,0.1l0.1,0.1c0,0,0,0,0.1,0.1l0.1,0.1l0,0c0.1,0.1,0.1,0.1,0.2,0.2l0,0l0.1,0.1c0,0,0,0,0.1,0.1l0.1,0.1
	c0,0,0,0,0.1,0.1l0.1,0.1c0,0,0.1,0,0.1,0.1l0.1,0.1c0,0,0.1,0,0.1,0.1c0,0,0.1,0,0.1,0.1c0,0,0.1,0,0.1,0.1c0,0,0.1,0,0.1,0.1h0.1
	c0,0,0.1,0,0.1,0.1c0,0,0,0,0.1,0s0.1,0.1,0.2,0.1c0,0,0,0,0.1,0s0.1,0,0.2,0.1H72h0.1h0.1h0.1h0.1h0.1h0.1h0.1h0.1h0.1H73
	c0.1,0,0.1,0,0.2,0h0.1c0.1,0,0.2,0,0.2,0l0,0l0,0c0.1,0,0.2,0,0.2,0h0.1c0.1,0,0.1,0,0.2,0h0.1c0.1,0,0.1,0,0.1,0h0.1h0.1h0.1h0.1
	h0.1h0.1h0.1c0,0,0.1,0,0.1-0.1h0.1c0.1,0,0.1-0.1,0.2-0.1l0,0c0.1,0,0.1-0.1,0.2-0.1c0,0,0,0,0.1,0s0.1-0.1,0.2-0.1c0,0,0,0,0.1,0
	c0,0,0.1,0,0.1-0.1h0.1l0.1-0.1c0,0,0.1,0,0.1-0.1l0.1-0.1c0,0,0.1,0,0.1-0.1l0.1-0.1c0,0,0,0,0.1-0.1l0.1-0.1c0,0,0,0,0.1-0.1
	l0.1-0.1l0,0c0.1-0.1,0.1-0.1,0.2-0.2l0,0l0.1-0.1c0,0,0,0,0.1-0.1l0.1-0.1c0,0,0-0.1,0.1-0.1l0.1-0.1c0,0,0-0.1,0.1-0.1
	c0,0,0-0.1,0.1-0.1c0,0,0-0.1,0.1-0.1c0,0,0-0.1,0.1-0.1v-0.1c0,0,0-0.1,0.1-0.1v-0.1c0,0,0-0.1,0.1-0.1v-0.1c0-0.1,0.1-0.1,0.1-0.2
	v-0.1v-0.1v-0.1v-0.1v-0.1v-0.1V51c0,0,0,0,0-0.1H80h1C80.9,52.3,80.2,53.9,79,55.2z M70.4,50.6h1.8h4.5l0,0v0.1
	c0,0.1,0,0.1-0.1,0.2V51c0,0.1-0.1,0.1-0.1,0.2v0.1c0,0.1-0.1,0.2-0.1,0.2l0,0c-0.1,0.1-0.1,0.2-0.2,0.2c0,0,0,0-0.1,0.1
	c0,0.1-0.1,0.1-0.1,0.2c0,0,0,0-0.1,0.1l-0.1,0.1c0,0-0.1,0-0.1,0.1c-0.1,0-0.1,0.1-0.2,0.1c0,0-0.1,0-0.1,0.1
	c-0.1,0.1-0.2,0.1-0.2,0.1l0,0c-0.1,0-0.2,0.1-0.3,0.1h-0.1c-0.1,0-0.1,0.1-0.2,0.1h-0.1c-0.1,0-0.1,0-0.2,0h-0.1
	c-0.1,0-0.1,0-0.2,0h-0.1c-0.1,0-0.2,0-0.3,0s-0.2,0-0.3,0h-0.1c-0.1,0-0.1,0-0.2,0h-0.1c-0.1,0-0.1,0-0.2-0.1h-0.1
	c-0.1,0-0.1,0-0.2-0.1h-0.1c-0.2-0.1-0.4-0.2-0.5-0.3c0,0,0,0-0.1,0s-0.1-0.1-0.2-0.1c0,0-0.1,0-0.1-0.1c-0.1,0-0.1-0.1-0.1-0.1
	s0,0-0.1-0.1s-0.1-0.1-0.1-0.2c0,0,0,0-0.1-0.1s-0.1-0.2-0.2-0.2l0,0c0-0.1-0.1-0.1-0.1-0.2v-0.1c0-0.1-0.1-0.1-0.1-0.2v-0.1
	c0-0.1,0-0.1-0.1-0.2C70.5,50.8,70.5,50.7,70.4,50.6C70.4,50.7,70.4,50.7,70.4,50.6z M88.2,48.9h-6.1l0,0h-1.6h-10h-1.1h-2.8H27.2
	l0,0H27H1.8V35.1h56.3l0,0c0.5,0,0.9-0.4,0.9-0.9V15.6h21.4l7.8,15.7L88.2,48.9z"/>
</svg>
