<?xml version="1.0" encoding="utf-8"?>
<!-- Generator: Adobe Illustrator 21.1.0, SVG Export Plug-In . SVG Version: 6.00 Build 0)  -->
<svg version="1.1" id="Слой_1" xmlns="http://www.w3.org/2000/svg" xmlns:xlink="http://www.w3.org/1999/xlink" x="0px" y="0px"
	 viewBox="0 0 53.1 29.2" style="enable-background:new 0 0 53.1 29.2;" xml:space="preserve">
<g>
	<path d="M52,3.5c-0.1-0.7-0.7-1.3-1.5-1.3H17.1L16.6,0l-2.9,0.7l0.6,2.7L0.2,24.1c-0.3,0.4-0.3,1-0.1,1.5c0.2,0.5,0.7,0.8,1.3,0.8
		l16.2,0.7c0.6,1.3,1.9,2.1,3.3,2.1c2,0,3.7-1.6,3.7-3.7l27.6-15.1c0.6-0.3,0.9-0.9,0.8-1.5L52,3.5z M17.1,24.1l-12-0.5
		c-0.4,0-0.6-0.5-0.4-0.8l9.9-14.5c0.2-0.4,0.8-0.3,0.9,0.2l3.2,13.7c0,0.2,0,0.4-0.2,0.5c-0.4,0.3-0.7,0.7-0.9,1.1
		C17.5,24,17.3,24.1,17.1,24.1z M20.8,27.1c-0.9,0-1.5-0.7-1.5-1.5c0-0.9,0.7-1.5,1.5-1.5c0.9,0,1.5,0.7,1.5,1.5
		C22.4,26.4,21.7,27.1,20.8,27.1z M23,22.6c-0.3-0.2-0.7-0.4-1-0.5c-0.2-0.1-0.3-0.2-0.3-0.4L18,5.8c-0.1-0.3,0.2-0.6,0.5-0.6h29.2
		c1,0,1.8,0.7,2,1.7l0,0c0.1,0.8-0.3,1.6-1,2l-25,13.7C23.4,22.8,23.2,22.8,23,22.6z"/>
</g>
</svg>
