<?xml version="1.0" encoding="utf-8"?>
<!-- Generator: Adobe Illustrator 21.1.0, SVG Export Plug-In . SVG Version: 6.00 Build 0)  -->
<svg version="1.1"
	 id="Слой_1" xmlns:cc="http://creativecommons.org/ns#" xmlns:dc="http://purl.org/dc/elements/1.1/" xmlns:inkscape="http://www.inkscape.org/namespaces/inkscape" xmlns:rdf="http://www.w3.org/1999/02/22-rdf-syntax-ns#" xmlns:sodipodi="http://sodipodi.sourceforge.net/DTD/sodipodi-0.dtd" xmlns:svg="http://www.w3.org/2000/svg"
	 xmlns="http://www.w3.org/2000/svg" xmlns:xlink="http://www.w3.org/1999/xlink" x="0px" y="0px" viewBox="0 0 72.1 66.8"
	 style="enable-background:new 0 0 72.1 66.8;" xml:space="preserve">
<g transform="translate(0,-952.36218)">
	<path d="M18.8,952.6c-4.8,0-9.7,2-13.3,5.9c-7.3,7.8-7.3,20.3,0,28.2l29.1,31.3c0.8,0.8,2,0.8,2.8,0.1l0.1-0.1
		c9.7-10.4,19.4-20.8,29.1-31.2c7.3-7.8,7.3-20.4,0-28.2s-19.3-7.8-26.6,0l-3.9,4.2l-3.9-4.2C28.5,954.6,23.6,952.6,18.8,952.6z
		 M18.8,956.5c3.7,0,7.5,1.6,10.4,4.7l5.4,5.8c0.8,0.8,2,0.8,2.8,0.1l0.1-0.1l5.4-5.7c5.8-6.3,14.9-6.3,20.8,0s5.8,16.5,0,22.7
		c-9.2,9.9-18.4,19.8-27.6,29.7L8.4,983.9c-5.8-6.3-5.8-16.5,0-22.7C11.3,958.1,15.1,956.5,18.8,956.5L18.8,956.5z"/>
</g>
</svg>
