<?xml version="1.0" encoding="utf-8"?>
<!-- Generator: Adobe Illustrator 21.1.0, SVG Export Plug-In . SVG Version: 6.00 Build 0)  -->
<svg version="1.1" id="Слой_2" xmlns="http://www.w3.org/2000/svg" xmlns:xlink="http://www.w3.org/1999/xlink" x="0px" y="0px"
	 viewBox="0 0 67 69" style="enable-background:new 0 0 67 69;" xml:space="preserve">
<rect x="0" width="16" height="17"/>
<rect x="0" y="27" width="16" height="16"/>
<rect x="0" y="53" width="16" height="16"/>
<path d="M65,4H26c-1.1,0-2-0.9-2-2v0c0-1.1,0.9-2,2-2h39c1.1,0,2,0.9,2,2v0C67,3.1,66.1,4,65,4z"/>
<path d="M65,15H26c-1.1,0-2-0.9-2-2v0c0-1.1,0.9-2,2-2h39c1.1,0,2,0.9,2,2v0C67,14.1,66.1,15,65,15z"/>
<path d="M65,26H26c-1.1,0-2-0.9-2-2v0c0-1.1,0.9-2,2-2h39c1.1,0,2,0.9,2,2v0C67,25.1,66.1,26,65,26z"/>
<path d="M65,37H26c-1.1,0-2-0.9-2-2v0c0-1.1,0.9-2,2-2h39c1.1,0,2,0.9,2,2v0C67,36.1,66.1,37,65,37z"/>
<path d="M65,48H26c-1.1,0-2-0.9-2-2v0c0-1.1,0.9-2,2-2h39c1.1,0,2,0.9,2,2v0C67,47.1,66.1,48,65,48z"/>
<path d="M65,59H26c-1.1,0-2-0.9-2-2v0c0-1.1,0.9-2,2-2h39c1.1,0,2,0.9,2,2v0C67,58.1,66.1,59,65,59z"/>
<path d="M65,69H26c-1.1,0-2-0.9-2-2l0,0c0-1.1,0.9-2,2-2h39c1.1,0,2,0.9,2,2l0,0C67,68.1,66.1,69,65,69z"/>
</svg>
