<?xml version="1.0" encoding="utf-8"?>
<!-- Generator: Adobe Illustrator 21.1.0, SVG Export Plug-In . SVG Version: 6.00 Build 0)  -->
<svg version="1.1" id="Слой_1" xmlns="http://www.w3.org/2000/svg" xmlns:xlink="http://www.w3.org/1999/xlink" x="0px" y="0px"
	 viewBox="0 0 70 69.6" style="enable-background:new 0 0 70 69.6;" xml:space="preserve">
<style type="text/css">
	.st0{display:none;}
	.st1{fill:none;stroke:#000000;stroke-width:3;stroke-linecap:round;stroke-miterlimit:10;}
	.st2{fill:none;stroke:#000000;stroke-width:2.5;stroke-linecap:round;stroke-miterlimit:10;}
	.st3{fill:none;stroke:#000000;stroke-width:2;stroke-linecap:round;stroke-miterlimit:10;}
</style>
<g id="Слой_1_1_" class="st0">
	
		<image style="display:inline;overflow:visible;enable-background:new    ;" width="233" height="233" xlink:href="29DC1999.jpg"  transform="matrix(0.3006 0 0 0.3006 -2.1875 -19.25)">
	</image>
</g>
<g id="Слой_2">
	<path class="st1" d="M33.9,42.1H4.6c-1.7,0-3-1.3-3-3V4.8c0-1.7,1.3-3,3-3h61c1.7,0,3,1.3,3,3v28.8"/>
</g>
<g id="Слой_3">
</g>
<g id="Слой_4">
	<path class="st1" d="M61.4,28.2V15.5c-0.4,0.1-0.9,0.2-1.3,0.2c-3.2,0-5.8-2.6-5.8-5.8c0-0.3,0-0.6,0.1-0.8H15.5
		c0,0.3,0.1,0.5,0.1,0.8c0,3.2-2.6,5.8-5.8,5.8c-0.3,0-0.7,0-1-0.1v14c0.3-0.1,0.7-0.1,1-0.1c3.2,0,5.8,2.6,5.8,5.8l0,0h17.7"/>
	<path class="st2" d="M61.4,28.2"/>
	<path class="st2" d="M33.2,35.3"/>
</g>
<g id="Слой_5">
	<circle class="st2" cx="35.3" cy="21.9" r="7.2"/>
</g>
<g id="Слой_6">
	<path class="st3" d="M53.7,36.2c0,2.2-3.2,4-7.2,4s-7.2-1.8-7.2-4"/>
	<path class="st3" d="M53.7,43.5c0,2.2-3.2,4-7.2,4s-7.2-1.8-7.2-4"/>
	<path class="st3" d="M53.7,51.1c0,2.2-3.2,4-7.2,4s-7.2-1.8-7.2-4"/>
	<path class="st3" d="M39.3,36.2c0-2.2,3.2-4,7.2-4s7.2,1.8,7.2,4"/>
	<path class="st3" d="M68.1,42.9c0,2.2-3.1,4-7.1,4s-7.3-1.8-7.3-4"/>
	<path class="st3" d="M68.1,50.2c0,2.2-3.1,4-7.1,4s-7.3-1.8-7.3-4"/>
	<path class="st3" d="M68.1,57.8c0,2.2-3.1,4-7.1,4s-7.3-1.8-7.3-4"/>
	<path class="st3" d="M53.7,42.9c0-2.2,3.2-4,7.2-4s7.2,1.8,7.2,4"/>
</g>
<g id="Слой_7">
	<path class="st3" d="M39.3,36.7V59c0,0,7.8,6.6,14.4,0V36.7"/>
	<path class="st3" d="M53.7,43.8v21.9c0,0,7.8,6.6,14.4,0V43.3"/>
</g>
</svg>
