<?xml version="1.0" encoding="utf-8"?>
<!-- Generator: Adobe Illustrator 21.1.0, SVG Export Plug-In . SVG Version: 6.00 Build 0)  -->
<svg version="1.1" id="Слой_1" xmlns="http://www.w3.org/2000/svg" xmlns:xlink="http://www.w3.org/1999/xlink" x="0px" y="0px"
	 viewBox="0 0 44 44" style="enable-background:new 0 0 44 44;" xml:space="preserve">
<g>
	<path d="M22,44C9.9,44,0,34.1,0,22S9.9,0,22,0s22,9.9,22,22S34.1,44,22,44z M22,2C11,2,2,11,2,22s9,20,20,20s20-9,20-20S33,2,22,2z
		"/>
</g>
<g>
	<path d="M19,31c-0.3,0-0.5-0.1-0.7-0.3c-0.4-0.4-0.4-1,0-1.4l7.3-7.3l-7.3-7.3c-0.4-0.4-0.4-1,0-1.4s1-0.4,1.4,0l8,8
		c0.4,0.4,0.4,1,0,1.4l-8,8C19.5,30.9,19.3,31,19,31z"/>
</g>
</svg>
