<?xml version="1.0" encoding="utf-8"?>
<!-- Generator: Adobe Illustrator 21.1.0, SVG Export Plug-In . SVG Version: 6.00 Build 0)  -->
<svg version="1.1" id="Слой_1" xmlns="http://www.w3.org/2000/svg" xmlns:xlink="http://www.w3.org/1999/xlink" x="0px" y="0px"
	 viewBox="0 0 60 52" style="enable-background:new 0 0 60 52;" xml:space="preserve">
<title>16 -Office Goods- (Outline)</title>
<desc>Created with Sketch.</desc>
<g>
	<g transform="translate(-664.000000, -498.000000)">
		<g transform="translate(664.000000, 498.000000)">
			<path d="M2.5,24h33.8l3.2-8H5.7L2.5,24z M37,26H1c-0.3,0-0.6-0.2-0.8-0.4c-0.2-0.3-0.2-0.7-0.1-1l4-10C4.2,14.2,4.6,14,5,14h36
				c0.3,0,0.6,0.2,0.8,0.4c0.2,0.3,0.2,0.6,0.1,0.9l-4,10C37.8,25.8,37.4,26,37,26L37,26z"/>
			<path d="M47.7,26h9.9l-3.3-10h-9.9L47.7,26z M59,28H47c-0.4,0-0.8-0.3-0.9-0.7l-4-12C42,15,42,14.7,42.2,14.4S42.7,14,43,14h12
				c0.4,0,0.8,0.3,0.9,0.7l4,12c0.1,0.3,0,0.6-0.1,0.9C59.6,27.8,59.3,28,59,28L59,28z"/>
			<path d="M33,14h18V8H33V14z M52,16H32c-0.6,0-1-0.4-1-1V7c0-0.6,0.4-1,1-1h20c0.6,0,1,0.4,1,1v8C53,15.6,52.6,16,52,16L52,16z"/>
			<path d="M9,14h14V8H9V14z M24,16H8c-0.6,0-1-0.4-1-1V7c0-0.6,0.4-1,1-1h16c0.6,0,1,0.4,1,1v8C25,15.6,24.6,16,24,16L24,16z"/>
			<path d="M6,50h34V20.2l-2.1,5.2C37.8,25.8,37.4,26,37,26H6V50z M41,52H5c-0.6,0-1-0.4-1-1V25c0-0.6,0.4-1,1-1h31.3l3.7-9.4
				c0.2-0.4,0.7-0.7,1.1-0.6c0.5,0.1,0.8,0.5,0.8,1v36C42,51.6,41.6,52,41,52L41,52z"/>
			<path d="M42,50h12V28h-7c-0.4,0-0.8-0.3-0.9-0.7L42.3,16H42V50z M55,52H41c-0.6,0-1-0.4-1-1V15c0-0.6,0.4-1,1-1h2
				c0.4,0,0.8,0.3,0.9,0.7L47.7,26H55c0.6,0,1,0.4,1,1v24C56,51.6,55.6,52,55,52L55,52z"/>
			<path d="M39,8c-0.6,0-1-0.4-1-1V2H20v5c0,0.6-0.4,1-1,1s-1-0.4-1-1V1c0-0.6,0.4-1,1-1h20c0.6,0,1,0.4,1,1v6C40,7.6,39.6,8,39,8"
				/>
			<path d="M14,44h18V34H14V44z M33,46H13c-0.6,0-1-0.4-1-1V33c0-0.6,0.4-1,1-1h20c0.6,0,1,0.4,1,1v12C34,45.6,33.6,46,33,46L33,46z
				"/>
			<path d="M20,38h-2c-0.6,0-1-0.4-1-1s0.4-1,1-1h2c0.6,0,1,0.4,1,1S20.6,38,20,38"/>
			<path d="M28,42h-2c-0.6,0-1-0.4-1-1s0.4-1,1-1h2c0.6,0,1,0.4,1,1S28.6,42,28,42"/>
			<path d="M28,38h-4c-0.6,0-1-0.4-1-1s0.4-1,1-1h4c0.6,0,1,0.4,1,1S28.6,38,28,38"/>
			<path d="M23,42h-5c-0.6,0-1-0.4-1-1s0.4-1,1-1h5c0.6,0,1,0.4,1,1S23.6,42,23,42"/>
		</g>
	</g>
</g>
</svg>
