<?xml version="1.0" encoding="utf-8"?>
<!-- Generator: Adobe Illustrator 21.1.0, SVG Export Plug-In . SVG Version: 6.00 Build 0)  -->
<svg version="1.1" id="Слой_1" xmlns="http://www.w3.org/2000/svg" xmlns:xlink="http://www.w3.org/1999/xlink" x="0px" y="0px"
	 viewBox="0 0 66 66" style="enable-background:new 0 0 66 66;" xml:space="preserve">
<style type="text/css">
	.st0{fill:#010101;}
</style>
<g>
	<g>
			<path class="st0" d="M35.2,39.7h-26c-0.6,0-1-0.4-1-1s0.4-1,1-1h25.9c0.6,0,1,0.4,1,1C36.2,39.3,35.7,39.7,35.2,39.7z"/>
	</g>
	<g>
		<g>
				<path class="st0" d="M18.2,28.1c-4.8,0-9.1-4.5-9.1-9.6c0-4.9,4.1-9,9.1-9s9.1,4,9.1,9C27.3,23.5,23,28.1,18.2,28.1z M18.2,11.4
					c-3.9,0-7.1,3.1-7.1,7c0,4,3.4,7.6,7.1,7.6s7.1-3.6,7.1-7.6C25.3,14.6,22.1,11.4,18.2,11.4z"/>
		</g>
		<g>
			<g>
				<g>
						<path class="st0" d="M29.3,16.5C28.4,11.1,23.7,7,18.2,7S7.9,11.1,7.1,16.5l-2-0.3C6.1,9.8,11.7,5,18.1,5
							c6.5,0,12.1,4.8,13,11.2L29.3,16.5z"/>
				</g>
				<g>
						<path class="st0" d="M7.5,21H6.2c-1.5,0-2.7-1.2-2.7-2.7v-0.2c0-1.5,1.2-2.7,2.7-2.7h1.3c0.6,0,1,0.4,1,1V20
							C8.5,20.6,8.1,21,7.5,21z M6.2,17.4c-0.4,0-0.7,0.3-0.7,0.7v0.2c0,0.4,0.3,0.7,0.7,0.7h0.3v-1.6C6.5,17.4,6.2,17.4,6.2,17.4z"
							/>
				</g>
				<g>
						<path class="st0" d="M30.1,21h-1.3c-0.6,0-1-0.4-1-1v-3.6c0-0.6,0.4-1,1-1h1.3c1.5,0,2.7,1.2,2.7,2.7v0.2
							C32.9,19.8,31.7,21,30.1,21z M29.9,19h0.3c0.4,0,0.7-0.3,0.7-0.7v-0.2c0-0.4-0.3-0.7-0.7-0.7h-0.3V19z"/>
				</g>
			</g>
			<g>
					<path class="st0" d="M23.9,26c-1.9,0-3.6-0.7-4.9-2l1.4-1.5c2.1,2,4.7,1.4,5.7,1c1.9-0.7,3.2-2.2,3.4-3.6l2,0.2
						c-0.2,2.2-2,4.3-4.6,5.3C25.7,25.8,24.8,26,23.9,26z"/>
			</g>
		</g>
		<g>
				<path class="st0" d="M30.2,39.7c-0.6,0-1-0.4-1-1v-0.2c0-4.6-3.8-8.4-8.4-8.4h-5.3c-4.6,0-8.4,3.8-8.4,8.4v0.2c0,0.6-0.4,1-1,1
					s-1-0.4-1-1v-0.2c0-5.7,4.7-10.4,10.4-10.4h5.3c5.7,0,10.4,4.7,10.4,10.4v0.2C31.2,39.2,30.8,39.7,30.2,39.7z"/>
		</g>
		<g>
				<path class="st0" d="M18.9,25.1c-0.2,0-0.5-0.1-0.7-0.3c-0.4-0.4-0.4-1-0.1-1.4l1.5-1.7c0.4-0.4,1-0.4,1.4-0.1
					c0.4,0.4,0.4,1,0.1,1.4l-1.5,1.7C19.4,25,19.2,25.1,18.9,25.1z"/>
		</g>
	</g>
	<g>
		<g>
				<path class="st0" d="M62.7,50.3H3.3C1.5,50.3,0,48.8,0,47V3.3C0,1.5,1.5,0,3.3,0h59.5C64.5,0,66,1.5,66,3.3V47
					C66,48.8,64.5,50.3,62.7,50.3z M3.3,2C2.6,2,2,2.6,2,3.3V47c0,0.7,0.6,1.3,1.3,1.3h59.5c0.7,0,1.3-0.6,1.3-1.3V3.3
					C64,2.6,63.4,2,62.7,2H3.3z"/>
		</g>
		<g>
				<path class="st0" d="M65,39.7H1c-0.6,0-1-0.4-1-1s0.4-1,1-1h64c0.6,0,1,0.4,1,1S65.6,39.7,65,39.7z"/>
		</g>
		<g>
				<path class="st0" d="M33,47.2c-1.8,0-3.3-1.5-3.3-3.3s1.5-3.3,3.3-3.3s3.3,1.5,3.3,3.3S34.8,47.2,33,47.2z M33,42.6
					c-0.7,0-1.3,0.6-1.3,1.3s0.6,1.3,1.3,1.3s1.3-0.6,1.3-1.3C34.3,43.2,33.7,42.6,33,42.6z"/>
		</g>
		<g>
			<g>
					<path class="st0" d="M43.8,59.1L43.8,59.1H22.2c-0.3,0-0.7-0.2-0.8-0.5c-0.2-0.3-0.2-0.7-0.1-1l4.2-8.8
						c0.2-0.3,0.5-0.6,0.9-0.6h13.3c0.4,0,0.7,0.2,0.9,0.6l4.1,8.6c0.1,0.2,0.2,0.4,0.2,0.6C44.8,58.7,44.4,59.1,43.8,59.1z
						 M23.8,57.1h18.5L39,50.3H27L23.8,57.1z"/>
			</g>
			<g>
					<path class="st0" d="M47.8,66H18.3c-0.6,0-1-0.4-1-1v-6.9c0-0.6,0.4-1,1-1h29.5c0.6,0,1,0.4,1,1V65C48.8,65.6,48.3,66,47.8,66z
						 M19.3,64h27.5v-4.9H19.3V64z"/>
			</g>
		</g>
	</g>
	<g>
		<g>
				<path class="st0" d="M60.2,35.8H35.7c-0.6,0-1-0.4-1-1V5.3c0-0.6,0.4-1,1-1h16.6c0.3,0,0.5,0.1,0.7,0.3l7.8,8.3
					c0.2,0.2,0.3,0.4,0.3,0.7l0,0v21.2C61.2,35.3,60.8,35.8,60.2,35.8z M36.7,33.8h22.5V14l-7.3-7.7H36.7V33.8z"/>
		</g>
		<g>
				<path class="st0" d="M60.2,14.6L60.2,14.6h-7.9c-0.6,0-1-0.4-1-1V5.3c0-0.4,0.3-0.8,0.6-0.9c0.4-0.2,0.8-0.1,1.1,0.2l7.8,8.2
					c0.2,0.2,0.4,0.5,0.4,0.8C61.2,14.2,60.8,14.6,60.2,14.6z M53.4,12.6h4.5l-4.5-4.8V12.6z"/>
		</g>
	</g>
	<g>
			<path class="st0" d="M56.1,19.8H39.8c-0.6,0-1-0.4-1-1s0.4-1,1-1h16.3c0.6,0,1,0.4,1,1C57.1,19.3,56.7,19.8,56.1,19.8z"/>
	</g>
	<g>
			<path class="st0" d="M56.1,25.4H39.8c-0.6,0-1-0.4-1-1s0.4-1,1-1h16.3c0.6,0,1,0.4,1,1S56.7,25.4,56.1,25.4z"/>
	</g>
	<g>
			<path class="st0" d="M56.1,31.1H39.8c-0.6,0-1-0.4-1-1s0.4-1,1-1h16.3c0.6,0,1,0.4,1,1S56.7,31.1,56.1,31.1z"/>
	</g>
	<g>
			<path class="st0" d="M48.6,14.6h-8.8c-0.6,0-1-0.4-1-1V8.8c0-0.6,0.4-1,1-1h8.8c0.6,0,1,0.4,1,1v4.8
				C49.6,14.2,49.1,14.6,48.6,14.6z M40.8,12.6h6.8V9.8h-6.8V12.6z"/>
	</g>
</g>
</svg>
