<?xml version="1.0" encoding="utf-8"?>
<!-- Generator: Adobe Illustrator 21.1.0, SVG Export Plug-In . SVG Version: 6.00 Build 0)  -->
<svg version="1.1" id="Слой_1" xmlns="http://www.w3.org/2000/svg" xmlns:xlink="http://www.w3.org/1999/xlink" x="0px" y="0px"
	 viewBox="0 0 32 32" style="enable-background:new 0 0 32 32;" xml:space="preserve">
<title>37-Option</title>
<g>
	<path d="M17,4.1V0h-2v4.1c-2.7,0.5-4.5,3.2-3.9,5.9c0.4,2,1.9,3.5,3.9,3.9V32h2V13.9c2.7-0.5,4.5-3.2,3.9-5.9C20.5,6,19,4.5,17,4.1
		z M16,12c-1.7,0-3-1.3-3-3s1.3-3,3-3s3,1.3,3,3S17.7,12,16,12z"/>
	<path d="M6,15.1V0H4v15.1c-2.7,0.5-4.5,3.2-3.9,5.9C0.5,23,2,24.5,4,24.9V32h2v-7.1c2.7-0.5,4.5-3.2,3.9-5.9C9.5,17,8,15.5,6,15.1z
		 M5,23c-1.7,0-3-1.3-3-3s1.3-3,3-3s3,1.3,3,3S6.7,23,5,23z"/>
	<path d="M28,18.1V0h-2v18.1c-2.7,0.5-4.5,3.2-3.9,5.9c0.4,2,1.9,3.5,3.9,3.9V32h2v-4.1c2.7-0.5,4.5-3.2,3.9-5.9
		C31.5,20,30,18.5,28,18.1z M27,26c-1.7,0-3-1.3-3-3s1.3-3,3-3s3,1.3,3,3S28.7,26,27,26z"/>
</g>
</svg>
