<?xml version="1.0" encoding="utf-8"?>
<!-- Generator: Adobe Illustrator 21.1.0, SVG Export Plug-In . SVG Version: 6.00 Build 0)  -->
<svg version="1.1"
	 id="Слой_1" xmlns:cc="http://creativecommons.org/ns#" xmlns:dc="http://purl.org/dc/elements/1.1/" xmlns:inkscape="http://www.inkscape.org/namespaces/inkscape" xmlns:rdf="http://www.w3.org/1999/02/22-rdf-syntax-ns#" xmlns:sodipodi="http://sodipodi.sourceforge.net/DTD/sodipodi-0.dtd" xmlns:svg="http://www.w3.org/2000/svg"
	 xmlns="http://www.w3.org/2000/svg" xmlns:xlink="http://www.w3.org/1999/xlink" x="0px" y="0px" viewBox="0 0 30 20"
	 style="enable-background:new 0 0 30 20;" xml:space="preserve">
<g transform="translate(0,-1020.3622)">
	<path d="M2,1020.4c-1.1,0-2,0.9-2,2v9.1c0,1.1,0.9,2,2,2h3v5.1c0,1.1,0.9,1.9,2,1.9h21c1.1,0,2-0.9,2-1.9v-9.1c0-1.1-0.9-2-2-2h-6
		v-5c0-1.1-0.9-2-2-2C20,1020.4,2,1020.4,2,1020.4z M2,1021.4h18c0.5,0,1,0.4,1,1v6H1v-6C1,1021.8,1.4,1021.4,2,1021.4z M3,1022.4v1
		h11v-1H3z M15,1022.4v1h2v-1H15z M18,1022.4v1h2v-1H18z M3,1024.4v3h3v-3H3z M22,1028.4h6c0.5,0,1,0.4,1,1v9.1c0,0.5-0.4,0.9-1,0.9
		H7c-0.5,0-1-0.4-1-0.9v-5.1h1v2.4c0,0.2,0.1,0.4,0.3,0.5c0.8,0.3,1.4,0.9,1.6,1.7c0.1,0.2,0.3,0.3,0.5,0.3h16.2
		c0.2,0,0.4-0.1,0.5-0.3c0.3-0.8,0.9-1.5,1.6-1.7c0.2-0.1,0.3-0.3,0.3-0.5v-3.9c0-0.2-0.1-0.4-0.3-0.5c-0.8-0.3-1.4-0.9-1.6-1.7
		c-0.1-0.2-0.3-0.3-0.5-0.3H22V1028.4L22,1028.4z M1,1030.4h20v1c0,0.5-0.4,1-1,1H2c-0.5,0-1-0.4-1-1V1030.4z M22,1030.4h3.3
		c0.4,0.8,0.9,1.4,1.7,1.8v3.4c-0.8,0.4-1.3,1-1.7,1.8h-5c0,0,0.1,0,0.1-0.1c1.4-1.2,1.9-3.2,1.3-4.9c0.2-0.3,0.3-0.6,0.3-1
		L22,1030.4L22,1030.4z M20.9,1033.1c0.3,1.2-0.2,2.5-1.2,3.4c-1.1,1-2.8,1.1-4.1,0.3c-1.2-0.7-1.9-2.1-1.7-3.5h6
		C20.4,1033.4,20.7,1033.3,20.9,1033.1L20.9,1033.1z M8,1033.4h5c-0.2,1.5,0.4,3,1.6,4h-5c-0.4-0.8-0.9-1.4-1.7-1.8
		C8,1035.6,8,1033.4,8,1033.4z"/>
</g>
</svg>
