<?xml version="1.0" encoding="utf-8"?>
<!-- Generator: Adobe Illustrator 21.1.0, SVG Export Plug-In . SVG Version: 6.00 Build 0)  -->
<svg version="1.1" id="Слой_1" xmlns="http://www.w3.org/2000/svg" xmlns:xlink="http://www.w3.org/1999/xlink" x="0px" y="0px"
	 viewBox="0 0 61.8 61.7" style="enable-background:new 0 0 61.8 61.7;" xml:space="preserve">
<path d="M61.3,58.4L45.9,42.9c8.8-10.2,8.3-25.6-1.4-35.3C39.4,2.5,32.8,0,26,0S12.8,2.5,7.6,7.6c-10.2,10.2-10.2,26.6,0,36.8
	C12.8,49.5,19.3,52,26,52c6,0,12.1-2.1,16.9-6.3l15.4,15.4c0.4,0.4,0.9,0.6,1.4,0.6s1-0.2,1.4-0.6C62,60.4,62,59.2,61.3,58.4z
	 M10.6,41.6C2,33,2,19.1,10.6,10.5c4.2-4.2,9.7-6.4,15.6-6.4s11.4,2.3,15.6,6.4c8.6,8.6,8.6,22.5,0,31.1c-4.2,4.2-9.7,6.4-15.6,6.4
	S14.7,45.7,10.6,41.6z"/>
</svg>
