<?xml version="1.0" encoding="utf-8"?>
<!-- Generator: Adobe Illustrator 21.1.0, SVG Export Plug-In . SVG Version: 6.00 Build 0)  -->
<svg version="1.1" id="Слой_1" xmlns="http://www.w3.org/2000/svg" xmlns:xlink="http://www.w3.org/1999/xlink" x="0px" y="0px"
	 viewBox="0 0 90 85.8" style="enable-background:new 0 0 90 85.8;" xml:space="preserve">
<path d="M89.9,32.6c-0.4-1.1-1.3-1.9-4-2.1L61,28.2c-1.5-0.1-2.3-0.7-2.9-2.1l-9.8-23C47.2,0.6,46.2,0,45,0s-2.2,0.6-3.3,3.1
	L31.8,26c-0.6,1.4-1.4,1.9-2.9,2.1L4.1,30.5c-2.7,0.3-3.6,1-4,2.1s-0.1,2.3,2,4.1l18.8,16.5c1.1,1,1.4,1.9,1.1,3.4L16.5,81
	c-0.6,2.7-0.2,3.8,0.8,4.5s2.1,0.8,4.5-0.6L43.2,72c1.3-0.8,2.3-0.8,3.5,0l21.5,12.7c2.4,1.4,3.5,1.3,4.5,0.6s1.4-1.8,0.8-4.5
	L68,56.5c-0.3-1.4,0-2.4,1.1-3.4l18.8-16.5C89.9,34.9,90.2,33.7,89.9,32.6z"/>
</svg>
