<?xml version="1.0" encoding="utf-8"?>
<!-- Generator: Adobe Illustrator 21.1.0, SVG Export Plug-In . SVG Version: 6.00 Build 0)  -->
<svg version="1.1" id="Слой_1" xmlns="http://www.w3.org/2000/svg" xmlns:xlink="http://www.w3.org/1999/xlink" x="0px" y="0px"
	 viewBox="0 0 81.4 82" style="enable-background:new 0 0 81.4 82;" xml:space="preserve">
<path d="M78,56.8c-0.8-1.2-2.8-3.4-4.4-5c-0.1-0.1-0.1-0.2-0.1-0.3c0-0.1,0-0.3,0.1-0.6c0,0,0-0.1,0-0.1c0,0,0-0.1,0-0.1l0.1-0.2
	c0.1-0.3,0.3-0.7,0.3-0.8c0-0.1,0.1-0.2,0.2-0.2c1.2-0.4,5.4-1.9,6.7-2.7c0.2-0.1,0.3-0.3,0.3-0.5c0-0.2-0.1-0.4-0.2-0.6
	c-0.9-0.8-3.7-2.5-5.9-3.7c-0.1-0.1-0.2-0.2-0.2-0.3c0-0.1,0-0.2-0.1-0.4c0,0,0-0.1,0-0.1c0,0,0-0.1,0-0.1c0-0.3,0.1-0.8,0.1-0.9
	c0-0.1,0.1-0.2,0.2-0.3c2.2-1.5,4.8-3.5,5.7-4.4c0.2-0.2,0.2-0.4,0.2-0.6c0-0.2-0.2-0.4-0.3-0.5c-1.1-0.5-4.2-1.3-6.7-1.9
	c-0.1,0-0.2-0.1-0.3-0.2c-0.1-0.1-0.1-0.3-0.3-0.7l0-0.2c-0.1-0.4-0.2-1-0.2-1.1c0-0.1,0-0.2,0.1-0.3c0.3-0.4,3.4-4.4,4.2-5.9
	c0.1-0.2,0.1-0.4,0-0.6c-0.1-0.2-0.3-0.3-0.5-0.4c-0.4-0.1-1.1-0.1-2-0.1c-1.9,0-4.2,0.2-4.9,0.2c-0.1,0-0.3,0-0.4-0.1
	c-0.1-0.1-0.1-0.2-0.3-0.3c0,0-0.1-0.2-0.1-0.2c-0.2-0.3-0.4-0.7-0.4-0.8c-0.1-0.1-0.1-0.2,0-0.3c0.2-0.5,2.1-5.1,2.4-6.8
	c0-0.2,0-0.4-0.2-0.6c-0.1-0.2-0.3-0.3-0.5-0.3c-1.6,0.2-5.5,1.6-6.7,2c-0.1,0-0.3,0-0.4,0c-0.1,0-0.2-0.1-0.4-0.3
	c0,0-0.1-0.1-0.2-0.1c-0.2-0.2-0.6-0.6-0.7-0.7c-0.1-0.1-0.1-0.2-0.1-0.3c0.1-0.9,0.5-5.6,0.4-7.2c0-0.4-0.6-0.8-1-0.6
	c-1.5,0.6-5.1,3.3-5.8,3.8C55.9,10,55.7,10,55.6,10c-0.1,0-0.2-0.1-0.5-0.2c-0.4-0.2-0.8-0.5-1-0.6C54,9.2,54,9.1,53.9,9
	c-0.1-0.6-1-5.4-1.7-7.1c-0.1-0.2-0.4-0.4-0.7-0.4c-0.1,0-0.3,0-0.4,0.1c-1,0.8-3,3.3-4.5,5.3C46.6,7,46.4,7,46.3,7
	c-0.1,0-0.2,0-0.3,0c-0.3-0.1-0.8-0.2-1-0.2c-0.1,0-0.2-0.1-0.3-0.2c-0.2-0.5-2.5-5-3.5-6.3c-0.2-0.3-0.9-0.3-1.1,0
	c-0.9,1.3-2.5,5.1-2.9,6.3c0,0.1-0.1,0.2-0.3,0.2c-0.1,0-0.3,0.1-0.7,0.2c0,0-0.1,0-0.1,0c-0.4,0-0.9,0-1.1,0c-0.1,0-0.3,0-0.4-0.1
	c-0.9-0.9-3.9-4.1-5.2-5c-0.1-0.1-0.3-0.1-0.4-0.1c-0.3,0-0.6,0.2-0.7,0.4c-0.4,1.2-0.8,4.3-1,6.9c0,0.1-0.1,0.2-0.2,0.3
	c-0.1,0.1-0.2,0.1-0.5,0.3l-0.2,0.1c-0.4,0.1-0.8,0.3-0.9,0.3c-0.1,0-0.2,0-0.3,0c-0.5-0.3-4.8-2.8-6.4-3.4C18.5,6.4,18,6.8,18,7.2
	c0,1.2,0.5,4.4,1,6.9c0,0.1,0,0.3-0.1,0.4c-0.1,0.1-0.1,0.2-0.3,0.3c-0.3,0.2-0.7,0.5-0.8,0.6c-0.1,0.1-0.2,0.1-0.3,0.1
	c-0.5-0.1-5.4-1.4-7.2-1.5c-0.2,0-0.4,0.1-0.5,0.3c-0.1,0.2-0.2,0.4-0.1,0.6c0.4,1.6,2.4,5.5,2.8,6.3c0.1,0.1,0.1,0.2,0,0.4
	c0,0.1-0.1,0.3-0.4,0.7l-0.1,0.2c-0.3,0.4-0.6,0.8-0.7,0.9c-0.1,0.1-0.2,0.1-0.3,0.1c-0.6,0-5.5,0.2-7.2,0.6c-0.2,0-0.4,0.2-0.5,0.4
	c-0.1,0.2-0.1,0.4,0,0.6c0.8,1.3,3.7,4.3,4.6,5.2c0.1,0.1,0.1,0.2,0.1,0.3c0,0.1,0,0.3-0.1,0.7c0,0,0,0.1,0,0.1
	c-0.1,0.4-0.4,0.9-0.4,1.1c0,0.1-0.1,0.2-0.2,0.2c-0.5,0.2-5.2,1.8-6.7,2.7C0.2,35.4,0,35.6,0,35.8c0,0.2,0.1,0.4,0.2,0.6
	c0.9,0.8,3.7,2.5,5.9,3.7c0.1,0.1,0.2,0.2,0.2,0.3c0,0.1,0,0.3,0.1,0.5c0,0,0,0.1,0,0.1c0,0.3-0.1,0.8-0.1,1c0,0.1-0.1,0.2-0.2,0.3
	c-1.7,1.2-4.7,3.4-5.7,4.4c-0.1,0.2-0.2,0.4-0.2,0.6c0,0.2,0.2,0.4,0.4,0.5c1.4,0.7,5.8,1.7,6.7,1.9c0.1,0,0.2,0.1,0.3,0.2
	c0.1,0.1,0.1,0.3,0.3,0.7c0,0,0,0.1,0,0.2c0.1,0.5,0.2,1,0.2,1.1c0,0.1,0,0.2-0.1,0.3c-1.6,2-3.6,4.8-4.2,5.9
	c-0.1,0.2-0.1,0.4,0,0.6C3.8,59,4,59.1,4.2,59.2c0.4,0.1,1.1,0.1,2,0.1c2,0,4.5-0.2,5-0.2c0.1,0,0.3,0,0.3,0.1
	c0.1,0.1,0.2,0.2,0.3,0.4c0.2,0.3,0.4,0.8,0.5,1c0,0.1,0.1,0.2,0,0.3c-0.3,0.9-2.1,5.2-2.4,6.8c0,0.2,0,0.4,0.2,0.6
	c0.1,0.2,0.3,0.3,0.5,0.3c1.6-0.2,5.5-1.6,6.7-2c0.1,0,0.3,0,0.4,0c0.1,0.1,0.2,0.1,0.4,0.3c0.3,0.3,0.7,0.7,0.8,0.8
	C19,67.8,19,67.9,19,68c-0.1,0.6-0.5,5.5-0.4,7.2c0,0.4,0.6,0.8,1,0.6c1.1-0.5,3.7-2.3,5.8-3.8c0.1-0.1,0.2-0.1,0.3-0.1
	c0.1,0,0.3,0.1,0.5,0.2c0.4,0.2,0.8,0.5,1,0.6c0.1,0.1,0.2,0.2,0.2,0.3c0.1,0.6,1,5.4,1.7,7.1c0.1,0.2,0.4,0.4,0.7,0.4
	c0.1,0,0.3,0,0.4-0.1c1-0.8,3-3.2,4.5-5.3c0.1-0.1,0.2-0.2,0.3-0.2c0.1,0,0.2,0,0.4,0l0.3,0.1c0.2,0.1,0.6,0.1,0.7,0.2
	c0.1,0,0.2,0.1,0.3,0.2c0.2,0.5,2.5,5,3.5,6.3c0.3,0.3,0.9,0.3,1.1,0c0.9-1.3,2.6-5.5,2.9-6.3c0-0.1,0.1-0.2,0.3-0.2
	c0.1,0,0.3-0.1,0.7-0.2c0,0,0.1,0,0.2,0c0.5,0,1,0,1.1,0c0.1,0,0.2,0,0.3,0.1c0.6,0.7,3.8,4.1,5.2,5.1c0.1,0.1,0.3,0.1,0.4,0.1
	c0.3,0,0.6-0.2,0.7-0.4c0.4-1.2,0.8-4.4,1-6.9c0-0.1,0.1-0.2,0.2-0.3c0.1-0.1,0.2-0.1,0.5-0.3c0.4-0.2,1-0.3,1.1-0.4
	c0.1,0,0.2,0,0.3,0c0.5,0.3,4.8,2.8,6.4,3.4c0.4,0.1,0.9-0.2,0.9-0.6c0-1.2-0.5-4.3-1-6.8c0-0.1,0-0.3,0.1-0.3
	c0.1-0.1,0.2-0.2,0.2-0.3l0.1-0.1l0.3-0.2c0.2-0.1,0.4-0.3,0.5-0.3c0.1-0.1,0.2-0.1,0.3-0.1c1.3,0.3,5.5,1.4,7.2,1.5
	c0.2,0,0.4-0.1,0.5-0.3c0.1-0.2,0.2-0.4,0.1-0.6c-0.3-1.2-1.7-4.2-2.8-6.3c-0.1-0.1-0.1-0.2,0-0.4c0-0.1,0.1-0.3,0.3-0.7l0.1-0.2
	c0.2-0.3,0.6-0.8,0.7-0.9c0.1-0.1,0.2-0.1,0.3-0.1c0.6,0,5.5-0.2,7.2-0.6c0.2,0,0.4-0.2,0.5-0.4c0,0,0-0.2,0-0.4
	C78.1,57.1,78,56.8,78,56.8z M15.4,58.5c0,0-0.1,0-0.1,0c0,0,0,0,0,0c-0.8,0-1.6-0.6-2.2-1.6c-0.6-1.1-0.7-2.3-0.2-2.8l0.2-0.2
	l13.2-9.3c0.1-0.1,0.3-0.1,0.4-0.1c0.1,0,0.2,0.2,0.3,0.3c0.6,2.3,1.9,4.4,3.5,6.1c0.1,0.1,0.1,0.2,0.1,0.4c0,0.1-0.1,0.2-0.2,0.3
	L15.4,58.5z M33.8,70.5c0,0.1-0.1,0.2-0.2,0.3c-0.1,0.1-0.2,0.1-0.3,0.1c0,0-0.1,0-0.1,0c-5.7-1.4-10.8-4.4-14.8-8.6
	c-0.1-0.1-0.1-0.2-0.1-0.4c0-0.1,0.1-0.2,0.2-0.3L34,54.6c0.1-0.1,0.3,0,0.4,0c0.1,0.1,0.2,0.2,0.2,0.4L33.8,70.5z M40.7,72.8
	c-1.4,0-3.7-0.3-3.7-1.4c0,0,0-0.1,0-0.1c0,0,0-0.1,0-0.1l0.8-15.7c0-0.1,0.1-0.2,0.2-0.3c0.1-0.1,0.2-0.1,0.3-0.1
	c1.7,0.3,3.1,0.3,4.8,0c0.1,0,0.2,0,0.3,0.1c0.1,0.1,0.1,0.2,0.2,0.3l0.8,15.7c0,0,0,0.1,0,0.1c0,0,0,0.1,0,0.1
	C44.3,72.5,42,72.8,40.7,72.8z M62.9,62.3c-4.1,4.2-9.2,7.2-14.8,8.6c0,0-0.1,0-0.1,0c-0.1,0-0.2,0-0.3-0.1
	c-0.1-0.1-0.2-0.2-0.2-0.3L46.8,55c0-0.1,0.1-0.3,0.2-0.4c0.1-0.1,0.3-0.1,0.4,0l15.4,7.1c0.1,0.1,0.2,0.2,0.2,0.3
	C63,62.1,63,62.2,62.9,62.3z M68.3,56.9c-0.6,1-1.4,1.6-2.1,1.6c-0.1,0-0.2,0-0.3,0l-0.3-0.1L51,51.6c-0.1-0.1-0.2-0.2-0.2-0.3
	c0-0.1,0-0.3,0.1-0.4c1.7-1.7,2.9-3.8,3.5-6.1c0-0.1,0.1-0.2,0.3-0.3s0.3,0,0.4,0.1l13.4,9.5c0,0,0.1,0.1,0.1,0.1
	C69,54.8,68.9,55.9,68.3,56.9z M69.7,32.2c0.1-0.1,0.2-0.1,0.4,0s0.2,0.1,0.2,0.3c0.8,2.8,1.2,5.7,1.2,8.6c0,2.9-0.4,5.8-1.2,8.6
	c0,0.1-0.1,0.2-0.3,0.3c0,0-0.1,0-0.1,0c-0.1,0-0.2,0-0.2-0.1L55.8,40c-0.1-0.1-0.2-0.2-0.2-0.4c0-0.1,0.1-0.3,0.2-0.3L69.7,32.2z
	 M65,22.7C65,22.7,65,22.7,65,22.7c0.1-0.1,0.1-0.1,0.2-0.1c0.1-0.1,0.2-0.1,0.4-0.1c0.9,0,2,1.4,2.7,2.6c0.7,1.2,1.6,3.3,0.6,3.9
	c0,0,0,0-0.1,0c0,0-0.1,0.1-0.1,0.1l-14,7.2c-0.1,0-0.1,0-0.2,0c-0.1,0-0.1,0-0.2,0c-0.1,0-0.2-0.1-0.2-0.2
	c-0.6-1.5-1.4-2.9-2.4-4.2c-0.1-0.1-0.1-0.2-0.1-0.3c0-0.1,0.1-0.2,0.2-0.3L65,22.7z M47.7,11.2c0.1-0.1,0.2-0.1,0.4-0.1
	c5.7,1.4,10.8,4.4,14.9,8.6C63,19.8,63,19.9,63,20c0,0.1-0.1,0.2-0.2,0.3l-13.1,8.4c-0.1,0-0.1,0.1-0.2,0.1c-0.1,0-0.1,0-0.2,0
	c-0.1-0.1-0.2-0.2-0.2-0.3l-1.6-16.9C47.5,11.4,47.6,11.2,47.7,11.2z M38.2,10.4c0,0,0-0.1,0-0.1c0.3-0.7,1.3-1.1,2.5-1.1
	c1.2,0,2.2,0.5,2.5,1.1c0,0,0,0.1,0,0.1l1.5,16.3c0,0.1,0,0.3-0.1,0.4c-0.1,0.1-0.2,0.1-0.3,0.1c0,0-0.1,0-0.1,0
	c-2.4-0.6-4.7-0.6-7.1,0c-0.1,0-0.3,0-0.4-0.1s-0.2-0.2-0.1-0.4L38.2,10.4z M40.7,30.4c5.8,0,10.6,4.7,10.6,10.6
	s-4.7,10.6-10.6,10.6c-5.8,0-10.6-4.7-10.6-10.6C30.1,35.1,34.9,30.4,40.7,30.4z M18.4,19.7c4.1-4.2,9.2-7.2,14.9-8.6
	c0.1,0,0.3,0,0.4,0.1c0.1,0.1,0.2,0.2,0.1,0.4l-1.6,16.9c0,0.1-0.1,0.3-0.2,0.3c-0.1,0-0.1,0-0.2,0c-0.1,0-0.2,0-0.2-0.1l-13.1-8.4
	c-0.1-0.1-0.2-0.2-0.2-0.3C18.3,19.9,18.4,19.8,18.4,19.7z M13.1,25.1c0.7-1.2,1.8-2.6,2.7-2.6c0.1,0,0.3,0,0.4,0.1c0,0,0,0,0.1,0
	c0,0,0.1,0,0.1,0l13.2,8.5c0.1,0.1,0.2,0.2,0.2,0.3c0,0.1,0,0.2-0.1,0.3c-1,1.2-1.8,2.6-2.4,4.2c0,0.1-0.1,0.2-0.2,0.2
	c0,0-0.1,0-0.2,0c-0.1,0-0.1,0-0.2,0l-14-7.2c0,0,0,0-0.1,0c0,0-0.1,0-0.1-0.1C11.6,28.4,12.4,26.3,13.1,25.1z M11.1,32.4
	c0-0.1,0.1-0.2,0.2-0.3c0.1,0,0.2,0,0.4,0l13.8,7.1c0.1,0.1,0.2,0.2,0.2,0.3c0,0.1-0.1,0.3-0.2,0.4l-13.8,9.8
	c-0.1,0-0.2,0.1-0.2,0.1c0,0-0.1,0-0.1,0c-0.1,0-0.2-0.1-0.3-0.3c-0.8-2.8-1.2-5.7-1.2-8.6C9.9,38.1,10.3,35.2,11.1,32.4z"/>
</svg>
