<?xml version="1.0" encoding="utf-8"?>
<!-- Generator: Adobe Illustrator 21.1.0, SVG Export Plug-In . SVG Version: 6.00 Build 0)  -->
<svg version="1.1" id="Слой_1" xmlns="http://www.w3.org/2000/svg" xmlns:xlink="http://www.w3.org/1999/xlink" x="0px" y="0px"
	 viewBox="0 0 87 86.4" style="enable-background:new 0 0 87 86.4;" xml:space="preserve">
<path d="M73.3,56c-6-1.9-12.4-2.4-14.9-3.3l0,0c-0.4-0.2-0.7-0.4-1-1c-0.3-0.5-0.5-1.3-0.6-2.3c1.6-1.7,3.1-3.6,4.3-5.7
	c3.8-6.5,5.6-14.3,5.6-20.5C66.6,10.4,56.3,0,43.5,0l0,0C30.8,0,20.4,10.4,20.4,23.1c0,6.2,1.8,14,5.6,20.5c1.2,2,2.5,3.9,4.1,5.5
	c-0.1,1.1-0.3,2-0.6,2.5c-0.3,0.7-0.6,0.9-0.9,1c-2.6,1-8.9,1.5-14.9,3.3c-6,1.9-12,5.5-13.6,12.9c-0.1,0.5,0.1,1.1,0.5,1.4
	c23.7,21.4,62.3,21.4,86,0c0.4-0.4,0.6-0.9,0.5-1.4C85.4,61.5,79.3,57.8,73.3,56z M28.6,42.1c-3.4-5.9-5.2-13.4-5.2-19
	C23.4,12,32.4,3,43.5,3s20.1,9,20.1,20.1c0,5.6-1.7,13.1-5.2,19S50,52.2,43.5,52.2C36.9,52.2,32,48,28.6,42.1z M3.2,68.7
	c1.6-5.6,6.1-8.2,11.4-9.9c5.5-1.7,11.5-2,15.1-3.4l0,0c1.2-0.5,2-1.5,2.5-2.6c0.2-0.4,0.4-0.9,0.5-1.4c3,2.3,6.7,3.8,10.8,3.8
	s7.7-1.4,10.7-3.7c0.1,0.5,0.3,1,0.6,1.4c0.6,1.1,1.5,2,2.7,2.5l0,0c3.6,1.4,9.5,1.7,15.1,3.4c5.3,1.7,9.8,4.3,11.4,9.9
	C61.5,88.2,25.5,88.2,3.2,68.7z"/>
</svg>
