<?xml version="1.0" encoding="utf-8"?>
<!-- Generator: Adobe Illustrator 21.1.0, SVG Export Plug-In . SVG Version: 6.00 Build 0)  -->
<svg version="1.1" id="Слой_1" xmlns="http://www.w3.org/2000/svg" xmlns:xlink="http://www.w3.org/1999/xlink" x="0px" y="0px"
	 viewBox="0 0 90 90" style="enable-background:new 0 0 90 90;" xml:space="preserve">
<path d="M45,0C20.2,0,0,20.2,0,45s20.2,45,45,45s45-20.2,45-45S69.8,0,45,0z M45,85C22.9,85,5,67.1,5,45S22.9,5,45,5s40,17.9,40,40
	S67.1,85,45,85z"/>
<path d="M45,8.8C25,8.8,8.8,25,8.8,45S25,81.3,45,81.3S81.3,65,81.3,45S65,8.8,45,8.8z M34.5,63.3l7.7-4.3l5.5,6.9l-3.7,12.8
	c-3.9-0.1-7.6-0.9-11.1-2.2L34.5,63.3z M30.6,75.5c-3-1.4-5.8-3.3-8.2-5.5l9.4-5.2L30.6,75.5z M11.3,44.1c0.1-3.9,0.9-7.6,2.2-11.1
	l13.2,1.5l4.3,7.7l-6.9,5.5L11.3,44.1z M21.7,49.6l-8.5,6.7c-1.1-3.1-1.8-6.3-1.9-9.7L21.7,49.6z M55.5,26.7L47.8,31l-5.5-6.9
	l3.7-12.8c3.9,0.1,7.6,0.9,11.1,2.2L55.5,26.7z M59.4,14.5c3,1.4,5.8,3.3,8.2,5.5l-9.4,5.2L59.4,14.5z M35.8,45
	c0-5.1,4.1-9.3,9.3-9.3s9.3,4.1,9.3,9.3s-4.1,9.3-9.3,9.3S35.8,50.1,35.8,45z M43.6,33.3c-0.6,0.1-1.2,0.2-1.8,0.4l-2.2-0.3l1.8-6.4
	l4.1,5.2L43.6,33.3z M35.8,37.8c-0.4,0.5-0.7,1-1,1.5L33,40.6l-3.2-5.8l6.6,0.8L35.8,37.8z M46.4,56.7c0.6-0.1,1.2-0.2,1.8-0.4
	l2.2,0.3L48.6,63l-4.1-5.2L46.4,56.7z M54.2,52.2c0.4-0.5,0.7-1,1-1.5l1.8-1.4l3.2,5.8l-6.6-0.8L54.2,52.2z M56.7,43.6
	c-0.1-0.6-0.2-1.2-0.4-1.8l0.3-2.2l6.4,1.8l-5.2,4.1L56.7,43.6z M52.2,35.8c-0.5-0.4-1-0.7-1.5-1L49.4,33l5.8-3.2l-0.8,6.6
	L52.2,35.8z M40.4,21.7l-6.7-8.5c3.1-1.1,6.3-1.8,9.7-1.9L40.4,21.7z M39.5,24.6l-2.4,8.5l-8.8-1l-6.5-11.6c2.7-2.6,5.9-4.7,9.4-6.3
	L39.5,24.6z M25.2,31.8l-10.7-1.2c1.4-3,3.3-5.8,5.5-8.2L25.2,31.8z M32.3,44.4l1.1,1.9c0.1,0.6,0.2,1.2,0.4,1.8l-0.3,2.2L27,48.6
	L32.3,44.4z M37.8,54.2c0.5,0.4,1,0.7,1.5,1l1.4,1.7l-5.8,3.2l0.8-6.6L37.8,54.2z M49.6,68.3l6.7,8.5c-3.1,1.1-6.3,1.8-9.7,1.9
	L49.6,68.3z M50.5,65.4l2.4-8.5l8.8,1l6.5,11.6c-2.7,2.6-5.9,4.7-9.4,6.3L50.5,65.4z M64.8,58.2l10.7,1.2c-1.4,3-3.3,5.8-5.5,8.2
	L64.8,58.2z M63.3,55.5L59,47.8l6.9-5.5l12.8,3.7c-0.1,3.9-0.9,7.6-2.2,11.1L63.3,55.5z M68.3,40.4l8.5-6.7c1.1,3.1,1.8,6.3,1.9,9.7
	L68.3,40.4z M75.8,31.2l-10.4,8.3l-8.5-2.4l1-8.8l11.6-6.5C72.1,24.6,74.2,27.7,75.8,31.2z M14.2,58.8l10.4-8.3l8.5,2.4l-1,8.8
	l-11.6,6.5C17.9,65.4,15.8,62.3,14.2,58.8z"/>
<path d="M45,51.8c3.7,0,6.8-3,6.8-6.8s-3-6.8-6.8-6.8s-6.8,3-6.8,6.8S41.3,51.8,45,51.8z M45,40.8c2.3,0,4.3,1.9,4.3,4.3
	s-1.9,4.3-4.3,4.3s-4.3-1.9-4.3-4.3S42.7,40.8,45,40.8z"/>
</svg>
