<?xml version="1.0" encoding="utf-8"?>
<!-- Generator: Adobe Illustrator 22.1.0, SVG Export Plug-In . SVG Version: 6.00 Build 0)  -->
<svg version="1.1" id="Слой_1" xmlns="http://www.w3.org/2000/svg" xmlns:xlink="http://www.w3.org/1999/xlink" x="0px" y="0px"
	 viewBox="0 0 200 107" style="enable-background:new 0 0 200 107;" xml:space="preserve">
<style type="text/css">
	.st0{fill:#CF86AE;}
	.st1{fill:#60476B;}
</style>
<g>
	<g>
		<g>
			<path class="st0" d="M100.4,20c-0.8,0.4-1.4,1-1.8,1.7c-0.4-0.1-0.9-0.2-1.3-0.3c-2.4-0.3-4.4,1.5-4.3,3.9
				c0.1,1.4,0.7,2.5,1.7,3.4c1.9,1.6,4.2,2.3,6.6,2.8c0.2,0,0.5,0.1,0.5,0.1s0.3-0.3,0.4-0.4c1.3-1.4,2.3-2.9,3-4.6
				c0.5-1.1,0.7-2.3,0.5-3.5C105.5,20.4,103,18.7,100.4,20z"/>
			<path class="st0" d="M117.9,7.6c-1-0.2-2-0.1-3,0.3c-0.4-0.4-0.7-0.9-1-1.2c-2.1-2.1-5.4-1.8-7.1,0.5c-1,1.4-1.2,2.9-0.8,4.6
				c0.7,3,2.3,5.4,4.3,7.6c0.4,0.4,0.7,0.5,1.2,0.4c2.3-0.4,4.4-1.1,6.4-2.2c1.3-0.7,2.4-1.7,3.1-3C122.5,11.8,121.4,8.3,117.9,7.6z
				"/>
		</g>
		<path class="st1" d="M192.5,54.7c-1.2-0.5-8.3-3.4-8.3-3.4s-7.8-2.8-7.9-6.6c-0.2-4.8,5.5-5.9,7.5-5.8c2,0.1,4,0.9,6,1.9
			c0.1,0,0.7,0.5,1.4,0.6c0.6,0.1,1.1-0.4,1.1-0.4l2.2-3c0,0,0.5-0.6,0.5-0.7c0.2-0.2,0.9-1.5-2.1-3c-2.1-1.1-6.4-3.6-13.7-1.9
			c-3.4,0.8-11.5,4.7-10.5,12.6c0.6,4.4,3,6.6,6.1,8.9c4.5,3.3,15.6,5.2,17.5,9.2c1.7,3.6-1,7.9-7.5,8.4c-1.7,0.1-7,0.8-13-3.5
			c-0.5-0.4-1.1-0.4-1.5-0.1c-0.2,0.1-2.6,3.4-2.6,3.4s-1,1.3-0.4,2.2c2.1,2.7,9,4.6,14,4.8c4.3,0.1,10,0,13.7-3.3
			c3.7-3.3,4.9-6.4,4.9-9.3C199.9,60.6,197.2,56.8,192.5,54.7z"/>
		<path class="st1" d="M142.3,70c-0.1-0.6-0.4-0.9-0.6-1c-0.7-0.5-3.8-2.4-3.8-2.4c-0.7-0.4-1.3-0.4-1.8,0.1
			c-2.5,2.3-5.4,3.8-8.8,4.2c-3.3,0.4-6.4-0.2-9.3-1.7l22.2-29.7c0.2-0.3,0.3-0.5,0.2-0.9l0-0.1c-0.1-0.4-0.2-0.7-0.4-0.9l-0.7-0.7
			c-0.4-0.4-0.9-0.8-1.5-1.1c-0.6-0.4-1.1-0.8-1.7-1.2l-0.7-0.5c-4.3-2.1-8.8-2.9-13.4-2.2c-1.1,0.2-2.2,0.4-3.2,0.7
			c-5.7,1.6-10.2,5.1-13.3,10.3c-2.8,4.7-3.9,9.8-3.2,15.2l0.3,1.9c1.4,6.1,4.7,11,9.8,14.4c4.7,3.2,9.9,4.4,15.4,3.8l0.6-0.1
			c5.2-0.7,9.7-3,13.4-6.8C142.3,70.9,142.4,70.5,142.3,70z M112.4,63.9c-0.2,0-0.4-0.1-0.5-0.2c0,0-0.1-0.1-0.1-0.2
			c-1.2-1.9-1.9-4-2.1-6.2c-0.1-0.7-0.2-1.4-0.2-2.2c0-3.2,0.8-6.2,2.6-8.9c2-3,4.6-5.1,7.9-6.3c1.1-0.4,2.2-0.7,3.3-0.8
			c2.1-0.3,4.4-0.1,6.6,0.6c0.2,0.1,0.7,0.3,0.7,0.3c0,0-0.4,0.5-0.5,0.7L113,63.6C112.9,63.8,112.7,63.9,112.4,63.9z"/>
		<path class="st1" d="M171.3,24.5h-11.1V3.7c0-0.8-0.2-1.5-0.6-2c-0.1-0.2-0.3-0.4-0.5-0.6c-0.3-0.3-0.6-0.5-0.9-0.6
			c-0.5-0.3-1.1-0.4-1.7-0.4h-2.6h-0.9v23.6c0,0,0,0,0,0v0.9H152h-2.5h-4.1c-0.1,0-0.2,0-0.3,0c-0.3,0-0.6,0.1-0.9,0.2
			c-0.3,0.1-0.5,0.3-0.7,0.5c-0.2,0.1-0.3,0.3-0.4,0.4c-0.2,0.2-0.4,0.5-0.6,0.8c-0.1,0.2-0.2,0.3-0.3,0.5c-0.1,0.4-0.2,0.7-0.3,1.1
			c0,0.2,0,0.4,0,0.6v2.7v0.9h0.9h9.3c0.5,0,0.9,0.4,0.9,0.9v41.3c0,1,0.4,1.9,1.1,2.6c0.7,0.7,1.6,1.1,2.6,1.1h2.6h0.9v-0.9V32.2
			h8.3c0.5,0,1-0.1,1.4-0.3c0.2-0.1,0.4-0.2,0.7-0.4c0.2-0.1,0.4-0.3,0.6-0.5c0.2-0.2,0.3-0.4,0.5-0.6c0.4-0.6,0.6-1.3,0.6-2.1v-3
			v-0.9H171.3z"/>
		<path class="st1" d="M91.5,38.6c-4.5-4.5-10-6.8-16.3-6.8c-0.1,0-0.2,0-0.3,0h-0.2c-1.6,0-3.2,0.2-4.7,0.5
			c-4.5,0.9-8.4,3.1-11.7,6.5c-4.4,4.6-6.6,10.2-6.6,16.2v51.3h0v0.8h1.1v0l2.9,0c0.9,0,1.7-0.5,2.3-1.2c0.6-0.7,0.9-1.6,0.9-2.6
			V80.5h0v-2.4h0.6c0,0,0,0,0,0h15.2c6.4,0,12-1.9,16.6-6.4c4.5-4.5,6.9-10,6.9-16.4v-0.2C98.3,48.6,96,43.1,91.5,38.6z M86.3,66.4
			c-3.1,3.1-7,4.7-11.4,4.7H59.6c-0.2,0-0.4-0.1-0.5-0.2c-0.1-0.1-0.2-0.2-0.2-0.5V55.2c0-4.3,1.6-8.2,4.6-11.4
			c3.1-3.2,6.9-4.8,11.3-4.9h0.1c4.4,0,8.2,1.6,11.4,4.7C89.4,46.7,91,50.5,91,55C91,59.4,89.5,63.3,86.3,66.4z"/>
	</g>
	<path class="st0" d="M44.8,31.9c-1.2-0.6-2.5-0.6-3.8,0.1c-1.1,0.7-3.1,3.2-3.1,3.2S11.1,70.2,2,82.1c-1.2,1.6-3.5,4.9-0.7,7.9
		c1.5,1.6,6.5,1.4,6.5,1.4h31.9v11.4c0,1.3,0.4,2.4,1.1,3.1c0.4,0.4,0.8,0.6,1.3,0.8c0.5,0.2,1,0.3,1.6,0.3H47v-4.2V63.8V37.4
		C47,34.5,46.4,32.7,44.8,31.9z M39.8,45V48v22.4V84h-1H30h-18c-0.8,0-1.3-0.9-0.8-1.6l13-16.2L38,47.4l0,0l1.1-1.5L39.8,45L39.8,45
		z"/>
</g>
</svg>
