<svg xmlns="http://www.w3.org/2000/svg" viewBox="0 0 212.92 114.86"><defs><style>.cls-1{fill:#d087af;}.cls-2{fill:#fff;}</style></defs><title>Ресурс 3</title><g id="Слой_2" data-name="Слой 2"><g id="Слой_1-2" data-name="Слой 1"><path class="cls-1" d="M106.9,21.26A4.79,4.79,0,0,0,105,23c-.47-.1-.92-.23-1.37-.29a4,4,0,0,0-4.55,4.11,4.79,4.79,0,0,0,1.86,3.56,14.58,14.58,0,0,0,7,2.95c.2,0,.57.07.57.07s.31-.27.48-.45a16.72,16.72,0,0,0,3.21-4.92,6.63,6.63,0,0,0,.56-3.72A4,4,0,0,0,106.9,21.26Z"/><path class="cls-1" d="M125.5,8.08a5.9,5.9,0,0,0-3.2.3c-.38-.45-.71-.91-1.11-1.3a4.87,4.87,0,0,0-7.52.58,5.93,5.93,0,0,0-.87,4.87,18.06,18.06,0,0,0,4.6,8.13,1.28,1.28,0,0,0,1.3.41,20.28,20.28,0,0,0,6.84-2.39,8.17,8.17,0,0,0,3.34-3.2C130.41,12.58,129.26,8.79,125.5,8.08Z"/><path class="cls-2" d="M205,58.14c-1.23-.56-8.8-3.62-8.8-3.62s-8.26-3-8.45-7c-.24-5.06,5.86-6.24,8-6.19a16.13,16.13,0,0,1,6.36,2,4.43,4.43,0,0,0,1.5.58,1.63,1.63,0,0,0,1.22-.44l2.39-3.16.53-.69c.19-.25.92-1.57-2.19-3.21a19,19,0,0,0-14.57-2.07c-3.64.83-12.29,5-11.17,13.44.62,4.71,3.15,7,6.5,9.49,4.77,3.51,16.61,5.56,18.66,9.78,1.85,3.78-1,8.45-8,9a19.14,19.14,0,0,1-13.82-3.74,1.45,1.45,0,0,0-1.65-.1c-.16.1-2.76,3.63-2.76,3.63s-1.07,1.41-.41,2.34c2.21,2.84,9.61,4.93,14.88,5.09,4.61.15,10.63,0,14.57-3.51s5.24-6.82,5.17-9.89C212.8,64.46,210,60.41,205,58.14Z"/><path class="cls-2" d="M151.53,74.5a1.28,1.28,0,0,0-.64-1c-.75-.5-4.07-2.58-4.07-2.58a1.4,1.4,0,0,0-1.9.11,15.92,15.92,0,0,1-9.38,4.42,16.21,16.21,0,0,1-9.85-1.83L149.33,42a1.24,1.24,0,0,0,.22-.92V41a1.88,1.88,0,0,0-.44-1l-.7-.73a12.73,12.73,0,0,0-1.54-1.18c-.59-.44-1.19-.86-1.78-1.24l-.78-.49A24.1,24.1,0,0,0,130.07,34a30,30,0,0,0-3.46.72A23.62,23.62,0,0,0,112.4,45.63,24.12,24.12,0,0,0,109,61.81l.29,2a24.71,24.71,0,0,0,26.83,19.29l.66-.09a24.4,24.4,0,0,0,14.27-7.21A1.54,1.54,0,0,0,151.53,74.5ZM119.71,68a.74.74,0,0,1-.55-.26,1.27,1.27,0,0,1-.12-.2,16,16,0,0,1-2.24-6.61,23,23,0,0,1-.2-2.29,16.92,16.92,0,0,1,11.13-16.13,19.18,19.18,0,0,1,3.52-.86,15.66,15.66,0,0,1,7,.67l.8.28s-.39.51-.57.77L120.33,67.64A.79.79,0,0,1,119.71,68Z"/><path class="cls-2" d="M182.34,26.05H170.49V3.9a3.84,3.84,0,0,0-.64-2.17,4,4,0,0,0-.5-.6,4,4,0,0,0-.92-.69A3.91,3.91,0,0,0,166.59,0H162.8V25.07h0v1h-8l-.32,0a3.69,3.69,0,0,0-1,.24,3.59,3.59,0,0,0-.79.49,3.23,3.23,0,0,0-.47.44,4.49,4.49,0,0,0-.62.83,5.77,5.77,0,0,0-.27.56,4.61,4.61,0,0,0-.3,1.16,4.17,4.17,0,0,0,0,.61v3.9h10.85a1,1,0,0,1,1,1V79.17a3.86,3.86,0,0,0,3.9,3.9h3.79V34.3h8.82a3.77,3.77,0,0,0,1.53-.31,3.46,3.46,0,0,0,.7-.39,4.65,4.65,0,0,0,.65-.54,3.54,3.54,0,0,0,.49-.61,4,4,0,0,0,.64-2.27V26.05Z"/><path class="cls-2" d="M97.46,41a23.63,23.63,0,0,0-17.37-7.26h-.52a26.76,26.76,0,0,0-5,.53,23.91,23.91,0,0,0-12.51,7,24.44,24.44,0,0,0-7,17.2V113h0v.82h4.25a3.51,3.51,0,0,0,2.45-1.26,4,4,0,0,0,1-2.74V85.6h0V83H79.57c6.8,0,12.75-2,17.66-6.76a24,24,0,0,0,7.39-17.46v-.23A24.22,24.22,0,0,0,97.46,41ZM91.91,70.61a16.62,16.62,0,0,1-12.12,5H63.45a.79.79,0,0,1-.59-.21.78.78,0,0,1-.2-.58V58.76a16.91,16.91,0,0,1,4.91-12.08,16.51,16.51,0,0,1,12-5.23h.1a16.61,16.61,0,0,1,12.12,5,16.07,16.07,0,0,1,5.13,12.06A16.5,16.5,0,0,1,91.91,70.61Z"/><path class="cls-1" d="M47.67,33.9a3.92,3.92,0,0,0-4,.16,20.2,20.2,0,0,0-3.28,3.35S11.83,74.63,2.15,87.29C.87,89-1.57,92.5,1.43,95.68c1.57,1.66,7,1.48,7,1.48H42.32v12.17a4.32,4.32,0,0,0,1.19,3.28,3.88,3.88,0,0,0,1.35.86,4.31,4.31,0,0,0,1.7.36H50V39.75C50,36.74,49.41,34.78,47.67,33.9Zm-5.35,14V89.35H12.84A1.05,1.05,0,0,1,12,87.66L25.81,70.39l14.62-20h0l1.2-1.59.69-.91Z"/><path class="cls-2" d="M123.39,101.91a.8.8,0,0,1,.22.57,1,1,0,0,1-.47.77.89.89,0,0,1-.52.16,1.06,1.06,0,0,1-.79-.41,5.9,5.9,0,0,0-1.81-1.36,5.24,5.24,0,0,0-2.2-.45,5,5,0,0,0-2.69.73,4.88,4.88,0,0,0-1.82,2,6.68,6.68,0,0,0-.65,3,6.14,6.14,0,0,0,.69,2.92,5.1,5.1,0,0,0,1.92,2,5.31,5.31,0,0,0,2.83.74,5.17,5.17,0,0,0,3.54-1.18,1.12,1.12,0,0,1,.74-.3,1,1,0,0,1,.6.22,1,1,0,0,1,.38.74.8.8,0,0,1-.27.61,7.06,7.06,0,0,1-5,1.83,7.44,7.44,0,0,1-3.85-1,7.17,7.17,0,0,1-2.67-2.74,7.81,7.81,0,0,1-1-3.88,8.22,8.22,0,0,1,.93-3.94,6.92,6.92,0,0,1,2.58-2.73,7,7,0,0,1,3.7-1A6.83,6.83,0,0,1,123.39,101.91Z"/><path class="cls-2" d="M138.48,100.26a7.26,7.26,0,0,1,2.73,2.74,7.76,7.76,0,0,1,1,3.93,7.91,7.91,0,0,1-1,3.91,7.16,7.16,0,0,1-2.73,2.73,8.29,8.29,0,0,1-7.82,0,7,7,0,0,1-2.73-2.73,8.26,8.26,0,0,1,0-7.84,7,7,0,0,1,2.73-2.74,8.18,8.18,0,0,1,7.8,0Zm-6.73,1.67a5.42,5.42,0,0,0-2,2,6,6,0,0,0-.72,3,5.93,5.93,0,0,0,.72,2.92,5.32,5.32,0,0,0,2,2,5.84,5.84,0,0,0,5.69,0,5.16,5.16,0,0,0,2-2,5.93,5.93,0,0,0,.72-2.92,6,6,0,0,0-.72-3,5.25,5.25,0,0,0-2-2,5.84,5.84,0,0,0-5.69,0Z"/><path class="cls-2" d="M165,100a5.24,5.24,0,0,1,1.95,2.18,7.43,7.43,0,0,1,.7,3.28v7.9a1,1,0,0,1-1,1,1.06,1.06,0,0,1-.77-.29,1,1,0,0,1-.31-.76v-7.9a4.46,4.46,0,0,0-1-3.08,3.31,3.31,0,0,0-2.62-1.14,3.61,3.61,0,0,0-2.79,1.15,4.13,4.13,0,0,0-1.05,3v8a1,1,0,0,1-.29.76,1,1,0,0,1-.75.29,1.08,1.08,0,0,1-.77-.29,1,1,0,0,1-.3-.76v-7.9a4.46,4.46,0,0,0-1-3.08,3.32,3.32,0,0,0-2.62-1.14,3.73,3.73,0,0,0-2.8,1.12,4,4,0,0,0-1.1,2.88v8.12a1,1,0,0,1-.29.76,1,1,0,0,1-.75.29,1.08,1.08,0,0,1-.77-.29,1,1,0,0,1-.3-.76V100.48a1,1,0,0,1,1.07-1.07,1,1,0,0,1,.75.3,1,1,0,0,1,.29.77v.6a5.34,5.34,0,0,1,1.83-1.36,5.43,5.43,0,0,1,2.29-.48,5.36,5.36,0,0,1,2.71.69,5.06,5.06,0,0,1,1.92,1.92,5.56,5.56,0,0,1,2.08-1.92,5.9,5.9,0,0,1,2.86-.69A5.38,5.38,0,0,1,165,100Z"/><path class="cls-2" d="M173.93,112.13a1.58,1.58,0,0,1,.47,1.13,1.55,1.55,0,0,1-.47,1.13,1.53,1.53,0,0,1-1.12.47,1.61,1.61,0,0,1,0-3.21A1.5,1.5,0,0,1,173.93,112.13Z"/><path class="cls-2" d="M191.57,99.7a1,1,0,0,1,.31.75v12.9a1,1,0,0,1-1.07,1.07,1,1,0,0,1-.76-.3,1.1,1.1,0,0,1-.29-.77v-.94a6.4,6.4,0,0,1-2.19,1.6,6.84,6.84,0,0,1-2.8.57,7.32,7.32,0,0,1-3.5-.82,6,6,0,0,1-2.43-2.4,7.7,7.7,0,0,1-.88-3.77v-7.14a1,1,0,0,1,.31-.74,1,1,0,0,1,.74-.3,1.06,1.06,0,0,1,.77.3,1,1,0,0,1,.3.74v7.14a4.83,4.83,0,0,0,1.36,3.71,5,5,0,0,0,3.55,1.28,5.69,5.69,0,0,0,2.43-.52,4.32,4.32,0,0,0,1.71-1.44,3.57,3.57,0,0,0,.63-2.05v-8.12a1,1,0,0,1,.29-.75,1,1,0,0,1,.76-.29A1,1,0,0,1,191.57,99.7Z"/><path class="cls-2" d="M207.53,100.27a7.33,7.33,0,0,1,2.74,2.76,7.7,7.7,0,0,1,1,3.9v6.44a1,1,0,0,1-.3.75,1.14,1.14,0,0,1-1.53,0,1,1,0,0,1-.31-.76v-1.64a6.71,6.71,0,0,1-2.44,2.07,7.11,7.11,0,0,1-3.26.75,7.22,7.22,0,0,1-6.44-3.74,7.81,7.81,0,0,1-1-3.88,7.7,7.7,0,0,1,1-3.9,7.33,7.33,0,0,1,2.74-2.76,8,8,0,0,1,7.77,0Zm-1.06,11.62a5.27,5.27,0,0,0,2-2,6.23,6.23,0,0,0,0-5.85,5.44,5.44,0,0,0-2-2,5.32,5.32,0,0,0-2.82-.76,5.39,5.39,0,0,0-2.84.76,5.49,5.49,0,0,0-2,2,6.3,6.3,0,0,0,0,5.85,5.32,5.32,0,0,0,2,2,5.47,5.47,0,0,0,2.84.74A5.4,5.4,0,0,0,206.47,111.89Z"/></g></g></svg>