<svg xmlns="http://www.w3.org/2000/svg" viewBox="0 0 1042.46 240.9"><defs><style>.cls-1{fill:#160e00;}</style></defs><title>Ресурс 1</title><g id="Слой_2" data-name="Слой 2"><g id="Слой_1-2" data-name="Слой 1"><path class="cls-1" d="M230.76,40.4c-35,20.1-76.1,34.1-112.6,52.8C81.06,76.4,44.56,58.6,6.76,42.3,42.46,27.4,82.86,12.2,118.16,0,156.76,12.1,192.06,27.8,230.76,40.4Z"/><path class="cls-1" d="M234.86,187c-35.7,18.2-73.6,35-108.5,53.9-1.9-43.1-1.1-92.2,0-135.6,36-17.1,73.1-33.1,108.5-50.9C237.06,97,233.66,142.4,234.86,187Z"/><path class="cls-1" d="M111,105.1c-.7,44.2-1.4,88.4-1.1,133.3-37.6-17.1-73.6-35.7-109.7-53.9-.7-44.6,1.1-86.9,1.1-130.8C38.46,70.5,74.16,88.4,111,105.1Z"/><path class="cls-1" d="M292.66,75.4l-37.5,76.2H271l10.4-22.6h38.7l10.2,22.6h16.4l-37.4-76.2Zm-7.1,44.4,4.5-10.4c3.6-7.5,6.8-15.3,10.4-24.2l.2.3c3.4,8.3,6.7,16.1,10.4,23.9l4.7,10.4Z"/><path class="cls-1" d="M433.16,97.2c0-14.5-13-21.8-38.7-21.8h-34.8v76.2h15.4V120.1h18.4l26,31.5h17.7l-27.8-32.8C424.56,115.9,433.16,108.2,433.16,97.2Zm-58.1,13.5v-26h17.4c17.5,0,25.3,3.9,25.3,12.5,0,8.9-8.3,13.5-24.5,13.6v-.2l-18.2.1Z"/><polygon class="cls-1" points="443.36 85 476.06 85 476.06 151.6 491.46 151.6 491.46 85 524.26 85 524.26 75.4 443.36 75.4 443.36 85"/><path class="cls-1" d="M648.86,75.6,628.26,116c-1.3,2.6-2.6,5.2-3.7,7.8-1,2.3-2.1,4.7-3.2,7-1-2.1-1.9-4.1-2.9-6-1.5-3.1-2.9-6-4.4-8.9l-21-40.4h-18v76.2h14.1V109.8a157,157,0,0,0-1.3-17.5c0-.6-.2-1.3-.2-1.9l7.5,14.8,20.6,39.1h10.1l20.6-39.1L654,90.4c0,.6-.2,1.3-.2,1.9-.6,5.8-1.3,12.3-1.3,17.5v41.9h14.3v-76h-17.9v-.1Z"/><path class="cls-1" d="M717.56,75.4l-37.5,76.2h15.8l10.4-22.6H745l10.2,22.6h16.4l-37.4-76.2Zm-7.2,44.4,4.5-10.4c3.6-7.5,6.8-15.3,10.4-24.2l.2.3c3.4,8.3,6.7,16.1,10.4,23.9l4.7,10.4Z"/><path class="cls-1" d="M858,97.2c0-14.5-13-21.8-38.7-21.8h-34.8v76.2h15.4V120.1h18.4l26,31.5H862l-27.8-32.8C849.36,115.9,858,108.2,858,97.2Zm-58.1,13.5v-26h17.4c17.5,0,25.3,3.9,25.3,12.5,0,8.9-8.3,13.5-24.5,13.6v-.2l-18.2.1Z"/><polygon class="cls-1" points="956.56 75.4 938.36 75.4 894.06 112.3 894.06 75.4 878.66 75.4 878.66 151.4 894.06 151.4 894.06 127.4 911.56 113.1 943.56 151.6 961.16 151.6 921.46 104.8 956.56 75.4"/><path class="cls-1" d="M1019.56,110.3l-15.4-4.5c-8-2.3-17.2-4.9-17.2-11.5,0-6.2,7.6-10.1,19.3-10.1a43,43,0,0,1,24,6.8l.5.3,8.6-7.3-.8-.6c-8.6-6-20.3-9.4-32.3-9.4-20.3,0-34.9,8.6-34.9,20.6,0,8.9,7.6,15.6,22.6,20l15.6,4.7c10.7,3.2,17.4,5.5,17.4,12.3,0,7-8.6,11.4-21.8,11.4-10.6,0-21.3-3.2-29.4-9.1l-.5-.3-9.6,7.5.8.6c10.1,7.3,23.7,11.4,38.3,11.4,22.2,0,37.7-9.1,37.7-21.9C1042.46,118.8,1031,113.8,1019.56,110.3Z"/></g></g></svg>