<?xml version="1.0" encoding="utf-8"?>
<!-- Generator: Adobe Illustrator 22.1.0, SVG Export Plug-In . SVG Version: 6.00 Build 0)  -->
<svg version="1.1" id="Слой_1" xmlns="http://www.w3.org/2000/svg" xmlns:xlink="http://www.w3.org/1999/xlink" x="0px" y="0px"
	 viewBox="0 0 47 60" style="enable-background:new 0 0 47 60;" xml:space="preserve" fill="#ff0007">
<title>delivery</title>
<g>
	<path d="M31,40.4V42h-1v2h9v-2h-1v-1.6l0.3,0.3l1.4-1.4l-2-2l0,0c-0.4-0.4-1-0.4-1.4,0c0,0,0,0,0,0l-1.8,1.8l-1.8-1.8l0,0
		c-0.4-0.4-1-0.4-1.4,0c0,0,0,0,0,0l-2,2l1.4,1.4L31,40.4z M34.5,39.5l1.2,1.2l0.3-0.3V42h-3v-1.6l0.3,0.3L34.5,39.5z"/>
	<rect x="16" y="41" width="2" height="2"/>
	<rect x="19" y="41" width="4" height="2"/>
	<rect x="16" y="38" width="7" height="2"/>
	<path d="M46,48h-2V17c0-0.6-0.4-1-1-1H12V1c0-0.6-0.4-1-1-1H3C1.3,0,0,1.3,0,3s1.3,3,3,3h3v36.5C1.3,44.2-1.1,49.3,0.5,54
		s6.8,7.1,11.5,5.5c2.6-0.9,4.6-2.9,5.5-5.5H46c0.6,0,1-0.4,1-1v-4C47,48.4,46.6,48,46,48z M28,18v6h-2v-6H28z M24,18v7
		c0,0.6,0.4,1,1,1h4c0.6,0,1-0.4,1-1v-7h12v30H17.5c-0.9-2.6-2.9-4.6-5.5-5.5V18H24z M2,3c0-0.6,0.4-1,1-1h7v2H3C2.5,4,2,3.6,2,3z
		 M8,6h2v36.1c-0.7-0.1-1.3-0.1-2,0V6z M9,58c-3.9,0-7-3.1-7-7s3.1-7,7-7s7,3.1,7,7C16,54.9,12.9,58,9,58z M45,52H17.9
		c0.1-0.7,0.1-1.3,0-2H45V52z"/>
</g>
<text transform="matrix(1 0 0 1 -7.9975 82)" style="font-family:'HelveticaNeue-Bold'; font-size:5px;">from the Noun Project</text>
</svg>
