<svg xmlns="http://www.w3.org/2000/svg" viewBox="0 0 47 60" fill="#ff0007"><path d="M31 40.4V42h-1v2h9v-2h-1v-1.6l.3.3 1.4-1.4-2-2c-.4-.4-1-.4-1.4 0l-1.8 1.8-1.8-1.8c-.4-.4-1-.4-1.4 0l-2 2 1.4 1.4.3-.3zm3.5-.9l1.2 1.2.3-.3V42h-3v-1.6l.3.3 1.2-1.2zM16 41h2v2h-2zm3 0h4v2h-4zm-3-3h7v2h-7z"/><path d="M46 48h-2V17c0-.6-.4-1-1-1H12V1c0-.6-.4-1-1-1H3C1.3 0 0 1.3 0 3s1.3 3 3 3h3v36.5C1.3 44.2-1.1 49.3.5 54s6.8 7.1 11.5 5.5c2.6-.9 4.6-2.9 5.5-5.5H46c.6 0 1-.4 1-1v-4c0-.6-.4-1-1-1zM28 18v6h-2v-6h2zm-4 0v7c0 .6.4 1 1 1h4c.6 0 1-.4 1-1v-7h12v30H17.5c-.9-2.6-2.9-4.6-5.5-5.5V18h12zM2 3c0-.6.4-1 1-1h7v2H3c-.5 0-1-.4-1-1zm6 3h2v36.1c-.7-.1-1.3-.1-2 0V6zm1 52c-3.9 0-7-3.1-7-7s3.1-7 7-7 7 3.1 7 7-3.1 7-7 7zm36-6H17.9c.1-.7.1-1.3 0-2H45v2z"/><text transform="translate(-7.997 82)" font-family="HelveticaNeue-Bold" font-size="5">from the Noun Project</text></svg>