<?xml version="1.0" encoding="utf-8"?>
<!-- Generator: Adobe Illustrator 22.1.0, SVG Export Plug-In . SVG Version: 6.00 Build 0)  -->
<svg version="1.1" id="Слой_1" xmlns="http://www.w3.org/2000/svg" xmlns:xlink="http://www.w3.org/1999/xlink" x="0px" y="0px"
	 viewBox="0 0 59.7 59.9" style="enable-background:new 0 0 59.7 59.9;" xml:space="preserve" fill="#ff0007">
<path d="M6.9,45.8c-2.7,1.8-3.7,5.2-2.2,7.5c0.8,1.3,2.3,2,4,2c1.3,0,2.6-0.4,3.8-1.2s2.2-2.1,2.7-3.5c0.4-1.4,0.3-2.9-0.5-4
	C13.1,44.3,9.7,44,6.9,45.8z M13,47.7c0.4,0.6,0.5,1.4,0.2,2.3s-1,1.8-1.9,2.4c-1.8,1.2-4.1,1.1-5-0.3c-0.9-1.4-0.1-3.5,1.7-4.7
	c0.8-0.5,1.7-0.8,2.6-0.8C11.6,46.6,12.5,47,13,47.7z"/>
<circle cx="17.7" cy="35" r="2"/>
<path d="M14.7,23.4c0.8-1.1,1-2.6,0.5-4c-0.4-1.4-1.4-2.6-2.7-3.5c-2.8-1.9-6.3-1.5-7.8,0.8s-0.6,5.6,2.2,7.4
	c1.2,0.8,2.5,1.2,3.7,1.2C12.3,25.3,13.8,24.7,14.7,23.4z M13,22.2c-0.9,1.4-3.2,1.5-5,0.3c-1.9-1.2-2.6-3.3-1.7-4.7
	c0.5-0.7,1.4-1.1,2.4-1.1c0.9,0,1.8,0.3,2.6,0.8c0.9,0.6,1.6,1.5,1.9,2.4C13.5,20.7,13.4,21.6,13,22.2z"/>
<path d="M42.7,6c-2.2,0-4,1.8-4,4s1.8,4,4,4s4-1.8,4-4S44.9,6,42.7,6z M42.7,12c-1.1,0-2-0.9-2-2s0.9-2,2-2s2,0.9,2,2
	S43.8,12,42.7,12z"/>
<path d="M59,17.8L46.4,1.7C45.5,0.6,44.1,0,42.7,0s-2.8,0.6-3.8,1.7l-12.5,16c-0.5,0.5-0.8,1.3-0.8,2v4l-8,5.3l-1.7-1.2
	c0.8-0.6,1.5-1.3,2.1-2.2c1.4-2,1.7-4.5,1.1-7s-2.2-4.6-4.4-6.1c-4.6-3.1-10.5-2.2-13.3,1.9c-2.7,4.1-1.3,10,3.3,13
	c0.3,0.2,4.5,3.7,7.4,6.1l0.3,1.4l-0.3,1.3c-2.9,2.4-7.1,5.9-7.4,6.1c-4.6,3.1-6.1,8.9-3.3,13c1.6,2.5,4.4,3.8,7.4,3.8
	c2,0,4.1-0.6,5.9-1.8c2.2-1.5,3.8-3.6,4.4-6.1s0.3-5-1.1-7c-0.6-0.8-1.4-1.5-2.3-2.1l2-1.6l8,4.4v15h34V19.8
	C59.7,19,59.4,18.3,59,17.8z M25.6,26.1V32L24,33.3l-4.5-3L25.6,26.1z M5.8,25.9C2.1,23.4,0.9,18.8,3,15.6s6.8-3.9,10.5-1.4
	c1.8,1.2,3.1,2.9,3.6,4.9s0.2,3.9-0.8,5.4c-0.7,1-1.6,1.8-2.8,2.3l-1.7,0.7l35,23.4c-1.2,1.3-3.3,1.7-4.9,0.8L14.7,36.6l-0.8-4.1
	l-0.3-0.2C10.8,30,6.1,26.1,5.8,25.9z M11.9,42.5l1.6,0.7c1.2,0.5,2.1,1.3,2.8,2.3c1,1.5,1.3,3.4,0.8,5.4s-1.8,3.7-3.6,4.9
	C9.8,58.2,5.1,57.6,3,54.4s-0.9-7.8,2.8-10.3c0.3-0.2,4.5-3.7,7.4-6l2.6,1.4L11.9,42.5z M57.7,58h-30V46.1l5.1,2.8l-0.9,1.6l1.6,1
	l1-1.6l6.4,3.5c0.9,0.5,1.9,0.7,2.9,0.7c1.9,0,3.9-0.9,5-2.5l0.8-1.2l-10.8-7.2l12.7-20.7l-1.6-1L37.1,42l-9.5-6.3V19.8
	c0-0.2,0.1-0.5,0.3-0.7L40.5,3c0.6-0.6,1.4-1,2.2-1s1.7,0.4,2.2,1l12.5,16.1c0.2,0.2,0.3,0.4,0.3,0.7V58z"/>
<path d="M36.7,24c-2.2,0-4,1.8-4,4s1.8,4,4,4s4-1.8,4-4S38.9,24,36.7,24z M36.7,30c-1.1,0-2-0.9-2-2s0.9-2,2-2s2,0.9,2,2
	S37.8,30,36.7,30z"/>
<path d="M48.7,40c-2.2,0-4,1.8-4,4s1.8,4,4,4s4-1.8,4-4S50.9,40,48.7,40z M48.7,46c-1.1,0-2-0.9-2-2s0.9-2,2-2s2,0.9,2,2
	S49.8,46,48.7,46z"/>
</svg>
