<svg xmlns="http://www.w3.org/2000/svg" viewBox="0 0 59.7 59.9" fill="#ff0007"><path d="M6.9 45.8c-2.7 1.8-3.7 5.2-2.2 7.5.8 1.3 2.3 2 4 2 1.3 0 2.6-.4 3.8-1.2s2.2-2.1 2.7-3.5c.4-1.4.3-2.9-.5-4-1.6-2.3-5-2.6-7.8-.8zm6.1 1.9c.4.6.5 1.4.2 2.3s-1 1.8-1.9 2.4c-1.8 1.2-4.1 1.1-5-.3-.9-1.4-.1-3.5 1.7-4.7.8-.5 1.7-.8 2.6-.8 1 0 1.9.4 2.4 1.1z"/><circle cx="17.7" cy="35" r="2"/><path d="M14.7 23.4c.8-1.1 1-2.6.5-4-.4-1.4-1.4-2.6-2.7-3.5-2.8-1.9-6.3-1.5-7.8.8s-.6 5.6 2.2 7.4c1.2.8 2.5 1.2 3.7 1.2 1.7 0 3.2-.6 4.1-1.9zM13 22.2c-.9 1.4-3.2 1.5-5 .3-1.9-1.2-2.6-3.3-1.7-4.7.5-.7 1.4-1.1 2.4-1.1.9 0 1.8.3 2.6.8.9.6 1.6 1.5 1.9 2.4.3.8.2 1.7-.2 2.3zM42.7 6c-2.2 0-4 1.8-4 4s1.8 4 4 4 4-1.8 4-4-1.8-4-4-4zm0 6c-1.1 0-2-.9-2-2s.9-2 2-2 2 .9 2 2-.9 2-2 2z"/><path d="M59 17.8L46.4 1.7C45.5.6 44.1 0 42.7 0s-2.8.6-3.8 1.7l-12.5 16c-.5.5-.8 1.3-.8 2v4l-8 5.3-1.7-1.2c.8-.6 1.5-1.3 2.1-2.2 1.4-2 1.7-4.5 1.1-7s-2.2-4.6-4.4-6.1c-4.6-3.1-10.5-2.2-13.3 1.9-2.7 4.1-1.3 10 3.3 13 .3.2 4.5 3.7 7.4 6.1l.3 1.4-.3 1.3c-2.9 2.4-7.1 5.9-7.4 6.1-4.6 3.1-6.1 8.9-3.3 13 1.6 2.5 4.4 3.8 7.4 3.8 2 0 4.1-.6 5.9-1.8 2.2-1.5 3.8-3.6 4.4-6.1s.3-5-1.1-7c-.6-.8-1.4-1.5-2.3-2.1l2-1.6 8 4.4v15h34V19.8c0-.8-.3-1.5-.7-2zm-33.4 8.3V32L24 33.3l-4.5-3 6.1-4.2zm-19.8-.2C2.1 23.4.9 18.8 3 15.6s6.8-3.9 10.5-1.4c1.8 1.2 3.1 2.9 3.6 4.9s.2 3.9-.8 5.4c-.7 1-1.6 1.8-2.8 2.3l-1.7.7 35 23.4c-1.2 1.3-3.3 1.7-4.9.8L14.7 36.6l-.8-4.1-.3-.2c-2.8-2.3-7.5-6.2-7.8-6.4zm6.1 16.6l1.6.7c1.2.5 2.1 1.3 2.8 2.3 1 1.5 1.3 3.4.8 5.4s-1.8 3.7-3.6 4.9C9.8 58.2 5.1 57.6 3 54.4s-.9-7.8 2.8-10.3c.3-.2 4.5-3.7 7.4-6l2.6 1.4-3.9 3zM57.7 58h-30V46.1l5.1 2.8-.9 1.6 1.6 1 1-1.6 6.4 3.5c.9.5 1.9.7 2.9.7 1.9 0 3.9-.9 5-2.5l.8-1.2-10.8-7.2 12.7-20.7-1.6-1L37.1 42l-9.5-6.3V19.8c0-.2.1-.5.3-.7L40.5 3c.6-.6 1.4-1 2.2-1s1.7.4 2.2 1l12.5 16.1c.2.2.3.4.3.7V58z"/><path d="M36.7 24c-2.2 0-4 1.8-4 4s1.8 4 4 4 4-1.8 4-4-1.8-4-4-4zm0 6c-1.1 0-2-.9-2-2s.9-2 2-2 2 .9 2 2-.9 2-2 2zm12 10c-2.2 0-4 1.8-4 4s1.8 4 4 4 4-1.8 4-4-1.8-4-4-4zm0 6c-1.1 0-2-.9-2-2s.9-2 2-2 2 .9 2 2-.9 2-2 2z"/></svg>