<svg xmlns="http://www.w3.org/2000/svg" viewBox="0 0 112 121.6" fill="#ff0007"><path class="st0" d="M9.6 118.6h60.1c3.7 0 6.6-2.7 6.6-6V82.4h-5.1v23.3h-63V15.9h63.1v22.7h5.1V9c0-3.3-3-6-6.6-6H9.6C5.9 3 3 5.7 3 9v103.7c0 3.2 3 5.9 6.6 5.9zm30.1-10.5c2.4 0 4.4 1.9 4.4 4.1s-2 4.1-4.4 4.1-4.4-1.9-4.4-4.1 2-4.1 4.4-4.1zM27.6 6.9h24.1v3H27.6v-3z" fill="none"/><path class="st0" d="M39.7 113.4c.7 0 1.4-.5 1.4-1.1s-.6-1.1-1.4-1.1-1.4.5-1.4 1.1.7 1.1 1.4 1.1zm-28.5-10.7h57.1V82.4H38.5c-3.7 0-6.8-2.8-6.8-6.3V45c0-3.5 3-6.3 6.8-6.3h29.7V18.9h-57v83.8z" fill="none"/><path class="st0" d="M34.7 45v1.8H109V45c0-1.8-1.7-3.3-3.8-3.3H38.5c-2.1-.1-3.8 1.4-3.8 3.3zm0 4.8V76c0 1.8 1.7 3.3 3.8 3.3h66.7c2.1 0 3.8-1.5 3.8-3.3V49.8H34.7zm52.7 17.1H56.7v-3h30.7v3z" fill="none"/><path d="M27.6 6.9h24.1v3H27.6z"/><path d="M9.6 121.6h60.1c5.3 0 9.6-4 9.6-9V82.4h25.9c3.7 0 6.8-2.8 6.8-6.3V45c0-3.5-3.1-6.3-6.8-6.3H79.3V9c0-4.9-4.3-9-9.6-9H9.6C4.3 0 0 4 0 9v103.7c0 4.9 4.3 8.9 9.6 8.9zm95.6-42.2H38.5c-2.1 0-3.8-1.5-3.8-3.3V49.8H109V76c0 1.9-1.7 3.4-3.8 3.4zm-37-40.8H38.5c-3.7 0-6.8 2.8-6.8 6.3V76c0 3.5 3 6.3 6.8 6.3h29.7v20.3h-57V18.9h57.1v19.7h-.1zM109 45v1.8H34.7V45c0-1.8 1.7-3.3 3.8-3.3h66.7c2.1-.1 3.8 1.4 3.8 3.3zM3 9c0-3.3 3-6 6.6-6h60.1c3.7 0 6.6 2.7 6.6 6v29.6h-5.1V15.9h-63v89.8h63.1V82.4h5.1v30.3c0 3.3-3 6-6.6 6H9.6c-3.7 0-6.6-2.7-6.6-6V9z"/><path d="M39.7 116.4c2.4 0 4.4-1.9 4.4-4.1s-2-4.1-4.4-4.1-4.4 1.9-4.4 4.1 2 4.1 4.4 4.1zm0-5.3c.7 0 1.4.5 1.4 1.1s-.6 1.1-1.4 1.1-1.4-.5-1.4-1.1.7-1.1 1.4-1.1zm17-47.2h30.7v3H56.7z"/></svg>