<svg xmlns="http://www.w3.org/2000/svg" viewBox="0 0 77 49" fill="#ff0007"><path d="M38.5 4.9C27.7 4.9 19 13.7 19 24.5v.5c0 3.7 1.1 7.2 3.2 10.3.1.1.1.2.2.2.2.3.5.7.8 1 .3.3.5.7.8 1 .1.1.1.2.2.2l.3.3c3.5 3.7 8.5 6 14 6C49.3 44 58 35.2 58 24.4S49.3 4.9 38.5 4.9zM26.9 36.1h-1.5c-.2-.2-.4-.5-.6-.7-.3-.3-.5-.6-.7-1l-.1-.1c-1.5-2.3-2.5-5-2.8-7.9v-1.1c0-1.7.2-3.5.7-5.3h5.2l-.2 16.1zm11.6 6c-4.2 0-8-1.5-11-4H29v-.2c2.9.1 5.1.1 8 .1h6.9c1.9 0 3.1-1.3 3.1-3.5 0-.2 0-.5-.1-.7 1.1-.5 1.9-1.6 1.9-2.8 0-.5-.1-.9-.3-1.3 1.2-.5 1.8-1.4 1.8-2.8 0-.4-.1-.7-.2-1.1 1.1-.5 2-1.7 2-3.1 0-1.6-1.2-2.7-3-2.7h-9.2c1-1.9 1.7-3.9 1.6-6-.1-2-.9-3.5-2.2-4.6-.7-.3-1.3-.5-1.9-.4-1.5.3-1.6 1.2-1.6 1.6 0 3.1-1.3 4.3-2.7 5.7-.8.8-1.6 1.5-2.3 2.6-.3.4-.7.7-1.2.7h-.7V18h-6.6c2.6-6.5 8.9-11 16.2-11C48.1 7 56 14.9 56 24.6c0 9.6-7.9 17.5-17.5 17.5zm-1.3-20.6c.2.3.5.5.9.5H49c1 0 1 .4 1 .7 0 .6-.6 1.3-1.2 1.3h-4.9c-.6 0-1 .4-1 1s.4 1 1 1H47c.4 0 1.2.2 1.2.8 0 .6-.2 1.1-2 1.2h-3.4c-.6 0-1 .4-1 1s.4 1 1 1h2.8c.5 0 1 .3 1 .9 0 .6-.5 1.1-1.1 1.1h-4.4c-.6 0-1 .4-1 1s.4 1 1 1h3.6c.1.1.1.3.1.5 0 1.5-.6 1.5-1.1 1.5h-6.9c-2.9 0-5.1 0-7.9-.1V21.6h.6c1.2 0 2.3-.6 2.9-1.7.5-.9 1.2-1.5 1.9-2.2 1.5-1.4 3.2-3.1 3.3-6.7h.1c.9.7 1.3 1.7 1.4 3.1.1 2.1-.9 4.3-2.1 6.3 0 .4 0 .8.2 1.1z"/><path d="M76.9 30.6L74.1 24l2.8-6.6c.1-.3.1-.7-.1-.9-.2-.3-.5-.5-.8-.5H61.5C58 6.7 49 0 38.5 0S19 6.7 15.5 16H1c-.3 0-.6.2-.8.5-.2.3-.2.6-.1.9L2.9 24 .1 30.6c-.1.3-.1.7.1.9s.5.5.8.5h14.2c3.2 9.9 12.4 17 23.3 17s20.1-7.1 23.3-17H76c.3 0 .6-.2.8-.5s.3-.6.1-.9zM2.5 30l2.4-5.6c.1-.3.1-.5 0-.8L2.5 18h12.4c-.6 2.1-.9 4.3-.9 6.5 0 1.9.2 3.7.6 5.5H2.5zm36 17C26.1 47 16 36.9 16 24.5S26.1 2 38.5 2 61 12.1 61 24.5 50.9 47 38.5 47zm23.9-17c.4-1.8.6-3.6.6-5.5 0-2.3-.3-4.4-.9-6.5h12.4l-2.4 5.6c-.1.3-.1.5 0 .8l2.4 5.6H62.4z"/></svg>