<?xml version="1.0" encoding="utf-8"?>
<!-- Generator: Adobe Illustrator 22.1.0, SVG Export Plug-In . SVG Version: 6.00 Build 0)  -->
<svg version="1.1" id="Слой_1" xmlns="http://www.w3.org/2000/svg" xmlns:xlink="http://www.w3.org/1999/xlink" x="0px" y="0px"
	 viewBox="0 0 77 49" style="enable-background:new 0 0 77 49;" xml:space="preserve" fill="#ff0007">
<g>
	<path d="M38.5,4.9C27.7,4.9,19,13.7,19,24.5c0,0.2,0,0.3,0,0.5c0,3.7,1.1,7.2,3.2,10.3c0.1,0.1,0.1,0.2,0.2,0.2
		c0.2,0.3,0.5,0.7,0.8,1c0.3,0.3,0.5,0.7,0.8,1c0.1,0.1,0.1,0.2,0.2,0.2l0.3,0.3h0c3.5,3.7,8.5,6,14,6c10.8,0,19.5-8.8,19.5-19.6
		S49.3,4.9,38.5,4.9z M26.9,36.1h-1.5c0,0,0,0,0,0c-0.2-0.2-0.4-0.5-0.6-0.7c-0.3-0.3-0.5-0.6-0.7-1c0,0-0.1-0.1-0.1-0.1
		c-1.5-2.3-2.5-5-2.8-7.9c0-0.1,0-0.2,0-0.4c0-0.2,0-0.5,0-0.7c0-1.7,0.2-3.5,0.7-5.3l5.2,0L26.9,36.1L26.9,36.1z M38.5,42.1
		c-4.2,0-8-1.5-11-4h1.5v-0.2c2.9,0.1,5.1,0.1,8,0.1l6.9,0c1.9,0,3.1-1.3,3.1-3.5c0-0.2,0-0.5-0.1-0.7c1.1-0.5,1.9-1.6,1.9-2.8
		c0-0.5-0.1-0.9-0.3-1.3c1.2-0.5,1.8-1.4,1.8-2.8c0-0.4-0.1-0.7-0.2-1.1c1.1-0.5,2-1.7,2-3.1c0-1.6-1.2-2.7-3-2.7h-9.2
		c1-1.9,1.7-3.9,1.6-6c-0.1-2-0.9-3.5-2.2-4.6C38.6,9.1,38,8.9,37.4,9c-1.5,0.3-1.6,1.2-1.6,1.6c0,3.1-1.3,4.3-2.7,5.7
		c-0.8,0.8-1.6,1.5-2.3,2.6c-0.3,0.4-0.7,0.7-1.2,0.7c-0.2,0-0.5,0-0.7,0V18l-6.6,0c2.6-6.5,8.9-11,16.2-11
		c9.6,0,17.5,7.9,17.5,17.6C56,34.2,48.1,42.1,38.5,42.1z M37.2,21.5c0.2,0.3,0.5,0.5,0.9,0.5H49c1,0,1,0.4,1,0.7
		c0,0.6-0.6,1.3-1.2,1.3H47c0,0,0,0,0,0h-3.1c-0.6,0-1,0.4-1,1s0.4,1,1,1H47c0.4,0,1.2,0.2,1.2,0.8c0,0.6-0.2,1.1-2,1.2h-3.4
		c-0.6,0-1,0.4-1,1s0.4,1,1,1h2.8c0,0,0,0,0,0c0.5,0,1,0.3,1,0.9c0,0.6-0.5,1.1-1.1,1.1h-0.3c0,0,0,0-0.1,0h-4c-0.6,0-1,0.4-1,1
		s0.4,1,1,1h3.6c0.1,0.1,0.1,0.3,0.1,0.5c0,1.5-0.6,1.5-1.1,1.5l-6.9,0c-2.9,0-5.1,0-7.9-0.1V21.6c0.2,0,0.4,0,0.6,0
		c1.2,0,2.3-0.6,2.9-1.7c0.5-0.9,1.2-1.5,1.9-2.2c1.5-1.4,3.2-3.1,3.3-6.7c0,0,0,0,0,0c0,0,0.1,0,0.1,0c0.9,0.7,1.3,1.7,1.4,3.1
		c0.1,2.1-0.9,4.3-2.1,6.3C37,20.8,37,21.2,37.2,21.5z"/>
	<path d="M76.9,30.6L74.1,24l2.8-6.6c0.1-0.3,0.1-0.7-0.1-0.9C76.6,16.2,76.3,16,76,16H61.5C58,6.7,49,0,38.5,0C28,0,19,6.7,15.5,16
		H1c-0.3,0-0.6,0.2-0.8,0.5c-0.2,0.3-0.2,0.6-0.1,0.9L2.9,24l-2.8,6.6c-0.1,0.3-0.1,0.7,0.1,0.9S0.7,32,1,32h14.2
		c3.2,9.9,12.4,17,23.3,17c10.9,0,20.1-7.1,23.3-17H76c0.3,0,0.6-0.2,0.8-0.5S77.1,30.9,76.9,30.6z M2.5,30l2.4-5.6
		c0.1-0.3,0.1-0.5,0-0.8L2.5,18h12.4c-0.6,2.1-0.9,4.3-0.9,6.5c0,1.9,0.2,3.7,0.6,5.5H2.5z M38.5,47C26.1,47,16,36.9,16,24.5
		S26.1,2,38.5,2C50.9,2,61,12.1,61,24.5S50.9,47,38.5,47z M62.4,30c0.4-1.8,0.6-3.6,0.6-5.5c0-2.3-0.3-4.4-0.9-6.5h12.4l-2.4,5.6
		c-0.1,0.3-0.1,0.5,0,0.8l2.4,5.6L62.4,30L62.4,30z"/>
</g>
</svg>
