<?xml version="1.0" encoding="utf-8"?>
<!-- Generator: Adobe Illustrator 22.1.0, SVG Export Plug-In . SVG Version: 6.00 Build 0)  -->
<svg version="1.1" id="Слой_1" xmlns="http://www.w3.org/2000/svg" xmlns:xlink="http://www.w3.org/1999/xlink" x="0px" y="0px"
	 viewBox="0 0 81.9 82.7" style="enable-background:new 0 0 81.9 82.7;" xml:space="preserve" fill="#ff0007">
<g>
	<path d="M77.5,71.5H21c-1.3-1.7-3.3-2.9-5.7-2.9s-4.4,1.1-5.7,2.9H4.4c-2.3,0-4.1,1.9-4.1,4.1s1.9,4.1,4.1,4.1h5.3
		c1.3,1.7,3.3,2.9,5.7,2.9s4.4-1.1,5.7-2.9h56.4c2.3,0,4.1-1.9,4.1-4.1S79.8,71.5,77.5,71.5z M7.3,78H4.4c-1.3,0-2.3-1-2.3-2.3
		s1-2.3,2.3-2.3h2.9C7.1,74.1,7,74.9,7,75.7C7,76.5,7.1,77.2,7.3,78z M15.4,80.9c-2.9,0-5.2-2.3-5.2-5.2s2.3-5.2,5.2-5.2
		c2.9,0,5.2,2.3,5.2,5.2S18.2,80.9,15.4,80.9z M77.5,78h-54c0.2-0.7,0.3-1.5,0.3-2.3c0-0.8-0.1-1.6-0.3-2.3h54c1.3,0,2.3,1,2.3,2.3
		S78.8,78,77.5,78z"/>
	<g>
		<path d="M71.5,0.3H10.4C4.8,0.3,0.2,4.8,0.2,10.4v46.1c0,5.6,4.5,10.1,10.1,10.1h61.1c5.6,0,10.1-4.5,10.1-10.1V10.4
			C81.6,4.8,77.1,0.3,71.5,0.3z M79.8,56.4c0,4.6-3.7,8.3-8.3,8.3H10.4c-4.6,0-8.3-3.7-8.3-8.3V10.4c0-4.6,3.7-8.3,8.3-8.3h61.1
			c4.6,0,8.3,3.7,8.3,8.3V56.4z"/>
		<path d="M71.5,66.8H10.4C4.7,66.8,0,62.2,0,56.4V10.4C0,4.7,4.7,0,10.4,0h61.1c5.7,0,10.4,4.7,10.4,10.4v46.1
			C81.9,62.2,77.2,66.8,71.5,66.8z M10.4,0.5c-5.4,0-9.9,4.4-9.9,9.9v46.1c0,5.5,4.4,9.9,9.9,9.9h61.1c5.5,0,9.9-4.4,9.9-9.9V10.4
			c0-5.5-4.4-9.9-9.9-9.9H10.4z M71.5,65H10.4c-4.7,0-8.5-3.8-8.5-8.5V10.4c0-4.7,3.8-8.5,8.5-8.5h61.1c4.7,0,8.5,3.8,8.5,8.5v46.1
			C80,61.2,76.2,65,71.5,65z M10.4,2.3c-4.4,0-8,3.6-8,8v46.1c0,4.4,3.6,8,8,8h61.1c4.4,0,8-3.6,8-8V10.4c0-4.4-3.6-8-8-8H10.4z"/>
	</g>
	<path d="M40.5,11.4c-12.4,0-22.5,10.1-22.5,22.5S28,56.5,40.5,56.5C52.9,56.5,63,46.4,63,33.9S52.9,11.4,40.5,11.4z M40.5,54.6
		c-11.4,0-20.7-9.3-20.7-20.7s9.3-20.7,20.7-20.7c11.4,0,20.7,9.3,20.7,20.7S51.9,54.6,40.5,54.6z"/>
	<path d="M51.3,30.9l-13.9-8c-0.6-0.3-1.2-0.5-1.8-0.5c-1.9,0-3.3,1.5-3.3,3.5v16c0,2,1.5,3.5,3.3,3.5c0.6,0,1.2-0.2,1.8-0.5l13.9-8
		c1.1-0.6,1.8-1.8,1.8-3C53,32.7,52.4,31.6,51.3,30.9z M50.3,35.3l-13.9,8c-0.3,0.2-0.6,0.3-0.9,0.3c-0.9,0-1.5-0.7-1.5-1.6v-16
		c0-0.9,0.6-1.6,1.5-1.6c0.3,0,0.6,0.1,0.9,0.3l13.9,8c0.5,0.3,0.9,0.8,0.9,1.4C51.2,34.5,50.9,35,50.3,35.3z"/>
	<path d="M36.1,41.1l12.5-7.2l-12.5-7.2V41.1z M38,29.9l6.9,4l-6.9,4V29.9z"/>
</g>
</svg>
