<svg xmlns="http://www.w3.org/2000/svg" viewBox="0 0 81.9 82.7" fill="#ff0007"><path d="M77.5 71.5H21c-1.3-1.7-3.3-2.9-5.7-2.9s-4.4 1.1-5.7 2.9H4.4c-2.3 0-4.1 1.9-4.1 4.1s1.9 4.1 4.1 4.1h5.3c1.3 1.7 3.3 2.9 5.7 2.9s4.4-1.1 5.7-2.9h56.4c2.3 0 4.1-1.9 4.1-4.1s-1.8-4.1-4.1-4.1zM7.3 78H4.4c-1.3 0-2.3-1-2.3-2.3s1-2.3 2.3-2.3h2.9c-.2.7-.3 1.5-.3 2.3 0 .8.1 1.5.3 2.3zm8.1 2.9c-2.9 0-5.2-2.3-5.2-5.2s2.3-5.2 5.2-5.2c2.9 0 5.2 2.3 5.2 5.2s-2.4 5.2-5.2 5.2zM77.5 78h-54c.2-.7.3-1.5.3-2.3 0-.8-.1-1.6-.3-2.3h54c1.3 0 2.3 1 2.3 2.3s-1 2.3-2.3 2.3zM71.5.3H10.4C4.8.3.2 4.8.2 10.4v46.1c0 5.6 4.5 10.1 10.1 10.1h61.1c5.6 0 10.1-4.5 10.1-10.1V10.4C81.6 4.8 77.1.3 71.5.3zm8.3 56.1c0 4.6-3.7 8.3-8.3 8.3H10.4c-4.6 0-8.3-3.7-8.3-8.3v-46c0-4.6 3.7-8.3 8.3-8.3h61.1c4.6 0 8.3 3.7 8.3 8.3v46z"/><path d="M71.5 66.8H10.4C4.7 66.8 0 62.2 0 56.4v-46C0 4.7 4.7 0 10.4 0h61.1c5.7 0 10.4 4.7 10.4 10.4v46.1c0 5.7-4.7 10.3-10.4 10.3zM10.4.5C5 .5.5 4.9.5 10.4v46.1c0 5.5 4.4 9.9 9.9 9.9h61.1c5.5 0 9.9-4.4 9.9-9.9V10.4c0-5.5-4.4-9.9-9.9-9.9H10.4zM71.5 65H10.4c-4.7 0-8.5-3.8-8.5-8.5V10.4c0-4.7 3.8-8.5 8.5-8.5h61.1c4.7 0 8.5 3.8 8.5 8.5v46.1c0 4.7-3.8 8.5-8.5 8.5zM10.4 2.3c-4.4 0-8 3.6-8 8v46.1c0 4.4 3.6 8 8 8h61.1c4.4 0 8-3.6 8-8v-46c0-4.4-3.6-8-8-8H10.4z"/><path d="M40.5 11.4C28.1 11.4 18 21.5 18 33.9s10 22.6 22.5 22.6C52.9 56.5 63 46.4 63 33.9S52.9 11.4 40.5 11.4zm0 43.2c-11.4 0-20.7-9.3-20.7-20.7s9.3-20.7 20.7-20.7c11.4 0 20.7 9.3 20.7 20.7s-9.3 20.7-20.7 20.7z"/><path d="M51.3 30.9l-13.9-8c-.6-.3-1.2-.5-1.8-.5-1.9 0-3.3 1.5-3.3 3.5v16c0 2 1.5 3.5 3.3 3.5.6 0 1.2-.2 1.8-.5l13.9-8c1.1-.6 1.8-1.8 1.8-3-.1-1.2-.7-2.3-1.8-3zm-1 4.4l-13.9 8c-.3.2-.6.3-.9.3-.9 0-1.5-.7-1.5-1.6V26c0-.9.6-1.6 1.5-1.6.3 0 .6.1.9.3l13.9 8c.5.3.9.8.9 1.4 0 .4-.3.9-.9 1.2z"/><path d="M36.1 41.1l12.5-7.2-12.5-7.2v14.4zM38 29.9l6.9 4-6.9 4v-8z"/></svg>