<?xml version="1.0" encoding="utf-8"?>
<!-- Generator: Adobe Illustrator 22.1.0, SVG Export Plug-In . SVG Version: 6.00 Build 0)  -->
<svg version="1.1" id="Слой_1" xmlns="http://www.w3.org/2000/svg" xmlns:xlink="http://www.w3.org/1999/xlink" x="0px" y="0px"
	 viewBox="0 0 64 64" style="enable-background:new 0 0 64 64;" xml:space="preserve" fill="#ff0007">
<g>
	<path d="M43,62H2V2h8v4H5C4.4,6,4,6.4,4,7v50c0,0.6,0.4,1,1,1h35c0.6,0,1-0.4,1-1v-8h-2v7H6V8h4v1c0,1.7,1.3,3,3,3h20
		c1.7,0,3-1.3,3-3V8h3v7h2V7c0-0.6-0.4-1-1-1h-4V2h7l0,13l2,0l0-13c0-0.5-0.2-1-0.6-1.4C44.1,0.2,43.6,0,43,0H2C0.9,0,0,0.9,0,2v60
		c0,1.1,0.9,2,2,2h41c1.1,0,2-0.9,2-2V49h-2V62z M34,2v7c0,0.6-0.4,1-1,1H13c-0.6,0-1-0.4-1-1V2H34z"/>
	<rect x="15" y="5" width="2" height="2"/>
	<rect x="29" y="5" width="2" height="2"/>
	<rect x="22" y="5" width="2" height="2"/>
	<path d="M62,17H34v2h28v26H34v2h28c1.1,0,2-0.9,2-2V19C64,17.9,63.1,17,62,17z"/>
	<path d="M24.4,16.1c-0.2-0.1-0.5-0.1-0.7,0l-13,5C10.3,21.2,10,21.6,10,22v19c0,0.3,0.1,0.6,0.4,0.8l13,10c0.2,0.1,0.4,0.2,0.6,0.2
		c0.2,0,0.4-0.1,0.6-0.2l8-6.2L31.4,44L24,49.7l-12-9.2V22.7l12-4.6l7.6,2.9l0.7-1.9L24.4,16.1z"/>
	<path d="M22.9,33.5l-1.2-1.2l-1.4,1.4l2,2c0.2,0.2,0.4,0.3,0.7,0.3c0,0,0,0,0.1,0c0.3,0,0.5-0.2,0.7-0.4l4-5l-1.6-1.2L22.9,33.5z"
		/>
	<path d="M24,25c-4.4,0-8,3.6-8,8s3.6,8,8,8s8-3.6,8-8S28.4,25,24,25z M24,39c-3.3,0-6-2.7-6-6s2.7-6,6-6s6,2.7,6,6S27.3,39,24,39z"
		/>
	<path d="M40,38h-6v2h6c1.3,0,2.6-0.5,3.5-1.5S45,36.3,45,35l0-6c0-2.8-2.2-5-5-5h-6v2h6c1.7,0,3,1.3,3,3l0,6c0,0.8-0.3,1.6-0.9,2.1
		S40.8,38,40,38z"/>
	<path d="M47,42h8c0.6,0,1-0.4,1-1v-1c0-0.6,0.4-1,1-1h1c0.6,0,1-0.4,1-1V26c0-0.6-0.4-1-1-1h-1c-0.6,0-1-0.4-1-1v-1
		c0-0.6-0.4-1-1-1h-8v2h7c0,1.7,1.3,3,3,3v10c-1.7,0-3,1.3-3,3h-7V42z"/>
	<rect x="48" y="31" width="2" height="2"/>
	<rect x="52" y="31" width="2" height="2"/>
</g>
</svg>
