<svg xmlns="http://www.w3.org/2000/svg" viewBox="0 0 64 64" fill="#ff0007"><path d="M43 62H2V2h8v4H5c-.6 0-1 .4-1 1v50c0 .6.4 1 1 1h35c.6 0 1-.4 1-1v-8h-2v7H6V8h4v1c0 1.7 1.3 3 3 3h20c1.7 0 3-1.3 3-3V8h3v7h2V7c0-.6-.4-1-1-1h-4V2h7v13h2V2c0-.5-.2-1-.6-1.4-.3-.4-.8-.6-1.4-.6H2C.9 0 0 .9 0 2v60c0 1.1.9 2 2 2h41c1.1 0 2-.9 2-2V49h-2v13zM34 2v7c0 .6-.4 1-1 1H13c-.6 0-1-.4-1-1V2h22z"/><path d="M15 5h2v2h-2zm14 0h2v2h-2zm-7 0h2v2h-2zm40 12H34v2h28v26H34v2h28c1.1 0 2-.9 2-2V19c0-1.1-.9-2-2-2zm-37.6-.9c-.2-.1-.5-.1-.7 0l-13 5c-.4.1-.7.5-.7.9v19c0 .3.1.6.4.8l13 10c.2.1.4.2.6.2.2 0 .4-.1.6-.2l8-6.2-1.2-1.6-7.4 5.7-12-9.2V22.7l12-4.6 7.6 2.9.7-1.9-7.9-3z"/><path d="M22.9 33.5l-1.2-1.2-1.4 1.4 2 2c.2.2.4.3.7.3h.1c.3 0 .5-.2.7-.4l4-5-1.6-1.2-3.3 4.1z"/><path d="M24 25c-4.4 0-8 3.6-8 8s3.6 8 8 8 8-3.6 8-8-3.6-8-8-8zm0 14c-3.3 0-6-2.7-6-6s2.7-6 6-6 6 2.7 6 6-2.7 6-6 6zm16-1h-6v2h6c1.3 0 2.6-.5 3.5-1.5S45 36.3 45 35v-6c0-2.8-2.2-5-5-5h-6v2h6c1.7 0 3 1.3 3 3v6c0 .8-.3 1.6-.9 2.1s-1.3.9-2.1.9zm7 4h8c.6 0 1-.4 1-1v-1c0-.6.4-1 1-1h1c.6 0 1-.4 1-1V26c0-.6-.4-1-1-1h-1c-.6 0-1-.4-1-1v-1c0-.6-.4-1-1-1h-8v2h7c0 1.7 1.3 3 3 3v10c-1.7 0-3 1.3-3 3h-7v2z"/><path d="M48 31h2v2h-2zm4 0h2v2h-2z"/></svg>