<?xml version="1.0" encoding="utf-8"?>
<!-- Generator: Adobe Illustrator 23.0.1, SVG Export Plug-In . SVG Version: 6.00 Build 0)  -->
<svg version="1.1" id="Слой_1" xmlns="http://www.w3.org/2000/svg" xmlns:xlink="http://www.w3.org/1999/xlink" x="0px" y="0px"
	 viewBox="0 0 12 10" style="enable-background:new 0 0 12 10;" xml:space="preserve">
<style type="text/css">
	.st0{fill:#6C6C6C;}
</style>
<path class="st0" d="M7.059,10c0,0-0.101,0-0.101-0.109L6.857,9.783c0-0.109,0-0.109,0.101-0.109l4.437-4.457h-1.21
	c-1.109,0-2.824,0-5.445,0c-1.613,0-2.824-0.543-3.63-1.522C0.303,2.826,0.101,1.63,0,0.87V0.761l0.101-0.109
	c0.101,0,0.202,0.109,0.202,0.217C0.403,1.63,0.605,2.609,1.311,3.478c0.706,0.87,1.815,1.304,3.328,1.304c2.622,0,4.437,0,5.445,0
	h1.21L6.857,0.326L6.756,0.217c0-0.109,0-0.109,0.101-0.109L6.958,0c0,0,0.101,0,0.101,0.109L12,5l0,0l0,0L7.16,9.891
	C7.16,10,7.059,10,7.059,10z"/>
</svg>
