<?xml version="1.0" encoding="utf-8"?>
<!-- Generator: Adobe Illustrator 23.0.1, SVG Export Plug-In . SVG Version: 6.00 Build 0)  -->
<svg version="1.1" id="Слой_1" xmlns="http://www.w3.org/2000/svg" xmlns:xlink="http://www.w3.org/1999/xlink" x="0px" y="0px"
	 viewBox="0 0 20 20" style="enable-background:new 0 0 20 20;" xml:space="preserve" fill="#cccccc">
<g>
	<g>
		<path class="st0" d="M20,5L20,5L20,5c0-0.1,0-0.1,0-0.2l-2.5-4.2c-0.2-0.4-0.6-0.6-1-0.6c-6.4,0-9.1,0-12,0c-0.4,0-0.8,0.2-1,0.6
			L1,4.8c0,0,0,0.1,0,0.2v7.9c-0.7,0.8-1,1.7-1,2.8C0,18.1,1.9,20,4.3,20c1.7,0,3.2-1,3.9-2.5h10.5c0.7,0,1.3-0.6,1.3-1.3L20,5L20,5
			z M7.7,5.3h5.7v2.9H7.7V5.3z M17,0.9l2.2,3.8h-5.3l-1.2-4.1h3.8C16.7,0.6,16.9,0.7,17,0.9z M12.1,0.6l1.2,4.1H7.8L9,0.6H12.1z
			 M4,0.9c0.1-0.2,0.3-0.3,0.5-0.3h3.8L7.1,4.7H1.8L4,0.9z M4.3,19.4c-2.1,0-3.7-1.7-3.7-3.7S2.3,12,4.3,12S8,13.7,8,15.7
			S6.4,19.4,4.3,19.4z M18.7,16.9H8.5c0.1-0.4,0.2-0.8,0.2-1.2c0-2.4-1.9-4.3-4.3-4.3c-1,0-2,0.4-2.7,1V5.3H7v3.2
			c0,0.2,0.1,0.3,0.3,0.3h6.3c0.2,0,0.3-0.1,0.3-0.3V5.3h5.5v10.9C19.4,16.6,19.1,16.9,18.7,16.9z"/>
	</g>
	<g>
		<path class="st0" d="M11.3,11.7l0.9-0.9v3.3c0,0.2,0.1,0.3,0.3,0.3s0.3-0.1,0.3-0.3v-3.3l0.9,0.9c0.1,0.1,0.3,0.1,0.4,0
			s0.1-0.3,0-0.4l-1.4-1.5l0,0c-0.1-0.1-0.1-0.1-0.2-0.1s-0.2,0-0.2,0.1l0,0l-1.4,1.5c-0.1,0.1-0.1,0.3,0,0.4S11.2,11.8,11.3,11.7z"
			/>
	</g>
	<g>
		<path class="st0" d="M17.1,9.8L17.1,9.8C17,9.7,17,9.7,16.9,9.7s-0.2,0-0.2,0.1l0,0l-1.4,1.5c-0.1,0.1-0.1,0.3,0,0.4
			s0.3,0.1,0.4,0l0.9-0.9v3.3c0,0.2,0.1,0.3,0.3,0.3s0.3-0.1,0.3-0.3v-3.3l0.9,0.9c0.1,0.1,0.3,0.1,0.4,0s0.1-0.3,0-0.4L17.1,9.8z"
			/>
	</g>
	<g>
		<path class="st0" d="M18.1,15.2h-6.8c-0.2,0-0.3,0.1-0.3,0.3s0.1,0.3,0.3,0.3h6.8c0.2,0,0.3-0.1,0.3-0.3
			C18.4,15.3,18.2,15.2,18.1,15.2z"/>
	</g>
	<g>
		<path class="st0" d="M6.9,13.8c-0.1-0.1-0.3-0.1-0.4,0l-3.1,3.1l-1.2-1.5c-0.1-0.1-0.3-0.2-0.4-0.1c-0.1,0.1-0.2,0.3-0.1,0.4
			l1.4,1.8c0.1,0.1,0.1,0.1,0.2,0.1l0,0c0.1,0,0.2,0,0.2-0.1l3.3-3.3C7,14.2,7,14,6.9,13.8z"/>
	</g>
</g>
</svg>
