<?xml version="1.0" encoding="utf-8"?>
<!-- Generator: Adobe Illustrator 23.0.1, SVG Export Plug-In . SVG Version: 6.00 Build 0)  -->
<svg version="1.1" id="Слой_1" xmlns="http://www.w3.org/2000/svg" xmlns:xlink="http://www.w3.org/1999/xlink" x="0px" y="0px"
	 viewBox="0 0 54 50" style="enable-background:new 0 0 54 50;" xml:space="preserve">
<g>
	<path d="M50.007,0c-2.321,0-4.137,1.804-4.137,4.108v40.381c0,0.301,0.101,0.601,0.202,0.802l2.523,4.008
		C48.897,49.8,49.402,50,49.906,50c0.505,0,1.009-0.301,1.312-0.701l2.523-4.008c0.202-0.301,0.202-0.501,0.202-0.802V4.108
		C54.144,1.804,52.227,0,50.007,0z M47.686,8.216h4.541v33.567h-4.44V8.216H47.686z M50.007,1.904c1.211,0,2.22,1.002,2.22,2.204
		v2.204h-4.44V4.108C47.686,2.906,48.695,1.904,50.007,1.904z M50.007,47.896l-2.22-3.507v-0.701h4.44v0.701L50.007,47.896z"/>
	<path d="M18.121,9.519h-5.752c-0.505,0-0.908-0.401-0.908-0.902c0-0.501,0.404-0.902,0.908-0.902h5.752
		c0.505,0,0.908,0.401,0.908,0.902C19.029,9.118,18.625,9.519,18.121,9.519z"/>
	<path d="M33.358,9.519H22.56c-0.505,0-0.908-0.401-0.908-0.902c0-0.501,0.404-0.902,0.908-0.902h10.797
		c0.505,0,0.908,0.401,0.908,0.902C34.367,9.118,33.862,9.519,33.358,9.519z"/>
	<path d="M18.121,14.529h-5.752c-0.505,0-0.908-0.401-0.908-0.902s0.404-0.902,0.908-0.902h5.752c0.505,0,0.908,0.401,0.908,0.902
		C19.029,14.128,18.625,14.529,18.121,14.529z"/>
	<path d="M33.358,14.529H22.56c-0.505,0-0.908-0.401-0.908-0.902s0.404-0.902,0.908-0.902h10.797c0.505,0,0.908,0.401,0.908,0.902
		C34.367,14.128,33.862,14.529,33.358,14.529z"/>
	<path d="M18.121,24.649h-5.752c-0.505,0-0.908-0.401-0.908-0.902c0-0.501,0.404-0.902,0.908-0.902h5.752
		c0.505,0,0.908,0.401,0.908,0.902C19.029,24.248,18.625,24.649,18.121,24.649z"/>
	<path d="M33.358,24.649H22.56c-0.505,0-0.908-0.401-0.908-0.902c0-0.501,0.404-0.902,0.908-0.902h10.797
		c0.505,0,0.908,0.401,0.908,0.902C34.266,24.248,33.862,24.649,33.358,24.649z"/>
	<path d="M18.121,29.76h-5.752c-0.505,0-0.908-0.401-0.908-0.902s0.404-0.902,0.908-0.902h5.752c0.505,0,0.908,0.401,0.908,0.902
		S18.625,29.76,18.121,29.76z"/>
	<path d="M33.358,29.76H22.56c-0.505,0-0.908-0.401-0.908-0.902s0.404-0.902,0.908-0.902h10.797c0.505,0,0.908,0.401,0.908,0.902
		S33.862,29.76,33.358,29.76z"/>
	<path d="M38.504,0H7.223C6.718,0,6.314,0.401,6.314,0.902v5.411H0.865c-0.505,0-0.908,0.401-0.908,0.902v41.884
		c0,0.501,0.404,0.902,0.908,0.902h31.281c0.505,0,0.908-0.401,0.908-0.902v-5.411h5.449c0.505,0,0.908-0.401,0.908-0.902V0.902
		C39.412,0.401,39.008,0,38.504,0z M31.138,48.096H1.774V8.216h4.44v34.469c0,0.501,0.404,0.902,0.908,0.902h23.915v4.509H31.138z
		 M37.495,41.784c-6.559,0-23.713,0-29.364,0c0-5.01,0-36.072,0-39.88h29.364V41.784z"/>
</g>
</svg>
