<?xml version="1.0" encoding="utf-8"?>
<!-- Generator: Adobe Illustrator 23.0.1, SVG Export Plug-In . SVG Version: 6.00 Build 0)  -->
<svg version="1.1" id="Слой_1" xmlns="http://www.w3.org/2000/svg" xmlns:xlink="http://www.w3.org/1999/xlink" x="0px" y="0px"
	 viewBox="0 0 20 20" style="enable-background:new 0 0 20 20;" xml:space="preserve">
<style type="text/css">
	.st0{fill:#6C6C6C;}
</style>
<path class="st0" d="M19.744,20H0.269c-0.154,0-0.256-0.114-0.256-0.285V5.157c0-0.171,0.102-0.285,0.256-0.285h19.475
	C19.898,4.872,20,4.986,20,5.157v14.53C20,19.858,19.898,20,19.744,20z M0.525,19.43h18.962V5.442H0.525V19.43z"/>
<path class="st0" d="M19.744,5.442H0.269c-0.102,0-0.179-0.057-0.231-0.142c-0.051-0.085-0.051-0.199,0-0.285l2.588-4.872
	C2.678,0.057,2.755,0,2.857,0H17.13c0.102,0,0.179,0.057,0.231,0.142l2.588,4.872C20,5.1,20,5.214,19.949,5.299
	C19.923,5.413,19.846,5.442,19.744,5.442z M0.73,4.872h18.578L17.002,0.57H3.011L0.73,4.872z"/>
<path class="st0" d="M18.309,2.735H1.704c-0.154,0-0.256-0.114-0.256-0.285c0-0.171,0.102-0.285,0.256-0.285h16.579
	c0.154,0,0.256,0.114,0.256,0.285C18.539,2.621,18.437,2.735,18.309,2.735z"/>
<path class="st0" d="M8.443,12.165c-0.077,0-0.128-0.028-0.179-0.085l-1.563-1.738c-0.102-0.114-0.102-0.285,0-0.399
	c0.102-0.114,0.256-0.114,0.359,0l1.563,1.738c0.102,0.114,0.102,0.285,0,0.399C8.571,12.137,8.52,12.165,8.443,12.165z"/>
<path class="st0" d="M6.88,10.427c-0.077,0-0.128-0.028-0.179-0.085c-0.102-0.114-0.102-0.285,0-0.399l1.563-1.738
	c0.102-0.114,0.256-0.114,0.359,0c0.102,0.114,0.102,0.285,0,0.399L7.06,10.342C7.008,10.399,6.957,10.427,6.88,10.427z"/>
<path class="st0" d="M10.75,15.698H8.418c-0.154,0-0.256-0.114-0.256-0.285c0-0.171,0.102-0.285,0.256-0.285h2.332
	c1.153,0,2.127-1.054,2.127-2.365s-0.948-2.365-2.127-2.365H6.88c-0.154,0-0.256-0.114-0.256-0.285c0-0.171,0.102-0.285,0.256-0.285
	h3.869c1.461,0,2.639,1.311,2.639,2.934S12.21,15.698,10.75,15.698z"/>
</svg>
