<?xml version="1.0" encoding="utf-8"?>
<!-- Generator: Adobe Illustrator 23.0.1, SVG Export Plug-In . SVG Version: 6.00 Build 0)  -->
<svg version="1.1" id="Слой_1" xmlns="http://www.w3.org/2000/svg" xmlns:xlink="http://www.w3.org/1999/xlink" x="0px" y="0px"
	 viewBox="0 0 48 50" style="enable-background:new 0 0 48 50;" xml:space="preserve">
<style type="text/css">
	.st0{display:none;}
	.st1{display:inline;}
</style>
<g class="st0">
	<path class="st1" d="M82.8,797.2H-1155c-2.1,0-3.8-1.7-3.8-3.8V-393.7c0-2.1,1.7-3.8,3.8-3.8H82.8c2.1,0,3.8,1.7,3.8,3.8V793.5
		C86.6,795.5,84.9,797.2,82.8,797.2z"/>
</g>
<g>
	<g>
		<g>
			<path d="M16.909,20.419H6.218v6.898h10.691V20.419z M15.764,26.159H7.418v-4.581h8.345V26.159L15.764,26.159z"/>
			<path d="M29.345,20.419H18.655v6.898h10.636v-6.898H29.345z M28.145,26.159H19.8v-4.581h8.345V26.159z"/>
			<path d="M41.782,20.419H31.091v6.898h10.636v-6.898H41.782z M40.582,26.159h-8.345v-4.581h8.345V26.159z"/>
			<path d="M16.909,29.139H6.218v6.898h10.691V29.139z M15.764,34.879H7.418v-4.581h8.345V34.879L15.764,34.879z"/>
			<path d="M29.345,29.139H18.655v6.898h10.636v-6.898H29.345z M28.145,34.879H19.8v-4.581h8.345V34.879z"/>
			<path d="M41.782,29.139H31.091v6.898h10.636v-6.898H41.782z M40.582,34.879h-8.345v-4.581h8.345V34.879z"/>
			<path d="M16.909,37.859H6.218v6.898h10.691V37.859z M15.764,43.598H7.418v-4.581h8.345V43.598L15.764,43.598z"/>
			<path d="M29.345,37.859H18.655v6.898h10.636v-6.898H29.345z M28.145,43.598H19.8v-4.581h8.345V43.598z"/>
			<path d="M41.782,37.859H31.091v6.898h10.636v-6.898H41.782z M40.582,43.598h-8.345v-4.581h8.345V43.598z"/>
			<path d="M3.873,50C1.745,50,0,48.234,0,46.082V9.547c0-2.152,1.745-3.918,3.873-3.918h0.545l0.055-0.552V3.146
				C4.473,1.435,5.836,0,7.582,0h0.273c1.691,0,3.109,1.38,3.109,3.146v2.483h4.418V3.146C15.382,1.435,16.745,0,18.491,0h0.273
				c1.691,0,3.109,1.38,3.109,3.146v2.483h4.418V3.146C26.291,1.435,27.655,0,29.4,0h0.273c1.691,0,3.109,1.38,3.109,3.146v2.483
				h4.309V3.146C37.091,1.435,38.455,0,40.2,0h0.273c1.691,0,3.109,1.38,3.109,3.146v2.483h0.545C46.309,5.629,48,7.395,48,9.547
				v36.534C48,48.234,46.255,50,44.127,50C44.127,50,3.873,50,3.873,50z M1.2,46.082c0,1.49,1.2,2.649,2.618,2.649h40.255
				c1.473,0,2.618-1.214,2.618-2.649V16.998H1.2V46.082z M3.873,6.898c-1.473,0-2.618,1.214-2.618,2.649v6.181H46.8V9.547
				c0-1.49-1.2-2.649-2.618-2.649h-0.545L43.582,7.45v1.435c0,1.711-1.364,3.146-3.109,3.146H40.2c-1.691,0-3.109-1.38-3.109-3.146
				V6.898h-4.418v1.987c0,1.711-1.364,3.146-3.109,3.146h-0.273c-1.691,0-3.109-1.38-3.109-3.146V6.898h-4.418v1.987
				c0,1.711-1.364,3.146-3.109,3.146h-0.273c-1.691,0-3.109-1.38-3.109-3.146V6.898h-4.364v1.987c0,1.711-1.364,3.146-3.109,3.146
				H7.527c-1.691,0-3.109-1.38-3.109-3.146V6.898C4.418,6.898,3.873,6.898,3.873,6.898z M40.2,1.214
				c-1.036,0-1.855,0.828-1.855,1.876v5.74c0,1.049,0.818,1.876,1.855,1.876h0.273c1.036,0,1.855-0.828,1.855-1.876V3.146
				c0-1.049-0.818-1.876-1.855-1.876H40.2V1.214z M29.345,1.214c-1.036,0-1.855,0.828-1.855,1.876v5.74
				c0,1.049,0.818,1.876,1.855,1.876h0.273c1.036,0,1.855-0.828,1.855-1.876V3.146c0-1.049-0.818-1.876-1.855-1.876h-0.273V1.214z
				 M18.436,1.214c-1.036,0-1.855,0.828-1.855,1.876v5.74c0,1.049,0.818,1.876,1.855,1.876h0.273c1.036,0,1.855-0.828,1.855-1.876
				V3.146c0-1.049-0.818-1.876-1.855-1.876h-0.273V1.214z M7.527,1.214c-1.036,0-1.855,0.828-1.855,1.876v5.74
				c0,1.049,0.818,1.876,1.855,1.876H7.8c1.036,0,1.855-0.828,1.855-1.876V3.146c0-1.049-0.818-1.876-1.855-1.876H7.527V1.214z"/>
		</g>
	</g>
</g>
</svg>
